<svg xmlns="http://www.w3.org/2000/svg" viewBox="0 0 160 100" role="img" fill="none"><circle cx="14.00" cy="12.00" r="1.70" fill="#161616" opacity="0.78"/><circle cx="26.00" cy="12.00" r="1.70" fill="#161616" opacity="0.78"/><circle cx="38.00" cy="12.00" r="1.70" fill="#161616" opacity="0.78"/><circle cx="50.00" cy="12.00" r="1.70" fill="#161616" opacity="0.78"/><circle cx="62.00" cy="12.00" r="1.70" fill="#161616" opacity="0.78"/><circle cx="74.00" cy="12.00" r="1.70" fill="#161616" opacity="0.78"/><circle cx="86.00" cy="12.00" r="1.70" fill="#161616" opacity="0.78"/><circle cx="98.00" cy="12.00" r="1.70" fill="#161616" opacity="0.78"/><circle cx="110.00" cy="12.00" r="1.70" fill="#161616" opacity="0.78"/><circle cx="122.00" cy="12.00" r="1.70" fill="#161616" opacity="0.78"/><circle cx="134.00" cy="12.00" r="1.70" fill="#161616" opacity="0.78"/><circle cx="146.00" cy="12.00" r="1.70" fill="#161616" opacity="0.78"/><circle cx="14.00" cy="24.67" r="1.70" fill="#161616" opacity="0.78"/><circle cx="26.00" cy="24.67" r="1.70" fill="#161616" opacity="0.78"/><circle cx="38.00" cy="24.67" r="1.70" fill="#161616" opacity="0.78"/><circle cx="50.00" cy="24.67" r="1.70" fill="#161616" opacity="0.78"/><circle cx="62.00" cy="24.67" r="1.70" fill="#161616" opacity="0.78"/><circle cx="74.00" cy="24.67" r="1.70" fill="#161616" opacity="0.78"/><circle cx="86.00" cy="24.67" r="1.70" fill="#161616" opacity="0.78"/><circle cx="98.00" cy="24.67" r="1.70" fill="#161616" opacity="0.78"/><circle cx="110.00" cy="24.67" r="1.70" fill="#161616" opacity="0.78"/><circle cx="122.00" cy="24.67" r="1.70" fill="#161616" opacity="0.78"/><circle cx="134.00" cy="24.67" r="1.70" fill="#161616" opacity="0.78"/><circle cx="146.00" cy="24.67" r="1.70" fill="#161616" opacity="0.78"/><circle cx="14.00" cy="37.33" r="1.70" fill="#161616" opacity="0.78"/><circle cx="26.00" cy="37.33" r="1.70" fill="#161616" opacity="0.78"/><circle cx="38.00" cy="37.33" r="1.70" fill="#161616" opacity="0.78"/><circle cx="50.00" cy="37.33" r="1.70" fill="#161616" opacity="0.78"/><circle cx="62.00" cy="37.33" r="1.70" fill="#161616" opacity="0.78"/><circle cx="74.00" cy="37.33" r="1.70" fill="#161616" opacity="0.78"/><circle cx="86.00" cy="37.33" r="3.10" fill="#161616" opacity="1.00"/><circle cx="98.00" cy="37.33" r="3.10" fill="#161616" opacity="1.00"/><circle cx="110.00" cy="37.33" r="3.10" fill="#161616" opacity="1.00"/><circle cx="122.00" cy="37.33" r="1.70" fill="#161616" opacity="0.78"/><circle cx="134.00" cy="37.33" r="1.70" fill="#161616" opacity="0.78"/><circle cx="146.00" cy="37.33" r="1.70" fill="#161616" opacity="0.78"/><circle cx="14.00" cy="50.00" r="1.70" fill="#161616" opacity="0.78"/><circle cx="26.00" cy="50.00" r="1.70" fill="#161616" opacity="0.78"/><circle cx="38.00" cy="50.00" r="1.70" fill="#161616" opacity="0.78"/><circle cx="50.00" cy="50.00" r="1.70" fill="#161616" opacity="0.78"/><circle cx="62.00" cy="50.00" r="1.70" fill="#161616" opacity="0.78"/><circle cx="74.00" cy="50.00" r="1.70" fill="#161616" opacity="0.78"/><circle cx="86.00" cy="50.00" r="3.10" fill="#161616" opacity="1.00"/><circle cx="98.00" cy="50.00" r="3.10" fill="#161616" opacity="1.00"/><circle cx="110.00" cy="50.00" r="3.10" fill="#161616" opacity="1.00"/><circle cx="122.00" cy="50.00" r="1.70" fill="#161616" opacity="0.78"/><circle cx="134.00" cy="50.00" r="1.70" fill="#161616" opacity="0.78"/><circle cx="146.00" cy="50.00" r="1.70" fill="#161616" opacity="0.78"/><circle cx="14.00" cy="62.67" r="1.70" fill="#161616" opacity="0.78"/><circle cx="26.00" cy="62.67" r="1.70" fill="#161616" opacity="0.78"/><circle cx="38.00" cy="62.67" r="1.70" fill="#161616" opacity="0.78"/><circle cx="50.00" cy="62.67" r="1.70" fill="#161616" opacity="0.78"/><circle cx="62.00" cy="62.67" r="1.70" fill="#161616" opacity="0.78"/><circle cx="74.00" cy="62.67" r="1.70" fill="#161616" opacity="0.78"/><circle cx="86.00" cy="62.67" r="3.10" fill="#161616" opacity="1.00"/><circle cx="98.00" cy="62.67" r="3.10" fill="#161616" opacity="1.00"/><circle cx="110.00" cy="62.67" r="3.10" fill="#161616" opacity="1.00"/><circle cx="122.00" cy="62.67" r="1.70" fill="#161616" opacity="0.78"/><circle cx="134.00" cy="62.67" r="1.70" fill="#161616" opacity="0.78"/><circle cx="146.00" cy="62.67" r="1.70" fill="#161616" opacity="0.78"/><circle cx="14.00" cy="75.33" r="1.70" fill="#161616" opacity="0.78"/><circle cx="26.00" cy="75.33" r="1.70" fill="#161616" opacity="0.78"/><circle cx="38.00" cy="75.33" r="1.70" fill="#161616" opacity="0.78"/><circle cx="50.00" cy="75.33" r="1.70" fill="#161616" opacity="0.78"/><circle cx="62.00" cy="75.33" r="1.70" fill="#161616" opacity="0.78"/><circle cx="74.00" cy="75.33" r="1.70" fill="#161616" opacity="0.78"/><circle cx="86.00" cy="75.33" r="1.70" fill="#161616" opacity="0.78"/><circle cx="98.00" cy="75.33" r="1.70" fill="#161616" opacity="0.78"/><circle cx="110.00" cy="75.33" r="1.70" fill="#161616" opacity="0.78"/><circle cx="122.00" cy="75.33" r="1.70" fill="#161616" opacity="0.78"/><circle cx="134.00" cy="75.33" r="1.70" fill="#161616" opacity="0.78"/><circle cx="146.00" cy="75.33" r="1.70" fill="#161616" opacity="0.78"/><circle cx="14.00" cy="88.00" r="1.70" fill="#161616" opacity="0.78"/><circle cx="26.00" cy="88.00" r="1.70" fill="#161616" opacity="0.78"/><circle cx="38.00" cy="88.00" r="1.70" fill="#161616" opacity="0.78"/><circle cx="50.00" cy="88.00" r="1.70" fill="#161616" opacity="0.78"/><circle cx="62.00" cy="88.00" r="1.70" fill="#161616" opacity="0.78"/><circle cx="74.00" cy="88.00" r="1.70" fill="#161616" opacity="0.78"/><circle cx="86.00" cy="88.00" r="1.70" fill="#161616" opacity="0.78"/><circle cx="98.00" cy="88.00" r="1.70" fill="#161616" opacity="0.78"/><circle cx="110.00" cy="88.00" r="1.70" fill="#161616" opacity="0.78"/><circle cx="122.00" cy="88.00" r="1.70" fill="#161616" opacity="0.78"/><circle cx="134.00" cy="88.00" r="1.70" fill="#161616" opacity="0.78"/><circle cx="146.00" cy="88.00" r="1.70" fill="#161616" opacity="0.78"/><rect x="80.00" y="31.00" width="36.00" height="38.00" fill="none" stroke="#161616" stroke-width="1" stroke-dasharray="1.4 2.4"/></svg>
