<svg xmlns="http://www.w3.org/2000/svg" viewBox="0 0 160 100" role="img" fill="none"><polyline points="42.00,12.00 42.00,22.86 52.86,22.86 52.86,12.00 63.71,12.00 74.57,12.00 74.57,22.86 63.71,22.86 63.71,33.71 74.57,33.71 74.57,44.57 63.71,44.57 52.86,44.57 52.86,33.71 42.00,33.71 42.00,44.57 42.00,55.43 52.86,55.43 52.86,66.29 42.00,66.29 42.00,77.14 42.00,88.00 52.86,88.00 52.86,77.14 63.71,77.14 63.71,88.00 74.57,88.00 74.57,77.14 74.57,66.29 63.71,66.29 63.71,55.43 74.57,55.43 85.43,55.43 96.29,55.43 96.29,66.29 85.43,66.29 85.43,77.14 85.43,88.00 96.29,88.00 96.29,77.14 107.14,77.14 107.14,88.00 118.00,88.00 118.00,77.14 118.00,66.29 107.14,66.29 107.14,55.43 118.00,55.43 118.00,44.57 118.00,33.71 107.14,33.71 107.14,44.57 96.29,44.57 85.43,44.57 85.43,33.71 96.29,33.71 96.29,22.86 85.43,22.86 85.43,12.00 96.29,12.00 107.14,12.00 107.14,22.86 118.00,22.86 118.00,12.00" fill="none" stroke="#161616" stroke-width="1.1" stroke-linejoin="round" stroke-linecap="round" opacity="0.55"/><circle cx="42.00" cy="12.00" r="1.70" fill="#161616" opacity="1.00"/><circle cx="42.00" cy="22.86" r="1.72" fill="#161616" opacity="1.00"/><circle cx="52.86" cy="22.86" r="1.74" fill="#161616" opacity="1.00"/><circle cx="52.86" cy="12.00" r="1.77" fill="#161616" opacity="1.00"/><circle cx="63.71" cy="12.00" r="1.79" fill="#161616" opacity="1.00"/><circle cx="74.57" cy="12.00" r="1.81" fill="#161616" opacity="1.00"/><circle cx="74.57" cy="22.86" r="1.83" fill="#161616" opacity="1.00"/><circle cx="63.71" cy="22.86" r="1.86" fill="#161616" opacity="1.00"/><circle cx="63.71" cy="33.71" r="1.88" fill="#161616" opacity="1.00"/><circle cx="74.57" cy="33.71" r="1.90" fill="#161616" opacity="1.00"/><circle cx="74.57" cy="44.57" r="1.92" fill="#161616" opacity="1.00"/><circle cx="63.71" cy="44.57" r="1.94" fill="#161616" opacity="1.00"/><circle cx="52.86" cy="44.57" r="1.97" fill="#161616" opacity="1.00"/><circle cx="52.86" cy="33.71" r="1.99" fill="#161616" opacity="1.00"/><circle cx="42.00" cy="33.71" r="2.01" fill="#161616" opacity="1.00"/><circle cx="42.00" cy="44.57" r="2.03" fill="#161616" opacity="1.00"/><circle cx="42.00" cy="55.43" r="2.06" fill="#161616" opacity="1.00"/><circle cx="52.86" cy="55.43" r="2.08" fill="#161616" opacity="1.00"/><circle cx="52.86" cy="66.29" r="2.10" fill="#161616" opacity="1.00"/><circle cx="42.00" cy="66.29" r="2.12" fill="#161616" opacity="1.00"/><circle cx="42.00" cy="77.14" r="2.14" fill="#161616" opacity="1.00"/><circle cx="42.00" cy="88.00" r="2.17" fill="#161616" opacity="1.00"/><circle cx="52.86" cy="88.00" r="2.19" fill="#161616" opacity="1.00"/><circle cx="52.86" cy="77.14" r="2.21" fill="#161616" opacity="1.00"/><circle cx="63.71" cy="77.14" r="2.23" fill="#161616" opacity="1.00"/><circle cx="63.71" cy="88.00" r="2.26" fill="#161616" opacity="1.00"/><circle cx="74.57" cy="88.00" r="2.28" fill="#161616" opacity="1.00"/><circle cx="74.57" cy="77.14" r="2.30" fill="#161616" opacity="1.00"/><circle cx="74.57" cy="66.29" r="2.32" fill="#161616" opacity="1.00"/><circle cx="63.71" cy="66.29" r="2.34" fill="#161616" opacity="1.00"/><circle cx="63.71" cy="55.43" r="2.37" fill="#161616" opacity="1.00"/><circle cx="74.57" cy="55.43" r="2.39" fill="#161616" opacity="1.00"/><circle cx="85.43" cy="55.43" r="2.41" fill="#161616" opacity="1.00"/><circle cx="96.29" cy="55.43" r="2.43" fill="#161616" opacity="1.00"/><circle cx="96.29" cy="66.29" r="2.46" fill="#161616" opacity="1.00"/><circle cx="85.43" cy="66.29" r="2.48" fill="#161616" opacity="1.00"/><circle cx="85.43" cy="77.14" r="2.50" fill="#161616" opacity="1.00"/><circle cx="85.43" cy="88.00" r="2.52" fill="#161616" opacity="1.00"/><circle cx="96.29" cy="88.00" r="2.54" fill="#161616" opacity="1.00"/><circle cx="96.29" cy="77.14" r="2.57" fill="#161616" opacity="1.00"/><circle cx="107.14" cy="77.14" r="2.59" fill="#161616" opacity="1.00"/><circle cx="107.14" cy="88.00" r="2.61" fill="#161616" opacity="1.00"/><circle cx="118.00" cy="88.00" r="2.63" fill="#161616" opacity="1.00"/><circle cx="118.00" cy="77.14" r="2.66" fill="#161616" opacity="1.00"/><circle cx="118.00" cy="66.29" r="2.68" fill="#161616" opacity="1.00"/><circle cx="107.14" cy="66.29" r="2.70" fill="#161616" opacity="1.00"/><circle cx="107.14" cy="55.43" r="2.72" fill="#161616" opacity="1.00"/><circle cx="118.00" cy="55.43" r="2.74" fill="#161616" opacity="1.00"/><circle cx="118.00" cy="44.57" r="2.77" fill="#161616" opacity="1.00"/><circle cx="118.00" cy="33.71" r="2.79" fill="#161616" opacity="1.00"/><circle cx="107.14" cy="33.71" r="2.81" fill="#161616" opacity="1.00"/><circle cx="107.14" cy="44.57" r="2.83" fill="#161616" opacity="1.00"/><circle cx="96.29" cy="44.57" r="2.86" fill="#161616" opacity="1.00"/><circle cx="85.43" cy="44.57" r="2.88" fill="#161616" opacity="1.00"/><circle cx="85.43" cy="33.71" r="2.90" fill="#161616" opacity="1.00"/><circle cx="96.29" cy="33.71" r="2.92" fill="#161616" opacity="1.00"/><circle cx="96.29" cy="22.86" r="2.94" fill="#161616" opacity="1.00"/><circle cx="85.43" cy="22.86" r="2.97" fill="#161616" opacity="1.00"/><circle cx="85.43" cy="12.00" r="2.99" fill="#161616" opacity="1.00"/><circle cx="96.29" cy="12.00" r="3.01" fill="#161616" opacity="1.00"/><circle cx="107.14" cy="12.00" r="3.03" fill="#161616" opacity="1.00"/><circle cx="107.14" cy="22.86" r="3.06" fill="#161616" opacity="1.00"/><circle cx="118.00" cy="22.86" r="3.08" fill="#161616" opacity="1.00"/><circle cx="118.00" cy="12.00" r="3.10" fill="#161616" opacity="1.00"/></svg>
