<svg xmlns="http://www.w3.org/2000/svg" viewBox="0 0 160 100" role="img" fill="none"><circle cx="14.00" cy="14.00" r="1.90" fill="#161616" opacity="0.72"/><circle cx="27.00" cy="14.00" r="1.90" fill="#161616" opacity="0.72"/><circle cx="40.00" cy="14.00" r="1.90" fill="#161616" opacity="0.72"/><circle cx="53.00" cy="14.00" r="1.90" fill="#161616" opacity="0.72"/><circle cx="66.00" cy="14.00" r="1.90" fill="#161616" opacity="0.72"/><circle cx="79.00" cy="14.00" r="1.90" fill="#161616" opacity="0.72"/><circle cx="92.00" cy="14.00" r="1.90" fill="#161616" opacity="0.72"/><circle cx="105.00" cy="14.00" r="1.90" fill="#161616" opacity="0.72"/><circle cx="118.00" cy="14.00" r="1.90" fill="#161616" opacity="0.72"/><circle cx="131.00" cy="14.00" r="1.90" fill="#161616" opacity="0.72"/><circle cx="144.00" cy="14.00" r="1.90" fill="#161616" opacity="0.72"/><circle cx="20.50" cy="25.26" r="1.90" fill="#161616" opacity="0.72"/><circle cx="33.50" cy="25.26" r="1.90" fill="#161616" opacity="0.72"/><circle cx="46.50" cy="25.26" r="1.90" fill="#161616" opacity="0.72"/><circle cx="59.50" cy="25.26" r="1.90" fill="#161616" opacity="0.72"/><circle cx="72.50" cy="25.26" r="2.50" fill="#161616" opacity="1.00"/><circle cx="85.50" cy="25.26" r="2.50" fill="#161616" opacity="1.00"/><circle cx="98.50" cy="25.26" r="2.50" fill="#161616" opacity="1.00"/><circle cx="111.50" cy="25.26" r="1.90" fill="#161616" opacity="0.72"/><circle cx="124.50" cy="25.26" r="1.90" fill="#161616" opacity="0.72"/><circle cx="137.50" cy="25.26" r="1.90" fill="#161616" opacity="0.72"/><circle cx="14.00" cy="36.52" r="1.90" fill="#161616" opacity="0.72"/><circle cx="27.00" cy="36.52" r="1.90" fill="#161616" opacity="0.72"/><circle cx="40.00" cy="36.52" r="1.90" fill="#161616" opacity="0.72"/><circle cx="53.00" cy="36.52" r="2.50" fill="#161616" opacity="1.00"/><circle cx="66.00" cy="36.52" r="2.50" fill="#161616" opacity="1.00"/><circle cx="79.00" cy="36.52" r="3.20" fill="#161616" opacity="1.00"/><circle cx="92.00" cy="36.52" r="2.50" fill="#161616" opacity="1.00"/><circle cx="105.00" cy="36.52" r="2.50" fill="#161616" opacity="1.00"/><circle cx="118.00" cy="36.52" r="1.90" fill="#161616" opacity="0.72"/><circle cx="131.00" cy="36.52" r="1.90" fill="#161616" opacity="0.72"/><circle cx="144.00" cy="36.52" r="1.90" fill="#161616" opacity="0.72"/><circle cx="20.50" cy="47.77" r="1.90" fill="#161616" opacity="0.72"/><circle cx="33.50" cy="47.77" r="1.90" fill="#161616" opacity="0.72"/><circle cx="46.50" cy="47.77" r="1.90" fill="#161616" opacity="0.72"/><circle cx="59.50" cy="47.77" r="2.50" fill="#161616" opacity="1.00"/><circle cx="72.50" cy="47.77" r="3.20" fill="#161616" opacity="1.00"/><circle cx="85.50" cy="47.77" r="3.20" fill="#161616" opacity="1.00"/><circle cx="98.50" cy="47.77" r="2.50" fill="#161616" opacity="1.00"/><circle cx="111.50" cy="47.77" r="2.50" fill="#161616" opacity="1.00"/><circle cx="124.50" cy="47.77" r="1.90" fill="#161616" opacity="0.72"/><circle cx="137.50" cy="47.77" r="1.90" fill="#161616" opacity="0.72"/><circle cx="14.00" cy="59.03" r="1.90" fill="#161616" opacity="0.72"/><circle cx="27.00" cy="59.03" r="1.90" fill="#161616" opacity="0.72"/><circle cx="40.00" cy="59.03" r="1.90" fill="#161616" opacity="0.72"/><circle cx="53.00" cy="59.03" r="2.50" fill="#161616" opacity="1.00"/><circle cx="66.00" cy="59.03" r="2.50" fill="#161616" opacity="1.00"/><circle cx="79.00" cy="59.03" r="3.20" fill="#161616" opacity="1.00"/><circle cx="92.00" cy="59.03" r="3.20" fill="#161616" opacity="1.00"/><circle cx="105.00" cy="59.03" r="2.50" fill="#161616" opacity="1.00"/><circle cx="118.00" cy="59.03" r="1.90" fill="#161616" opacity="0.72"/><circle cx="131.00" cy="59.03" r="1.90" fill="#161616" opacity="0.72"/><circle cx="144.00" cy="59.03" r="1.90" fill="#161616" opacity="0.72"/><circle cx="20.50" cy="70.29" r="1.90" fill="#161616" opacity="0.72"/><circle cx="33.50" cy="70.29" r="1.90" fill="#161616" opacity="0.72"/><circle cx="46.50" cy="70.29" r="1.90" fill="#161616" opacity="0.72"/><circle cx="59.50" cy="70.29" r="2.50" fill="#161616" opacity="1.00"/><circle cx="72.50" cy="70.29" r="2.50" fill="#161616" opacity="1.00"/><circle cx="85.50" cy="70.29" r="2.50" fill="#161616" opacity="1.00"/><circle cx="98.50" cy="70.29" r="2.50" fill="#161616" opacity="1.00"/><circle cx="111.50" cy="70.29" r="1.90" fill="#161616" opacity="0.72"/><circle cx="124.50" cy="70.29" r="1.90" fill="#161616" opacity="0.72"/><circle cx="137.50" cy="70.29" r="1.90" fill="#161616" opacity="0.72"/><circle cx="14.00" cy="81.55" r="1.90" fill="#161616" opacity="0.72"/><circle cx="27.00" cy="81.55" r="1.90" fill="#161616" opacity="0.72"/><circle cx="40.00" cy="81.55" r="1.90" fill="#161616" opacity="0.72"/><circle cx="53.00" cy="81.55" r="1.90" fill="#161616" opacity="0.72"/><circle cx="66.00" cy="81.55" r="1.90" fill="#161616" opacity="0.72"/><circle cx="79.00" cy="81.55" r="2.50" fill="#161616" opacity="1.00"/><circle cx="92.00" cy="81.55" r="1.90" fill="#161616" opacity="0.72"/><circle cx="105.00" cy="81.55" r="1.90" fill="#161616" opacity="0.72"/><circle cx="118.00" cy="81.55" r="1.90" fill="#161616" opacity="0.72"/><circle cx="131.00" cy="81.55" r="1.90" fill="#161616" opacity="0.72"/><circle cx="144.00" cy="81.55" r="1.90" fill="#161616" opacity="0.72"/><polygon points="91.26,43.50 91.26,56.50 80.00,63.00 68.74,56.50 68.74,43.50 80.00,37.00" fill="none" stroke="#161616" stroke-width="1" stroke-dasharray="1.4 2.4"/></svg>
