<svg xmlns="http://www.w3.org/2000/svg" class="icon-up" viewBox="0 0 36 60" role="img" aria-label="Home">
  <g class="up-strings" stroke="#8A8D91" stroke-width="0.75" stroke-linecap="round" fill="none" opacity="0.65">
    <path d="M10 17.5 17 28"/>
    <path d="M14 19 17.6 28"/>
    <path d="M18 19.5 18 28"/>
    <path d="M22 19 18.4 28"/>
    <path d="M26 17.5 19 28"/>
  </g>
  <g class="up-house">
    <rect x="5.5" y="43" width="25" height="16" rx="2.2" fill="#F4DEB3"/>
    <polygon points="18,28 2,44 34,44" fill="#C93E4E" stroke="#C93E4E" stroke-width="2.4" stroke-linejoin="round"/>
    <rect x="9" y="46" width="5.2" height="5" rx="0.9" fill="#6AA6DC"/>
    <rect x="21.8" y="46" width="5.2" height="5" rx="0.9" fill="#6AA6DC"/>
    <path d="M15 59 15 55 A3 3 0 0 1 21 55 L21 59 Z" fill="#B0614A"/>
  </g>
  <g class="up-balloons">
    <circle cx="6.5" cy="11.5" r="3.6" fill="#74A356"/>
    <circle cx="29.5" cy="11.5" r="3.6" fill="#9F86C0"/>
    <circle cx="7.5" cy="15.5" r="3" fill="#EFC152"/>
    <circle cx="28.5" cy="15.5" r="3" fill="#74A356"/>
    <circle cx="10.5" cy="8" r="4" fill="#EFC152"/>
    <circle cx="25.5" cy="8" r="4" fill="#5EA0D8"/>
    <circle cx="11.5" cy="14" r="3.8" fill="#E6A4B1"/>
    <circle cx="24.5" cy="14" r="3.8" fill="#C93E4E"/>
    <circle cx="18" cy="5.5" r="4.3" fill="#C93E4E"/>
    <circle cx="18" cy="11" r="4.3" fill="#E08A2B"/>
    <circle cx="18" cy="16" r="3.9" fill="#5EA0D8"/>
  </g>
</svg>
