<?xml version="1.0" encoding="UTF-8"?>
<svg xmlns="http://www.w3.org/2000/svg" style="background: transparent; background-color: transparent; color-scheme: light;" xmlns:xlink="http://www.w3.org/1999/xlink" version="1.1" width="1000px" height="642px" viewBox="0 0 1000 642"><defs/><g>
<text x="500" y="28" fill="#000000" font-family="monospace" font-size="14px" text-anchor="middle">Read path: one query reads a single consistent snapshot</text>
<rect x="40" y="70" width="170" height="58" fill="#ffffff" stroke="#000000" pointer-events="all"/>
<text x="125" y="95" fill="#000000" font-family="monospace" font-size="14px" text-anchor="middle">Client</text>
<text x="125" y="115" fill="#000000" font-family="monospace" font-size="14px" text-anchor="middle">(query)</text>
<rect x="300" y="64" width="250" height="150" fill="#dae8fc" stroke="#000000" pointer-events="all"/>
<text x="314" y="86" fill="#000000" font-family="monospace" font-size="14px" text-anchor="start">Frontend</text>
<rect x="316" y="90" width="218" height="30" fill="#ffffff" stroke="#000000" pointer-events="all"/>
<text x="425" y="110" fill="#000000" font-family="monospace" font-size="14px" text-anchor="middle">front door (MySQL)</text>
<rect x="316" y="134" width="218" height="30" fill="#ffffff" stroke="#000000" pointer-events="all"/>
<text x="425" y="154" fill="#000000" font-family="monospace" font-size="14px" text-anchor="middle">Nereids -&gt; fragments</text>
<rect x="316" y="178" width="218" height="30" fill="#ffffff" stroke="#000000" pointer-events="all"/>
<text x="425" y="198" fill="#000000" font-family="monospace" font-size="14px" text-anchor="middle">coordinator</text>
<rect x="730" y="64" width="230" height="150" fill="#e1d5e7" stroke="#000000" pointer-events="all"/>
<text x="744" y="86" fill="#000000" font-family="monospace" font-size="14px" text-anchor="start">Meta Service</text>
<rect x="746" y="96" width="198" height="42" fill="#fff2cc" stroke="#000000" pointer-events="all"/>
<text x="845" y="122" fill="#b85450" font-family="monospace" font-size="14px" text-anchor="middle">version: v4 (pinned)</text>
<rect x="746" y="146" width="198" height="58" fill="#ffffff" stroke="#000000" pointer-events="all"/>
<text x="845" y="168" fill="#000000" font-family="monospace" font-size="14px" text-anchor="middle">rowset list @ v4</text>
<text x="845" y="189" fill="#000000" font-family="monospace" font-size="12px" text-anchor="middle">v2, v3, v4</text>
<rect x="300" y="270" width="320" height="232" fill="#ffe6cc" stroke="#000000" pointer-events="all"/>
<text x="314" y="292" fill="#000000" font-family="monospace" font-size="14px" text-anchor="start">Backend - compute group</text>
<rect x="318" y="306" width="284" height="28" fill="#fff2cc" stroke="#000000" pointer-events="all"/>
<text x="460" y="325" fill="#000000" font-family="monospace" font-size="12px" text-anchor="middle">scan: sync_rowsets @ v4</text>
<rect x="318" y="338" width="284" height="28" fill="#fff2cc" stroke="#000000" pointer-events="all"/>
<text x="460" y="357" fill="#000000" font-family="monospace" font-size="12px" text-anchor="middle">capture_read_source</text>
<rect x="318" y="370" width="284" height="28" fill="#fff2cc" stroke="#000000" pointer-events="all"/>
<text x="460" y="389" fill="#000000" font-family="monospace" font-size="12px" text-anchor="middle">prune: zonemap / shortkey / inverted</text>
<rect x="318" y="402" width="284" height="28" fill="#fff2cc" stroke="#000000" pointer-events="all"/>
<text x="460" y="421" fill="#000000" font-family="monospace" font-size="12px" text-anchor="middle">read columns via file cache</text>
<rect x="318" y="434" width="284" height="28" fill="#fff2cc" stroke="#000000" pointer-events="all"/>
<text x="460" y="453" fill="#000000" font-family="monospace" font-size="12px" text-anchor="middle">merge by model + join / agg</text>
<rect x="318" y="466" width="284" height="28" fill="#fff2cc" stroke="#000000" pointer-events="all"/>
<text x="460" y="485" fill="#000000" font-family="monospace" font-size="12px" text-anchor="middle">exchange: broadcast / shuffle / gather</text>
<rect x="40" y="525" width="920" height="78" fill="#d5e8d4" stroke="#000000" pointer-events="all"/>
<text x="54" y="547" fill="#000000" font-family="monospace" font-size="14px" text-anchor="start">Storage Vault</text>
<rect x="300" y="554" width="120" height="34" fill="#ffffff" stroke="#000000" pointer-events="all"/>
<text x="360" y="575" fill="#000000" font-family="monospace" font-size="12px" text-anchor="middle">v[2-2]</text>
<rect x="440" y="554" width="120" height="34" fill="#ffffff" stroke="#000000" pointer-events="all"/>
<text x="500" y="575" fill="#000000" font-family="monospace" font-size="12px" text-anchor="middle">v[3-3]</text>
<rect x="580" y="554" width="120" height="34" fill="#ffffff" stroke="#000000" pointer-events="all"/>
<text x="640" y="575" fill="#000000" font-family="monospace" font-size="12px" text-anchor="middle">v[4-4]</text>
<path d="M 210 90 L 294.75 90" fill="none" stroke="#000000" stroke-miterlimit="10"/>
<path d="M 300 90 L 293 93.5 L 294.75 90 L 293 86.5 Z" fill="#000000" stroke="#000000" stroke-miterlimit="10"/>
<text x="255" y="82" fill="#000000" font-family="monospace" font-size="14px" text-anchor="middle">1 SQL</text>
<path d="M 425 120 L 425 128.75" fill="none" stroke="#000000" stroke-miterlimit="10"/>
<path d="M 425 134 L 421.5 127 L 425 128.75 L 428.5 127 Z" fill="#000000" stroke="#000000" stroke-miterlimit="10"/>
<path d="M 425 164 L 425 172.75" fill="none" stroke="#000000" stroke-miterlimit="10"/>
<path d="M 425 178 L 421.5 171 L 425 172.75 L 428.5 171 Z" fill="#000000" stroke="#000000" stroke-miterlimit="10"/>
<path d="M 550 110 L 724.75 110" fill="none" stroke="#000000" stroke-miterlimit="10"/>
<path d="M 730 110 L 723 113.5 L 724.75 110 L 723 106.5 Z" fill="#000000" stroke="#000000" stroke-miterlimit="10"/>
<text x="640" y="102" fill="#000000" font-family="monospace" font-size="14px" text-anchor="middle">3 get_version</text>
<path d="M 425 214 L 425 264.75" fill="none" stroke="#000000" stroke-miterlimit="10"/>
<path d="M 425 270 L 421.5 263 L 425 264.75 L 428.5 263 Z" fill="#000000" stroke="#000000" stroke-miterlimit="10"/>
<text x="437" y="247" fill="#000000" font-family="monospace" font-size="14px" text-anchor="start">4 exec @ v4</text>
<path d="M 620 290 L 845 290 L 845 219.25" fill="none" stroke="#000000" stroke-miterlimit="10"/>
<path d="M 845 214 L 841.5 221 L 845 219.25 L 848.5 221 Z" fill="#000000" stroke="#000000" stroke-miterlimit="10"/>
<text x="732" y="282" fill="#000000" font-family="monospace" font-size="14px" text-anchor="middle">5 sync_rowsets</text>
<path d="M 460 502 L 460 519.75" fill="none" stroke="#b85450" stroke-miterlimit="10"/>
<path d="M 460 525 L 456.5 518 L 460 519.75 L 463.5 518 Z" fill="#b85450" stroke="#b85450" stroke-miterlimit="10"/>
<text x="472" y="518" fill="#b85450" font-family="monospace" font-size="14px" text-anchor="start">7 read (miss)</text>
<text x="500" y="624" fill="#000000" font-family="monospace" font-size="14px" text-anchor="middle">Step 8 / 10 - instances exchange rows by broadcast and shuffle, then a final gather reduces them</text>

</g></svg>
