<?xml version="1.0" encoding="UTF-8"?>
<svg xmlns="http://www.w3.org/2000/svg" style="background: transparent; background-color: transparent; color-scheme: light;" xmlns:xlink="http://www.w3.org/1999/xlink" version="1.1" width="1000px" height="626px" viewBox="0 0 1000 626"><defs/><g>
<text x="500" y="28" fill="#000000" font-family="monospace" font-size="14px" text-anchor="middle">Write path: one load becomes a committed version</text>
<rect x="40" y="70" width="170" height="58" fill="#ffffff" stroke="#000000" pointer-events="all"/>
<text x="125" y="95" fill="#000000" font-family="monospace" font-size="14px" text-anchor="middle">Client</text>
<text x="125" y="115" fill="#000000" font-family="monospace" font-size="14px" text-anchor="middle">(load)</text>
<rect x="320" y="70" width="230" height="58" fill="#dae8fc" stroke="#000000" pointer-events="all"/>
<text x="435" y="95" fill="#000000" font-family="monospace" font-size="14px" text-anchor="middle">Frontend</text>
<text x="435" y="115" fill="#000000" font-family="monospace" font-size="14px" text-anchor="middle">txn coordinator</text>
<rect x="300" y="210" width="300" height="190" fill="#ffe6cc" stroke="#000000" pointer-events="all"/>
<text x="314" y="232" fill="#000000" font-family="monospace" font-size="14px" text-anchor="start">Backend - compute group</text>
<rect x="318" y="246" width="264" height="40" fill="#fff2cc" stroke="#000000" pointer-events="all"/>
<text x="450" y="271" fill="#000000" font-family="monospace" font-size="14px" text-anchor="middle">sort rows -&gt; build rowset</text>
<rect x="318" y="298" width="264" height="40" fill="#fff2cc" stroke="#000000" pointer-events="all"/>
<text x="450" y="323" fill="#000000" font-family="monospace" font-size="14px" text-anchor="middle">MoW: PK lookup -&gt; delete bits</text>
<rect x="318" y="350" width="264" height="40" fill="#fff2cc" stroke="#000000" pointer-events="all"/>
<text x="450" y="375" fill="#000000" font-family="monospace" font-size="14px" text-anchor="middle">segments: pages+index+footer</text>
<rect x="730" y="70" width="230" height="330" fill="#e1d5e7" stroke="#000000" pointer-events="all"/>
<text x="744" y="92" fill="#000000" font-family="monospace" font-size="14px" text-anchor="start">Meta Service</text>
<rect x="746" y="108" width="198" height="50" fill="#ffffff" stroke="#000000" pointer-events="all"/>
<text x="845" y="126" fill="#000000" font-family="monospace" font-size="14px" text-anchor="middle">partition version</text>
<text x="845" y="147" fill="#000000" font-family="monospace" font-size="14px" text-anchor="middle">v2    v3</text>
<rect x="746" y="170" width="198" height="50" fill="#ffffff" stroke="#000000" pointer-events="all"/>
<text x="845" y="188" fill="#000000" font-family="monospace" font-size="14px" text-anchor="middle">txn 88</text>
<text x="845" y="209" fill="#000000" font-family="monospace" font-size="14px" text-anchor="middle">open</text>
<rect x="746" y="232" width="198" height="50" fill="#ffffff" stroke="#000000" pointer-events="all"/>
<text x="845" y="250" fill="#000000" font-family="monospace" font-size="14px" text-anchor="middle">rowset meta</text>
<text x="845" y="271" fill="#000000" font-family="monospace" font-size="14px" text-anchor="middle">temp</text>
<rect x="746" y="294" width="198" height="50" fill="#ffffff" stroke="#000000" pointer-events="all"/>
<text x="845" y="312" fill="#000000" font-family="monospace" font-size="14px" text-anchor="middle">delete bitmap</text>
<text x="845" y="333" fill="#000000" font-family="monospace" font-size="14px" text-anchor="middle">merge-on-write</text>
<rect x="40" y="450" width="920" height="130" fill="#d5e8d4" stroke="#000000" pointer-events="all"/>
<text x="54" y="472" fill="#000000" font-family="monospace" font-size="14px" text-anchor="start">Storage Vault</text>
<rect x="60" y="484" width="880" height="84" fill="#ffffff" stroke="#000000" pointer-events="all"/>
<text x="74" y="502" fill="#000000" font-family="monospace" font-size="14px" text-anchor="start">tablet 10001  (partition 2026-01, bucket 3)</text>
<rect x="80" y="516" width="180" height="40" fill="#ffffff" stroke="#000000" pointer-events="all"/>
<text x="170" y="534" fill="#000000" font-family="monospace" font-size="14px" text-anchor="middle">rowset v[2-2]</text>
<text x="170" y="550" fill="#000000" font-family="monospace" font-size="12px" text-anchor="middle">1 segment</text>
<rect x="275" y="516" width="180" height="40" fill="#ffffff" stroke="#000000" pointer-events="all"/>
<text x="365" y="534" fill="#000000" font-family="monospace" font-size="14px" text-anchor="middle">rowset v[3-3]</text>
<text x="365" y="550" fill="#000000" font-family="monospace" font-size="12px" text-anchor="middle">1 segment</text>
<rect x="470" y="516" width="180" height="40" fill="#fff2cc" stroke="#000000" pointer-events="all"/>
<text x="560" y="534" fill="#000000" font-family="monospace" font-size="14px" text-anchor="middle">rowset v[4-4]</text>
<text x="560" y="550" fill="#000000" font-family="monospace" font-size="12px" text-anchor="middle">1 segment</text>
<path d="M 210 99 L 314.75 99" fill="none" stroke="#000000" stroke-miterlimit="10"/>
<path d="M 320 99 L 313 102.5 L 314.75 99 L 313 95.5 Z" fill="#000000" stroke="#000000" stroke-miterlimit="10"/>
<text x="265" y="91" fill="#000000" font-family="monospace" font-size="14px" text-anchor="middle">1 load</text>
<path d="M 550 90 L 724.75 90" fill="none" stroke="#000000" stroke-miterlimit="10"/>
<path d="M 730 90 L 723 93.5 L 724.75 90 L 723 86.5 Z" fill="#000000" stroke="#000000" stroke-miterlimit="10"/>
<text x="640" y="82" fill="#000000" font-family="monospace" font-size="14px" text-anchor="middle">2 begin_txn</text>
<path d="M 435 128 L 435 204.75" fill="none" stroke="#000000" stroke-miterlimit="10"/>
<path d="M 435 210 L 431.5 203 L 435 204.75 L 438.5 203 Z" fill="#000000" stroke="#000000" stroke-miterlimit="10"/>
<text x="447" y="175" fill="#000000" font-family="monospace" font-size="14px" text-anchor="start">3 dispatch</text>
<path d="M 450 286 L 450 292.75" fill="none" stroke="#000000" stroke-miterlimit="10"/>
<path d="M 450 298 L 446.5 291 L 450 292.75 L 453.5 291 Z" fill="#000000" stroke="#000000" stroke-miterlimit="10"/>
<path d="M 450 338 L 450 344.75" fill="none" stroke="#000000" stroke-miterlimit="10"/>
<path d="M 450 350 L 446.5 343 L 450 344.75 L 453.5 343 Z" fill="#000000" stroke="#000000" stroke-miterlimit="10"/>
<path d="M 460 400 L 460 444.75" fill="none" stroke="#b85450" stroke-miterlimit="10"/>
<path d="M 460 450 L 456.5 443 L 460 444.75 L 463.5 443 Z" fill="#b85450" stroke="#b85450" stroke-miterlimit="10"/>
<text x="432" y="430" fill="#b85450" font-family="monospace" font-size="14px" text-anchor="end">5 upload</text>
<path d="M 600 255 L 724.75 255" fill="none" stroke="#000000" stroke-miterlimit="10"/>
<path d="M 730 255 L 723 258.5 L 724.75 255 L 723 251.5 Z" fill="#000000" stroke="#000000" stroke-miterlimit="10"/>
<text x="665" y="247" fill="#000000" font-family="monospace" font-size="14px" text-anchor="middle">6 commit_rowset</text>
<text x="500" y="606" fill="#000000" font-family="monospace" font-size="14px" text-anchor="middle">Step 6 / 10 - the new rowset is registered at the Meta Service as temporary</text>

</g></svg>
