<?xml version="1.0" encoding="UTF-8"?>
<svg xmlns="http://www.w3.org/2000/svg" width="630px" height="280px" viewBox="0 0 630 280"
     style="background: transparent; color-scheme: light;" version="1.1">
  <defs>
    <marker id="a" markerUnits="userSpaceOnUse" markerWidth="10" markerHeight="10" refX="9" refY="5" orient="auto-start-reverse">
      <path d="M 0 0 L 10 5 L 0 10 L 2.5 5 Z" fill="#000000"/>
    </marker>
  </defs>

  <path d="M 63 41 Q 105 18 147 41" fill="none" stroke="#000000" marker-end="url(#a)"/>
  <path d="M 147 59 Q 105 82 63 59" fill="none" stroke="#000000" marker-end="url(#a)"/>
  <line x1="57.9" y1="71.4" x2="92.1" y2="128.6" fill="none" stroke="#000000" marker-end="url(#a)"/>
  <line x1="178.9" y1="70.8" x2="211.1" y2="119.2" fill="none" stroke="#000000" marker-end="url(#a)"/>
  <line x1="95.3" y1="173" x2="74.7" y2="222" fill="none" stroke="#000000" marker-end="url(#a)"/>
  <line x1="118.4" y1="171.1" x2="151.6" y2="223.9" fill="none" stroke="#000000" marker-end="url(#a)"/>

  <circle cx="45" cy="50" r="25" fill="#f8cecc" stroke="#000000"/>
  <text x="45" y="56" text-anchor="middle" font-family="monospace" font-size="18px" fill="#000000">1</text>
  <circle cx="165" cy="50" r="25" fill="#f8cecc" stroke="#000000"/>
  <text x="165" y="56" text-anchor="middle" font-family="monospace" font-size="18px" fill="#000000">2</text>
  <circle cx="105" cy="150" r="25" fill="#f8cecc" stroke="#000000"/>
  <text x="105" y="156" text-anchor="middle" font-family="monospace" font-size="18px" fill="#000000">3</text>
  <circle cx="225" cy="140" r="25" fill="#f8cecc" stroke="#000000"/>
  <text x="225" y="146" text-anchor="middle" font-family="monospace" font-size="18px" fill="#000000">4</text>
  <circle cx="65" cy="245" r="25" fill="#f8cecc" stroke="#000000"/>
  <text x="65" y="251" text-anchor="middle" font-family="monospace" font-size="18px" fill="#000000">5</text>
  <circle cx="165" cy="245" r="25" fill="#f8cecc" stroke="#000000"/>
  <text x="165" y="251" text-anchor="middle" font-family="monospace" font-size="18px" fill="#000000">6</text>

  <text x="300" y="156" text-anchor="middle" font-family="monospace" font-size="40px" fill="#000000">=</text>

  <text x="345" y="95" font-family="monospace" font-size="18px" fill="#000000">Map&lt;Vertex, List&lt;Vertex&gt;&gt;</text>
  <text x="390" y="150" font-family="monospace" font-size="18px" fill="#000000">1, [2, 3]</text>
  <text x="390" y="182" font-family="monospace" font-size="18px" fill="#000000">2, [1, 4]</text>
  <text x="390" y="214" font-family="monospace" font-size="18px" fill="#000000">3, [5, 6]</text>
</svg>
