<?xml version="1.0" encoding="UTF-8"?>
<svg xmlns="http://www.w3.org/2000/svg" width="490px" height="150px" viewBox="0 0 490 150"
     style="background: transparent; color-scheme: light;" version="1.1">
  <defs>
    <marker id="a" markerUnits="userSpaceOnUse" markerWidth="10" markerHeight="10" refX="9" refY="5" orient="auto-start-reverse">
      <path d="M 0 0 L 10 5 L 0 10 L 2.5 5 Z" fill="#000000"/>
    </marker>
  </defs>

  <line x1="40" y1="45" x2="125" y2="45" fill="none" stroke="#000000"/>
  <line x1="125" y1="45" x2="82" y2="115" fill="none" stroke="#000000"/>
  <circle cx="40" cy="45" r="25" fill="#f8cecc" stroke="#000000"/>
  <circle cx="125" cy="45" r="25" fill="#f8cecc" stroke="#000000"/>
  <circle cx="82" cy="115" r="25" fill="#f8cecc" stroke="#000000"/>

  <line x1="230" y1="45" x2="265" y2="45" fill="none" stroke="#000000" marker-end="url(#a)"/>
  <line x1="217.9" y1="66.5" x2="234.1" y2="93.5" fill="none" stroke="#000000" marker-end="url(#a)"/>
  <circle cx="205" cy="45" r="25" fill="#f8cecc" stroke="#000000"/>
  <circle cx="290" cy="45" r="25" fill="#f8cecc" stroke="#000000"/>
  <circle cx="247" cy="115" r="25" fill="#f8cecc" stroke="#000000"/>

  <path d="M 388 31 Q 412.5 14 437 31" fill="none" stroke="#000000" marker-end="url(#a)"/>
  <path d="M 437 59 Q 412.5 76 388 59" fill="none" stroke="#000000" marker-end="url(#a)"/>
  <line x1="382.9" y1="66.5" x2="399.1" y2="93.5" fill="none" stroke="#000000" marker-start="url(#a)" marker-end="url(#a)"/>
  <circle cx="370" cy="45" r="25" fill="#f8cecc" stroke="#000000"/>
  <circle cx="455" cy="45" r="25" fill="#f8cecc" stroke="#000000"/>
  <circle cx="412" cy="115" r="25" fill="#f8cecc" stroke="#000000"/>
</svg>
