<?xml version="1.0" encoding="UTF-8"?>
<svg xmlns="http://www.w3.org/2000/svg" style="background: transparent; background-color: transparent; color-scheme: light;" xmlns:xlink="http://www.w3.org/1999/xlink" version="1.1" width="740px" height="210px" viewBox="0 0 740 210"><defs/><g>
<!-- boxes -->
<rect x="12" y="50" width="120" height="56" fill="#ffffff" stroke="#000000" pointer-events="all"/>
<text x="72" y="74" fill="#000000" font-family="monospace" font-size="12px" text-anchor="middle">MySQL / JDBC</text>
<text x="72" y="89" fill="#000000" font-family="monospace" font-size="12px" text-anchor="middle">or Arrow Flight</text>
<rect x="162" y="50" width="120" height="56" fill="#dae8fc" stroke="#000000" pointer-events="all"/>
<text x="222" y="74" fill="#000000" font-family="monospace" font-size="12px" text-anchor="middle">Netty server</text>
<text x="222" y="89" fill="#000000" font-family="monospace" font-size="12px" text-anchor="middle">accept :9030</text>
<rect x="312" y="50" width="120" height="56" fill="#dae8fc" stroke="#000000" pointer-events="all"/>
<text x="372" y="74" fill="#000000" font-family="monospace" font-size="12px" text-anchor="middle">session:</text>
<text x="372" y="89" fill="#000000" font-family="monospace" font-size="12px" text-anchor="middle">sched + ctx</text>
<rect x="462" y="50" width="120" height="56" fill="#dae8fc" stroke="#000000" pointer-events="all"/>
<text x="522" y="74" fill="#000000" font-family="monospace" font-size="12px" text-anchor="middle">Connect</text>
<text x="522" y="89" fill="#000000" font-family="monospace" font-size="12px" text-anchor="middle">Processor</text>
<rect x="612" y="50" width="120" height="56" fill="#dae8fc" stroke="#000000" pointer-events="all"/>
<text x="672" y="74" fill="#000000" font-family="monospace" font-size="12px" text-anchor="middle">Nereids:</text>
<text x="672" y="89" fill="#000000" font-family="monospace" font-size="12px" text-anchor="middle">plan + exec</text>
<!-- forward arrows -->
<path d="M 132 78 L 156.75 78" fill="none" stroke="#000000" stroke-miterlimit="10"/>
<path d="M 162 78 L 155 81.5 L 156.75 78 L 155 74.5 Z" fill="#000000" stroke="#000000" stroke-miterlimit="10"/>
<path d="M 282 78 L 306.75 78" fill="none" stroke="#000000" stroke-miterlimit="10"/>
<path d="M 312 78 L 305 81.5 L 306.75 78 L 305 74.5 Z" fill="#000000" stroke="#000000" stroke-miterlimit="10"/>
<path d="M 432 78 L 456.75 78" fill="none" stroke="#000000" stroke-miterlimit="10"/>
<path d="M 462 78 L 455 81.5 L 456.75 78 L 455 74.5 Z" fill="#000000" stroke="#000000" stroke-miterlimit="10"/>
<path d="M 582 78 L 606.75 78" fill="none" stroke="#000000" stroke-miterlimit="10"/>
<path d="M 612 78 L 605 81.5 L 606.75 78 L 605 74.5 Z" fill="#000000" stroke="#000000" stroke-miterlimit="10"/>
<!-- return arrow (data plane, red) -->
<path d="M 672 106 L 672 160 L 72 160 L 72 111.25" fill="none" stroke="#b85450" stroke-miterlimit="10"/>
<path d="M 72 106 L 68.5 113 L 72 111.25 L 75.5 113 Z" fill="#b85450" stroke="#b85450" stroke-miterlimit="10"/>
<text x="372" y="154" fill="#b85450" font-family="monospace" font-size="12px" text-anchor="middle">result-set packets / Arrow batches</text>
<!-- caption -->
<text x="372" y="192" fill="#000000" font-family="monospace" font-size="12px" text-anchor="middle">FE only - no table data is touched on the front door</text>
</g></svg>
