<?xml version="1.0" encoding="UTF-8"?>
<svg xmlns="http://www.w3.org/2000/svg" style="background: transparent; background-color: transparent; color-scheme: light;" xmlns:xlink="http://www.w3.org/1999/xlink" version="1.1" width="720px" height="500px" viewBox="0 0 720 500"><defs/><g>
<!-- client -->
<rect x="275" y="14" width="170" height="40" fill="#ffffff" stroke="#000000" pointer-events="all"/>
<text x="360" y="38" fill="#000000" font-family="monospace" font-size="12px" text-anchor="middle">MySQL / JDBC / BI</text>
<path d="M 360 54 L 360 140.75" fill="none" stroke="#000000" stroke-miterlimit="10"/>
<path d="M 360 146 L 356.5 139 L 360 140.75 L 363.5 139 Z" fill="#000000" stroke="#000000" stroke-miterlimit="10"/>
<text x="448" y="100" fill="#000000" font-family="monospace" font-size="12px" text-anchor="middle">MySQL :9030</text>
<!-- FE container -->
<rect x="30" y="112" width="660" height="118" fill="none" stroke="#000000" stroke-dasharray="4 4" pointer-events="all"/>
<text x="38" y="130" fill="#000000" font-family="monospace" font-size="12px" text-anchor="start">Frontend (FE) - Java : the brain</text>
<rect x="50" y="146" width="160" height="58" fill="#dae8fc" stroke="#000000" pointer-events="all"/>
<text x="130" y="170" fill="#000000" font-family="monospace" font-size="12px" text-anchor="middle">FE Follower</text>
<text x="130" y="186" fill="#000000" font-family="monospace" font-size="12px" text-anchor="middle">replicate + vote</text>
<rect x="280" y="146" width="160" height="58" fill="#dae8fc" stroke="#000000" pointer-events="all"/>
<text x="360" y="170" fill="#000000" font-family="monospace" font-size="12px" text-anchor="middle">FE Master</text>
<text x="360" y="186" fill="#000000" font-family="monospace" font-size="12px" text-anchor="middle">writes metadata</text>
<rect x="510" y="146" width="160" height="58" fill="#dae8fc" stroke="#000000" pointer-events="all"/>
<text x="590" y="170" fill="#000000" font-family="monospace" font-size="12px" text-anchor="middle">FE Observer</text>
<text x="590" y="186" fill="#000000" font-family="monospace" font-size="12px" text-anchor="middle">read scale-out</text>
<!-- master <-> follower -->
<path d="M 215.25 175 L 274.75 175" fill="none" stroke="#000000" stroke-miterlimit="10"/>
<path d="M 210 175 L 217 171.5 L 215.25 175 L 217 178.5 Z" fill="#000000" stroke="#000000" stroke-miterlimit="10"/>
<path d="M 280 175 L 273 171.5 L 274.75 175 L 273 178.5 Z" fill="#000000" stroke="#000000" stroke-miterlimit="10"/>
<text x="245" y="220" fill="#000000" font-family="monospace" font-size="12px" text-anchor="middle">BDBJE repl + elect</text>
<!-- master -> observer -->
<path d="M 440 175 L 504.75 175" fill="none" stroke="#000000" stroke-miterlimit="10"/>
<path d="M 510 175 L 503 171.5 L 504.75 175 L 503 178.5 Z" fill="#000000" stroke="#000000" stroke-miterlimit="10"/>
<text x="475" y="220" fill="#000000" font-family="monospace" font-size="12px" text-anchor="middle">edit-log, no vote</text>
<!-- FE master -> internal BE bus -> all BEs -->
<path d="M 360 204 L 360 319.75" fill="none" stroke="#000000" stroke-miterlimit="10"/>
<path d="M 360 325 L 356.5 318 L 360 319.75 L 363.5 318 Z" fill="#000000" stroke="#000000" stroke-miterlimit="10"/>
<path d="M 130 305 L 590 305" fill="none" stroke="#000000" stroke-miterlimit="10"/>
<path d="M 130 305 L 130 319.75" fill="none" stroke="#000000" stroke-miterlimit="10"/>
<path d="M 130 325 L 126.5 318 L 130 319.75 L 133.5 318 Z" fill="#000000" stroke="#000000" stroke-miterlimit="10"/>
<path d="M 590 305 L 590 319.75" fill="none" stroke="#000000" stroke-miterlimit="10"/>
<path d="M 590 325 L 586.5 318 L 590 319.75 L 593.5 318 Z" fill="#000000" stroke="#000000" stroke-miterlimit="10"/>
<text x="470" y="246" fill="#000000" font-family="monospace" font-size="12px" text-anchor="middle">heartbeat: Thrift</text>
<text x="470" y="261" fill="#000000" font-family="monospace" font-size="12px" text-anchor="middle">fragments: bRPC</text>
<!-- BE container -->
<rect x="30" y="272" width="660" height="224" fill="none" stroke="#000000" stroke-dasharray="4 4" pointer-events="all"/>
<text x="38" y="288" fill="#000000" font-family="monospace" font-size="12px" text-anchor="start">Backend (BE) - C++ : execute + store</text>
<!-- BE 1 -->
<rect x="50" y="325" width="160" height="150" fill="#ffe6cc" stroke="#000000" pointer-events="all"/>
<text x="130" y="343" fill="#000000" font-family="monospace" font-size="12px" text-anchor="middle">BE 1</text>
<rect x="65" y="353" width="130" height="42" fill="#ffffff" stroke="#000000" pointer-events="all"/>
<text x="130" y="378" fill="#000000" font-family="monospace" font-size="12px" text-anchor="middle">pipeline exec</text>
<rect x="65" y="403" width="130" height="58" fill="#d5e8d4" stroke="#000000" pointer-events="all"/>
<text x="130" y="427" fill="#000000" font-family="monospace" font-size="12px" text-anchor="middle">tablet replicas</text>
<text x="130" y="443" fill="#000000" font-family="monospace" font-size="12px" text-anchor="middle">(local disk)</text>
<!-- BE 2 -->
<rect x="280" y="325" width="160" height="150" fill="#ffe6cc" stroke="#000000" pointer-events="all"/>
<text x="360" y="343" fill="#000000" font-family="monospace" font-size="12px" text-anchor="middle">BE 2</text>
<rect x="295" y="353" width="130" height="42" fill="#ffffff" stroke="#000000" pointer-events="all"/>
<text x="360" y="378" fill="#000000" font-family="monospace" font-size="12px" text-anchor="middle">pipeline exec</text>
<rect x="295" y="403" width="130" height="58" fill="#d5e8d4" stroke="#000000" pointer-events="all"/>
<text x="360" y="427" fill="#000000" font-family="monospace" font-size="12px" text-anchor="middle">tablet replicas</text>
<text x="360" y="443" fill="#000000" font-family="monospace" font-size="12px" text-anchor="middle">(local disk)</text>
<!-- BE 3 -->
<rect x="510" y="325" width="160" height="150" fill="#ffe6cc" stroke="#000000" pointer-events="all"/>
<text x="590" y="343" fill="#000000" font-family="monospace" font-size="12px" text-anchor="middle">BE 3</text>
<rect x="525" y="353" width="130" height="42" fill="#ffffff" stroke="#000000" pointer-events="all"/>
<text x="590" y="378" fill="#000000" font-family="monospace" font-size="12px" text-anchor="middle">pipeline exec</text>
<rect x="525" y="403" width="130" height="58" fill="#d5e8d4" stroke="#000000" pointer-events="all"/>
<text x="590" y="427" fill="#000000" font-family="monospace" font-size="12px" text-anchor="middle">tablet replicas</text>
<text x="590" y="443" fill="#000000" font-family="monospace" font-size="12px" text-anchor="middle">(local disk)</text>
<!-- BE <-> BE shuffle (data plane, red) -->
<path d="M 215.25 374 L 274.75 374" fill="none" stroke="#b85450" stroke-miterlimit="10"/>
<path d="M 210 374 L 217 370.5 L 215.25 374 L 217 377.5 Z" fill="#b85450" stroke="#b85450" stroke-miterlimit="10"/>
<path d="M 280 374 L 273 370.5 L 274.75 374 L 273 377.5 Z" fill="#b85450" stroke="#b85450" stroke-miterlimit="10"/>
<path d="M 445.25 374 L 504.75 374" fill="none" stroke="#b85450" stroke-miterlimit="10"/>
<path d="M 440 374 L 447 370.5 L 445.25 374 L 447 377.5 Z" fill="#b85450" stroke="#b85450" stroke-miterlimit="10"/>
<path d="M 510 374 L 503 370.5 L 504.75 374 L 503 377.5 Z" fill="#b85450" stroke="#b85450" stroke-miterlimit="10"/>
<text x="360" y="487" fill="#b85450" font-family="monospace" font-size="12px" text-anchor="middle">data shuffle (bRPC)</text>
</g></svg>
