<?xml version="1.0" encoding="UTF-8"?>
<svg xmlns="http://www.w3.org/2000/svg" style="background: transparent; background-color: transparent; color-scheme: light;" xmlns:xlink="http://www.w3.org/1999/xlink" version="1.1" width="1000px" height="374px" viewBox="0 0 1000 374"><defs/><g>

<text x="500" y="24" fill="#000000" font-family="monospace" font-size="14px" text-anchor="middle">Ingestion: many entry points, one write path</text>
<text x="500" y="44" fill="#000000" font-family="monospace" font-size="12px" text-anchor="middle">the slider above traces what happens after a load arrives, not how it arrives</text>
<text x="130" y="68" fill="#000000" font-family="monospace" font-size="12px" text-anchor="middle">Producer</text>
<text x="445" y="68" fill="#000000" font-family="monospace" font-size="12px" text-anchor="middle">Load method</text>
<rect x="40" y="78" width="180" height="30" fill="#ffffff" stroke="#000000" pointer-events="all"/>
<text x="130" y="97" fill="#000000" font-family="monospace" font-size="12px" text-anchor="middle">Flink</text>
<rect x="40" y="114" width="180" height="30" fill="#ffffff" stroke="#000000" pointer-events="all"/>
<text x="130" y="133" fill="#000000" font-family="monospace" font-size="12px" text-anchor="middle">Spark</text>
<rect x="40" y="150" width="180" height="30" fill="#ffffff" stroke="#000000" pointer-events="all"/>
<text x="130" y="169" fill="#000000" font-family="monospace" font-size="12px" text-anchor="middle">curl / SDK</text>
<rect x="40" y="198" width="180" height="30" fill="#ffffff" stroke="#000000" pointer-events="all"/>
<text x="130" y="217" fill="#000000" font-family="monospace" font-size="12px" text-anchor="middle">Kafka</text>
<rect x="40" y="234" width="180" height="30" fill="#ffffff" stroke="#000000" pointer-events="all"/>
<text x="130" y="253" fill="#000000" font-family="monospace" font-size="12px" text-anchor="middle">HDFS / S3 files</text>
<rect x="40" y="282" width="180" height="30" fill="#ffffff" stroke="#000000" pointer-events="all"/>
<text x="130" y="301" fill="#000000" font-family="monospace" font-size="12px" text-anchor="middle">MySQL client</text>
<rect x="340" y="78" width="210" height="108" fill="#dae8fc" stroke="#000000" pointer-events="all"/>
<text x="445" y="116" fill="#000000" font-family="monospace" font-size="14px" text-anchor="middle">Stream Load</text>
<text x="445" y="138" fill="#000000" font-family="monospace" font-size="12px" text-anchor="middle">HTTP, synchronous</text>
<text x="445" y="160" fill="#000000" font-family="monospace" font-size="12px" text-anchor="middle">FE 307 -> coordinator BE</text>
<rect x="340" y="198" width="210" height="30" fill="#ffffff" stroke="#000000" pointer-events="all"/>
<text x="445" y="217" fill="#000000" font-family="monospace" font-size="12px" text-anchor="middle">Routine Load (Kafka)</text>
<rect x="340" y="234" width="210" height="30" fill="#ffffff" stroke="#000000" pointer-events="all"/>
<text x="445" y="253" fill="#000000" font-family="monospace" font-size="12px" text-anchor="middle">Broker Load (HDFS/S3)</text>
<rect x="340" y="282" width="210" height="30" fill="#ffffff" stroke="#000000" pointer-events="all"/>
<text x="445" y="301" fill="#000000" font-family="monospace" font-size="12px" text-anchor="middle">INSERT (MySQL)</text>
<path d="M 220 93 L 334.75 93" fill="none" stroke="#000000" stroke-miterlimit="10"/>
<path d="M 340 93 L 333 89.5 L 334.75 93 L 333 96.5 Z" fill="#000000" stroke="#000000" stroke-miterlimit="10"/>
<path d="M 220 129 L 334.75 129" fill="none" stroke="#000000" stroke-miterlimit="10"/>
<path d="M 340 129 L 333 125.5 L 334.75 129 L 333 132.5 Z" fill="#000000" stroke="#000000" stroke-miterlimit="10"/>
<path d="M 220 165 L 334.75 165" fill="none" stroke="#000000" stroke-miterlimit="10"/>
<path d="M 340 165 L 333 161.5 L 334.75 165 L 333 168.5 Z" fill="#000000" stroke="#000000" stroke-miterlimit="10"/>
<path d="M 220 213 L 334.75 213" fill="none" stroke="#000000" stroke-miterlimit="10"/>
<path d="M 340 213 L 333 209.5 L 334.75 213 L 333 216.5 Z" fill="#000000" stroke="#000000" stroke-miterlimit="10"/>
<path d="M 220 249 L 334.75 249" fill="none" stroke="#000000" stroke-miterlimit="10"/>
<path d="M 340 249 L 333 245.5 L 334.75 249 L 333 252.5 Z" fill="#000000" stroke="#000000" stroke-miterlimit="10"/>
<path d="M 220 297 L 334.75 297" fill="none" stroke="#000000" stroke-miterlimit="10"/>
<path d="M 340 297 L 333 293.5 L 334.75 297 L 333 300.5 Z" fill="#000000" stroke="#000000" stroke-miterlimit="10"/>
<rect x="650" y="78" width="310" height="234" fill="#d5e8d4" stroke="#000000" pointer-events="all"/>
<text x="805" y="104" fill="#000000" font-family="monospace" font-size="13px" text-anchor="middle">Same write path  (Section 3.1)</text>
<path d="M 666 116 L 944 116" fill="none" stroke="#000000" stroke-miterlimit="10"/>
<text x="668" y="142" fill="#000000" font-family="monospace" font-size="12px" text-anchor="start">1  begin one labeled transaction</text>
<text x="668" y="164" fill="#000000" font-family="monospace" font-size="12px" text-anchor="start">2  a backend builds immutable</text>
<text x="668" y="186" fill="#000000" font-family="monospace" font-size="12px" text-anchor="start">      segments in the vault</text>
<text x="668" y="208" fill="#000000" font-family="monospace" font-size="12px" text-anchor="start">3  commit at the Meta Service</text>
<text x="668" y="230" fill="#000000" font-family="monospace" font-size="12px" text-anchor="start">4  partition advances a version</text>
<text x="668" y="274" fill="#000000" font-family="monospace" font-size="12px" text-anchor="start">the label makes the batch atomic</text>
<text x="668" y="296" fill="#000000" font-family="monospace" font-size="12px" text-anchor="start">and dedupes a retried load</text>
<path d="M 550 132 L 644.75 132" fill="none" stroke="#000000" stroke-miterlimit="10"/>
<path d="M 650 132 L 643 128.5 L 644.75 132 L 643 135.5 Z" fill="#000000" stroke="#000000" stroke-miterlimit="10"/>
<path d="M 550 213 L 644.75 213" fill="none" stroke="#000000" stroke-miterlimit="10"/>
<path d="M 650 213 L 643 209.5 L 644.75 213 L 643 216.5 Z" fill="#000000" stroke="#000000" stroke-miterlimit="10"/>
<path d="M 550 249 L 644.75 249" fill="none" stroke="#000000" stroke-miterlimit="10"/>
<path d="M 650 249 L 643 245.5 L 644.75 249 L 643 252.5 Z" fill="#000000" stroke="#000000" stroke-miterlimit="10"/>
<path d="M 550 297 L 644.75 297" fill="none" stroke="#000000" stroke-miterlimit="10"/>
<path d="M 650 297 L 643 293.5 L 644.75 297 L 643 300.5 Z" fill="#000000" stroke="#000000" stroke-miterlimit="10"/>
<text x="500" y="340" fill="#000000" font-family="monospace" font-size="14px" text-anchor="middle">Stream Load is the high-throughput path, an HTTP batch a backend coordinates, used by Flink and Spark.</text>
<text x="500" y="360" fill="#000000" font-family="monospace" font-size="14px" text-anchor="middle">A two-phase variant commits on the next checkpoint for exactly-once. The rest differ only at the entry.</text>

</g></svg>
