<?xml version="1.0" encoding="UTF-8"?>
<svg xmlns="http://www.w3.org/2000/svg" style="background: transparent; background-color: transparent; color-scheme: light;" xmlns:xlink="http://www.w3.org/1999/xlink" version="1.1" width="720px" height="446px" viewBox="0 0 720 446"><defs/><g>
<!-- client -->
<rect x="285" y="16" width="150" height="36" fill="#ffffff" stroke="#000000" pointer-events="all"/>
<text x="360" y="38" fill="#000000" font-family="monospace" font-size="12px" text-anchor="middle">SQL client</text>
<path d="M 360 52 L 360 108.75" fill="none" stroke="#000000" stroke-miterlimit="10"/>
<path d="M 360 114 L 356.5 107 L 360 108.75 L 363.5 107 Z" fill="#000000" stroke="#000000" stroke-miterlimit="10"/>
<text x="450" y="76" fill="#000000" font-family="monospace" font-size="12px" text-anchor="middle">MySQL :9030</text>
<!-- FE layer -->
<rect x="40" y="86" width="640" height="108" fill="none" stroke="#000000" stroke-dasharray="4 4" pointer-events="all"/>
<text x="48" y="102" fill="#000000" font-family="monospace" font-size="12px" text-anchor="start">Frontend (FE)</text>
<rect x="60" y="116" width="170" height="46" fill="#dae8fc" stroke="#000000" pointer-events="all"/>
<text x="145" y="143" fill="#000000" font-family="monospace" font-size="12px" text-anchor="middle">FE Follower</text>
<rect x="275" y="116" width="170" height="46" fill="#dae8fc" stroke="#000000" pointer-events="all"/>
<text x="360" y="143" fill="#000000" font-family="monospace" font-size="12px" text-anchor="middle">FE Master</text>
<rect x="490" y="116" width="170" height="46" fill="#dae8fc" stroke="#000000" pointer-events="all"/>
<text x="575" y="143" fill="#000000" font-family="monospace" font-size="12px" text-anchor="middle">FE Observer</text>
<text x="360" y="182" fill="#000000" font-family="monospace" font-size="12px" text-anchor="middle">metadata + edit log on FE local disk</text>
<!-- FE -> BE -->
<path d="M 360 194 L 360 290.75" fill="none" stroke="#000000" stroke-miterlimit="10"/>
<path d="M 360 296 L 356.5 289 L 360 290.75 L 363.5 289 Z" fill="#000000" stroke="#000000" stroke-miterlimit="10"/>
<path d="M 145 284 L 575 284" fill="none" stroke="#000000" stroke-miterlimit="10"/>
<path d="M 145 284 L 145 290.75" fill="none" stroke="#000000" stroke-miterlimit="10"/>
<path d="M 145 296 L 141.5 289 L 145 290.75 L 148.5 289 Z" fill="#000000" stroke="#000000" stroke-miterlimit="10"/>
<path d="M 575 284 L 575 290.75" fill="none" stroke="#000000" stroke-miterlimit="10"/>
<path d="M 575 296 L 571.5 289 L 575 290.75 L 578.5 289 Z" fill="#000000" stroke="#000000" stroke-miterlimit="10"/>
<text x="470" y="232" fill="#000000" font-family="monospace" font-size="12px" text-anchor="middle">fragments + heartbeat</text>
<!-- BE layer -->
<rect x="40" y="250" width="640" height="170" fill="none" stroke="#000000" stroke-dasharray="4 4" pointer-events="all"/>
<text x="48" y="266" fill="#000000" font-family="monospace" font-size="12px" text-anchor="start">Backend (BE)</text>
<rect x="60" y="296" width="170" height="110" fill="#ffe6cc" stroke="#000000" pointer-events="all"/>
<text x="145" y="314" fill="#000000" font-family="monospace" font-size="12px" text-anchor="middle">BE 1</text>
<rect x="75" y="322" width="140" height="28" fill="#ffffff" stroke="#000000" pointer-events="all"/>
<text x="145" y="340" fill="#000000" font-family="monospace" font-size="12px" text-anchor="middle">pipeline exec</text>
<rect x="75" y="356" width="140" height="42" fill="#d5e8d4" stroke="#000000" pointer-events="all"/>
<text x="145" y="376" fill="#000000" font-family="monospace" font-size="12px" text-anchor="middle">tablet replicas</text>
<text x="145" y="391" fill="#000000" font-family="monospace" font-size="12px" text-anchor="middle">(local disk)</text>
<rect x="275" y="296" width="170" height="110" fill="#ffe6cc" stroke="#000000" pointer-events="all"/>
<text x="360" y="314" fill="#000000" font-family="monospace" font-size="12px" text-anchor="middle">BE 2</text>
<rect x="290" y="322" width="140" height="28" fill="#ffffff" stroke="#000000" pointer-events="all"/>
<text x="360" y="340" fill="#000000" font-family="monospace" font-size="12px" text-anchor="middle">pipeline exec</text>
<rect x="290" y="356" width="140" height="42" fill="#d5e8d4" stroke="#000000" pointer-events="all"/>
<text x="360" y="376" fill="#000000" font-family="monospace" font-size="12px" text-anchor="middle">tablet replicas</text>
<text x="360" y="391" fill="#000000" font-family="monospace" font-size="12px" text-anchor="middle">(local disk)</text>
<rect x="490" y="296" width="170" height="110" fill="#ffe6cc" stroke="#000000" pointer-events="all"/>
<text x="575" y="314" fill="#000000" font-family="monospace" font-size="12px" text-anchor="middle">BE 3</text>
<rect x="505" y="322" width="140" height="28" fill="#ffffff" stroke="#000000" pointer-events="all"/>
<text x="575" y="340" fill="#000000" font-family="monospace" font-size="12px" text-anchor="middle">pipeline exec</text>
<rect x="505" y="356" width="140" height="42" fill="#d5e8d4" stroke="#000000" pointer-events="all"/>
<text x="575" y="376" fill="#000000" font-family="monospace" font-size="12px" text-anchor="middle">tablet replicas</text>
<text x="575" y="391" fill="#000000" font-family="monospace" font-size="12px" text-anchor="middle">(local disk)</text>
<!-- caption -->
<text x="360" y="434" fill="#000000" font-family="monospace" font-size="12px" text-anchor="middle">data is N tablet replicas on BE local disks, storage and compute scale together</text>
</g></svg>
