<?xml version="1.0" encoding="utf-8"?>
<svg viewBox="0 0 500 500" xmlns="http://www.w3.org/2000/svg">
  <defs/>
  <g id="a" fill="#bcbec0" transform="matrix(1, 0, 0, 1, 442.266968, 140.584991)" stroke-linejoin="bevel" stroke-width="0.25" stroke="#000">
    <path d="M -176.178 162.017 L -177.578 163.477 L -179.938 163.477 L -179.938 161.327 L -178.108 160.147 L -176.178 160.147 L -176.178 162.017 Z M -172.128 155.717 L -172.128 157.837 L -173.928 156.757 L -173.928 155.107 L -172.128 155.107 L -172.128 149.137 L -176.728 149.137 L -187.668 156.467 L -190.358 153.377 L -190.358 159.447 L -197.008 159.447 L -193.148 170.017 L -180.478 170.017 L -170.728 158.737 L -170.288 155.687 L -172.128 155.717 Z M -343.728 36.317 L -341.208 34.598 L -338.168 34.598 L -340.678 36.317 L -343.728 36.317 Z M -320.758 27.19 L -323.978 29.982 L -331.438 29.982 L -333.748 31.564 L -331.968 31.564 L -334.448 33.256 L -336.218 33.256 L -333.748 31.564 L -338.618 31.564 L -340.728 33.204 L -342.878 33.419 L -342.448 29.714 L -344.108 29.714 L -346.048 31.003 L -349.648 36.318 L -351.768 36.318 L -347.688 29.714 L -342.878 28.685 L -343.148 27.782 L -346.318 27.674 L -347.818 26.761 L -349.698 27.674 L -351.898 27.674 L -350.998 25.729 L -355.549 23.647 L -394.359 23.647 L -407.139 37.127 L -407.139 47.487 L -402.473 52.154 L -386.153 54.252 L -383.976 57.554 L -379.386 57.393 L -375.598 64.833 L -368.54 55.972 L -351.76 56.025 L -350.65 64.413 L -347.99 64.483 L -347.92 54.043 L -320.76 30.823 L -318.91 30.503 L -317.86 27.196 L -320.76 27.196 L -320.758 27.19 Z M -304.698 25.755 L -295.218 25.755 L -297.188 22.617 L -298.968 22.192 L -298.968 19.941 L -304.698 25.755 Z M -374.978 76.515 L -378.635 68.635 L -375.599 64.825 L -379.386 57.383 L -383.976 57.544 L -386.153 54.243 L -402.473 52.145 L -402.442 52.177 L -401.747 59.525 L -396.727 69.025 L -394.67 67.435 L -398.629 58.994 L -398.629 54.243 L -396.294 54.243 L -396.203 58.662 L -388.703 76.282 L -376.473 81.382 L -373.421 80.572 L -370.735 83.312 L -369.397 80.932 L -366.579 80.932 L -366.981 77.842 L -364.566 77.842 L -361.425 75.502 L -361.292 72.092 L -364.727 72.032 L -367.458 76.512 L -374.978 76.515 Z M -239.578 0.125 L -235.038 -2.084 L -235.038 -2.706 L -237.288 -4.988 L -240.438 -3.942 L -244.218 -4.022 L -245.018 -2.932 L -247.168 -2.982 L -247.168 -0.962 L -239.578 0.125 Z M -199.168 48.075 L -199.158 45.931 L -201.588 45.867 L -201.608 47.447 L -199.168 48.075 Z M -291.248 -20.485 L -291.248 -18.225 L -279.968 -18.064 L -277.078 -13.077 L -277.078 -8.567 L -282.488 -5.494 L -282.328 0.626 L -278.928 4.063 L -274.908 4.063 L -268.768 -2.426 L -260.098 -4.983 L -256.848 -7.472 L -250.288 -7.877 L -245.698 -9.232 L -237.048 -22.982 L -231.718 -24.072 L -229.838 -25.962 L -245.208 -27.508 L -258.488 -25.962 L -274.568 -25.962 L -283.838 -22.741 L -291.248 -20.485 Z M -29.648 66.565 L -30.958 65.195 L -33.108 68.255 L -30.958 70.265 L -29.648 66.565 Z M -50.288 28.635 L -49.858 26.219 L -54.368 25.494 L -56.088 22.675 L -64.678 22.675 L -82.238 18.327 L -84.168 22.675 L -91.308 20.501 L -96.638 24.561 L -79.278 34.701 L -59.198 34.916 L -56.778 29.992 L -50.288 28.635 Z M -46.478 74.615 L -49.058 75.185 L -49.058 76.705 L -48.008 77.975 L -46.478 76.065 L -46.478 74.615 Z M -56.088 22.675 L -54.368 25.494 L -49.858 26.219 L -50.288 28.635 L -56.768 29.992 L -59.198 34.916 L -79.278 34.701 L -96.638 24.561 L -104.148 30.286 L -102.898 36.097 L -110.418 38.89 L -108.268 44.15 L -100.268 47.8 L -99.948 54.243 L -79.008 61.485 L -75.148 57.947 L -66.928 61.485 L -68.058 64.545 L -63.708 71.795 L -56.088 67.935 L -51.108 72.195 L -48.998 70.995 L -48.918 73.045 L -36.438 68.585 L -32.358 59.453 L -39.638 47.473 L -35.898 43.394 L -40.198 43.394 L -41.578 44.287 L -44.278 39.852 L -40.838 36.845 L -38.478 41.349 L -35.168 39.072 L -28.818 34.698 L -28.818 26.215 L -39.338 23.531 L -47.068 15.96 L -54.578 15.96 L -52.868 22.027 L -56.088 22.675 Z M -12.698 35.435 L -9.758 35.395 L -8.508 33.261 L -15.038 30.523 L -14.908 35.918 L -13.618 36.683 L -12.698 35.435 Z M -20.818 47.905 L -21.298 49.564 L -14.828 48.609 L -14.328 51.107 L -12.858 50.483 L -12.698 48.517 L -8.358 47.402 L -8.588 41.729 L -10.558 38.29 L -12.518 37.722 L -11.398 42.876 L -15.408 46.513 L -20.818 47.905 Z M -21.958 51.107 L -19.618 50.812 L -18.858 51.94 L -19.698 54.597 L -21.958 51.107 Z M -15.718 50.007 L -16.848 52.06 L -18.338 50.369 L -15.718 50.007 Z M -22.798 85.047 L -26.348 84.677 L -27.638 83.067 L -26.348 80.107 L -27.628 77.267 L -29.968 77.217 L -30.538 82.217 L -27.228 86.207 L -23.348 86.697 L -22.798 85.047 Z M -33.978 93.917 L -32.408 94.227 L -29.618 91.907 L -29.678 90.007 L -33.978 93.917 Z M -21.728 97.507 L -21.728 99.737 L -19.398 99.037 L -20.188 97.597 L -18.308 97.117 L -19.908 92.127 L -21.088 95.207 L -24.948 95.207 L -21.728 97.507 Z M -28.598 86.377 L -26.938 88.007 L -27.478 89.007 L -28.818 87.697 L -28.598 86.377 Z M -26.938 90.367 L -25.758 91.167 L -24.468 89.217 L -26.188 89.007 L -26.938 90.367 Z M -22.538 88.327 L -20.918 90.417 L -19.148 90.417 L -20.838 87.697 L -22.538 88.327 Z M -22.538 90.087 L -21.628 91.677 L -22.358 92.647 L -23.638 90.717 L -22.538 90.087 Z M -24.468 91.697 L -23.638 92.947 L -24.468 93.947 L -25.418 92.787 L -24.468 91.697 Z M -21.318 124.457 L -20.228 125.957 L -17.168 125.587 L -17.168 124.457 L -21.318 124.457 Z M -45.908 106.817 L -45.758 111.137 L -43.298 115.437 L -35.478 115.437 L -31.608 110.497 L -31.608 101.537 L -34.398 101.827 L -36.658 106.097 L -44.228 107.787 L -45.858 106.797 L -45.908 106.817 Z M -51.468 118.097 L -51.468 114.797 L -64.358 101.427 L -68.768 99.737 L -53.838 120.067 L -51.468 118.097 Z M -36.408 123.977 L -36.168 125.097 L -52.278 122.367 L -49.858 120.427 L -45.838 121.957 L -42.208 121.157 L -36.408 123.977 Z M -26.108 123.977 L -28.598 123.977 L -28.118 125.587 L -25.738 125.587 L -24.738 124.777 L -26.108 123.977 Z M -30.458 126.587 L -29.728 127.477 L -27.998 127.477 L -28.598 126.187 L -30.458 126.587 Z M -21.318 124.457 L -23.808 127.237 L -21.918 127.477 L -20.228 125.957 L -21.318 124.457 Z M -29.608 119.547 L -27.758 118.977 L -28.318 115.717 L -27.228 114.507 L -26.308 116.927 L -24.088 117.697 L -24.088 115.957 L -25.338 113.197 L -22.968 111.207 L -26.748 111.367 L -27.528 110.287 L -26.028 108.637 L -23.248 109.597 L -21.878 109.477 L -19.828 107.057 L -21.628 107.017 L -22.798 107.787 L -26.668 106.847 L -29.228 109.157 L -29.048 112.817 L -30.538 114.797 L -29.608 119.547 Z M -15.718 114.357 L -16.148 115.867 L -11.958 115.437 L -11.958 114.357 L -15.718 114.357 Z M -14.748 104.607 L -16.148 105.987 L -16.678 109.427 L -14.748 109.897 L -15.178 106.847 L -14.058 105.447 L -14.748 104.607 Z M -5.258 113.757 L -5.818 110.777 L -10.408 111.427 L -5.258 113.757 Z M -5.568 116.237 L 0.832 118.907 L 1.982 122.177 L -0.148 123.477 L 5.332 125.377 L 5.332 114.587 L 0.882 112.267 L -3.268 115.637 L -7.658 113.907 L -8.148 116.327 L -5.568 116.237 Z M -24.628 45.057 L -28.948 41.522 L -30.858 43.286 L -28.278 48.87 L -25.158 48.655 L -24.628 45.057 Z M -28.948 41.522 L -30.858 39.958 L -28.388 39.636 L -28.818 34.697 L -35.168 39.071 L -33.308 42.601 L -30.858 43.286 L -28.948 41.522 Z M -34.478 98.502 L -37.918 103.132 L -45.858 106.802 L -44.228 107.792 L -36.658 106.102 L -34.398 101.832 L -31.608 101.542 L -31.608 98.262 L -34.478 98.502 Z M -60.798 98.502 L -59.418 102.982 L -53.738 107.822 L -53.298 106.102 L -58.658 98.182 L -60.798 98.502 Z M 7.322 126.082 L 11.132 122.582 L 16.072 127.402 L 20.582 128.322 L 15.002 122.742 L 15.272 119.792 L 5.332 114.592 L 5.332 125.382 L 7.322 126.082 Z M 17.782 120.302 L 19.792 121.502 L 23.262 119.552 L 23.262 117.532 L 17.782 120.302 Z M 20.582 114.632 L 24.632 117.532 L 26.252 116.982 L 22.142 114.532 L 20.582 114.632 Z M -63.708 71.792 L -68.058 64.542 L -66.938 61.482 L -69.458 60.402 L -72.838 62.832 L -74.428 73.822 L -71.918 75.922 L -70.958 80.942 L -69.188 81.472 L -67.918 79.882 L -65.558 82.542 L -64.248 87.402 L -64.558 92.422 L -62.528 88.442 L -66.178 75.282 L -63.708 73.492 L -63.708 71.792 Z M -56.408 77.972 L -53.488 81.942 L -56.218 84.682 L -50.098 84.682 L -50.098 83.122 L -56.058 76.782 L -57.378 72.702 L -61.518 70.682 L -63.708 71.792 L -63.708 73.492 L -61.568 74.742 L -61.568 77.972 L -56.408 77.972 Z M -61.568 77.972 L -61.568 74.742 L -63.708 73.492 L -66.178 75.282 L -62.528 88.442 L -64.558 92.422 L -64.678 94.402 L -61.138 97.402 L -60.798 98.502 L -58.658 98.182 L -62.098 93.112 L -61.298 85.272 L -57.428 89.102 L -57.428 85.892 L -53.488 81.942 L -56.408 77.972 L -61.568 77.972 Z M -57.428 85.892 L -57.428 89.102 L -55.498 91.022 L -53.328 90.722 L -50.098 88.302 L -50.098 84.682 L -56.218 84.682 L -57.428 85.892 Z M -56.058 76.782 L -50.098 83.122 L -50.098 88.302 L -53.328 90.722 L -53.248 94.182 L -47.068 90.102 L -47.278 84.032 L -53.728 77.222 L -53.408 73.492 L -51.108 72.192 L -56.088 67.932 L -61.518 70.682 L -57.378 72.702 L -56.058 76.782 Z M -81.828 63.582 L -83.198 64.222 L -81.258 70.352 L -80.008 69.142 L -74.428 73.822 L -74.068 71.322 L -76.998 68.582 L -77.478 65.302 L -79.818 66.262 L -81.828 63.582 Z M -79.818 63.162 L -83.198 62.322 L -82.728 60.202 L -83.698 59.866 L -85.768 63.162 L -97.138 58.856 L -97.108 55.224 L -99.948 54.24 L -100.268 47.797 L -102.748 46.667 L -105.038 46.667 L -108.438 49.083 L -108.528 51.14 L -106.468 52.307 L -105.488 56.328 L -109.958 60.442 L -112.818 60.442 L -112.818 63.482 L -110.678 64.292 L -110.678 66.912 L -114.538 67.942 L -114.208 68.332 L -111.018 69.342 L -112.508 70.872 L -111.098 72.702 L -108.568 73.002 L -108.118 70.902 L -107.118 70.912 L -98.988 94.292 L -93.828 91.122 L -93.028 81.722 L -81.258 70.352 L -83.198 64.222 L -81.828 63.582 L -79.818 66.262 L -77.478 65.302 L -76.998 68.582 L -74.068 71.322 L -72.838 62.832 L -69.458 60.402 L -75.148 57.944 L -79.008 61.482 L -79.818 63.162 Z M -97.108 55.224 L -97.138 58.856 L -85.768 63.162 L -83.698 59.866 L -97.108 55.224 Z M -82.728 60.202 L -83.198 62.322 L -79.818 63.162 L -79.008 61.482 L -82.728 60.202 Z M -147.138 33.032 L -144.728 35.034 L -141.658 34.186 L -138.938 36.456 L -139.408 30.562 L -135.218 29.596 L -129.698 33.381 L -125.078 32.495 L -121.698 36.951 L -118.438 36.807 L -115.248 34.186 L -107.718 33.859 L -102.898 36.092 L -104.148 30.281 L -96.638 24.558 L -100.968 22.026 L -126.208 13.125 L -136.158 15.368 L -136.158 19.866 L -153.798 19.866 L -153.798 25.678 L -151.438 28.63 L -146.388 26.59 L -143.378 28.63 L -147.028 30.401 L -147.138 33.032 Z M -127.818 46.912 L -129.508 44.175 L -136.108 42.081 L -140.008 43.381 L -140.078 45.118 L -145.048 45.115 L -147.788 40.28 L -154.338 40.927 L -154.338 42.86 L -146.388 56.35 L -144.028 56.576 L -138.548 62.293 L -128.458 65.303 L -125.658 65.303 L -123.628 61.813 L -125.878 58.992 L -129.098 49.651 L -127.818 46.912 Z M -138.938 36.462 L -141.658 34.192 L -144.728 35.04 L -139.828 39.098 L -140.008 43.384 L -136.108 42.084 L -129.498 44.178 L -127.808 46.915 L -121.528 43.694 L -131.878 35.411 L -136.268 35.411 L -138.938 36.462 Z M -112.818 60.442 L -109.958 60.442 L -105.488 56.328 L -106.468 52.307 L -108.528 51.14 L -108.438 49.083 L -105.038 46.667 L -102.748 46.667 L -107.518 44.488 L -112.598 45.221 L -114.208 52.199 L -120.078 57.626 L -126.378 57.563 L -125.878 58.991 L -123.628 61.812 L -125.658 65.302 L -116.858 65.302 L -114.538 67.942 L -110.678 66.912 L -110.678 64.292 L -112.818 63.482 L -112.818 60.442 Z M -129.698 33.382 L -135.218 29.597 L -139.408 30.563 L -138.938 36.457 L -136.268 35.406 L -131.878 35.406 L -121.528 43.689 L -118.138 44.596 L -119.678 40.066 L -114.868 38.686 L -114.598 36.638 L -121.698 36.952 L -125.078 32.496 L -129.698 33.382 Z M -127.818 46.912 L -129.098 49.651 L -126.378 57.564 L -120.078 57.627 L -114.208 52.2 L -112.598 45.222 L -113.638 42.282 L -118.138 44.598 L -121.528 43.691 L -127.818 46.912 Z M -114.068 40.927 L -118.108 39.616 L -119.678 40.068 L -118.138 44.598 L -113.638 42.282 L -112.598 45.222 L -107.518 44.489 L -108.268 44.148 L -109.748 40.517 L -114.068 40.927 Z M -115.248 34.189 L -118.438 36.81 L -114.598 36.64 L -114.868 38.688 L -118.108 39.616 L -114.068 40.927 L -109.748 40.517 L -110.418 38.888 L -102.898 36.095 L -107.718 33.862 L -115.248 34.189 Z M -153.798 37.961 L -150.918 40.589 L -147.788 40.28 L -149.968 36.439 L -152.328 35.855 L -153.798 37.961 Z M -159.988 36.874 L -155.718 37.961 L -153.798 37.961 L -152.328 35.855 L -157.778 33.384 L -159.988 33.862 L -159.988 36.874 Z M -154.338 40.927 L -150.918 40.589 L -153.798 37.961 L -155.718 37.961 L -154.338 40.927 Z M -186.888 8.177 L -188.018 8.444 L -187.728 8.661 L -188.048 10.111 L -191.218 8.661 L -191.208 10.543 L -186.888 11.645 L -183.778 13.068 L -182.578 12.042 L -183.008 8.986 L -184.588 9.466 L -186.888 8.177 Z M -191.198 12.694 L -188.788 13.497 L -188.128 14.861 L -187.608 16.316 L -183.778 13.068 L -186.888 11.645 L -191.208 10.543 L -191.198 12.694 Z M -178.958 12.042 L -182.578 12.042 L -187.608 16.316 L -186.808 18.521 L -179.598 19.671 L -175.098 18.689 L -177.778 17.599 L -176.168 16.572 L -178.958 12.042 Z M -188.998 6.454 L -189.378 7.42 L -188.018 8.444 L -186.888 8.177 L -184.588 9.466 L -183.008 8.986 L -183.498 5.505 L -184.398 6.35 L -188.998 6.454 Z M -179.598 19.674 L -186.808 18.524 L -186.358 19.776 L -188.938 22.993 L -188.938 24.813 L -179.188 24.813 L -178.248 26.595 L -179.938 29.244 L -178.458 29.863 L -178.058 28.635 L -172.278 28.635 L -173.558 29.963 L -171.778 30.97 L -169.378 30.782 L -171.658 27.87 L -165.658 26.595 L -164.128 23.159 L -175.098 18.692 L -179.598 19.674 Z M -193.328 -8.486 L -203.428 -1.078 L -203.428 5.511 L -204.818 7.688 L -201.018 12.063 L -194.818 6.573 L -197.718 2.973 L -191.188 -4.164 L -189.898 -4.164 L -191.678 -8.486 L -193.328 -8.486 Z M -211.138 8.184 L -205.228 7.218 L -204.818 7.689 L -203.428 5.512 L -203.428 -1.077 L -193.318 -8.485 L -187.728 -8.485 L -187.728 -10.33 L -193.458 -10.038 L -213.108 3.562 L -211.138 8.184 Z M -187.728 -8.486 L -191.668 -8.486 L -189.898 -4.164 L -188.858 -4.164 L -191.998 2.949 L -188.328 4.801 L -182.738 4.801 L -179.598 1.177 L -184.808 -10.483 L -187.728 -10.335 L -187.728 -8.486 Z M -18.328 23.914 L -16.398 23.914 L -23.208 16.935 L -25.138 16.88 L -19.668 23.645 L -16.988 28.638 L -14.998 28.638 L -18.328 23.914 Z M -188.828 13.504 L -191.238 12.701 L -191.228 14.304 L -188.168 14.868 L -188.828 13.504 Z M -44.728 -10.626 L -46.578 -13.139 L -58.018 -15.009 L -61.238 -12.11 L -70.498 -12.11 L -74.358 -15.009 L -95.298 -15.009 L -96.588 -19.625 L -115.918 -19.625 L -132.958 -12.003 L -129.228 -7.385 L -132.448 -4.057 L -135.358 -13.568 L -140.498 -13.975 L -138.028 -8.352 L -157.898 -7.815 L -176.468 -0.192 L -178.918 -4.86 L -171.858 -4.594 L -168.418 -6.312 L -181.948 -10.626 L -184.828 -10.479 L -179.618 1.181 L -182.758 4.805 L -183.518 5.515 L -183.028 8.996 L -182.598 12.052 L -178.978 12.052 L -176.188 16.582 L -177.798 17.609 L -175.118 18.699 L -164.148 23.166 L -165.678 26.602 L -164.958 28.319 L -166.728 28.802 L -166.418 31.626 L -160.008 33.871 L -157.798 33.393 L -152.348 35.864 L -149.988 36.448 L -151.458 33.871 L -151.458 28.642 L -153.818 25.69 L -153.818 19.878 L -136.178 19.878 L -136.178 15.38 L -126.228 13.137 L -100.988 22.038 L -96.658 24.568 L -91.328 20.508 L -84.188 22.682 L -82.258 18.334 L -64.698 22.682 L -56.108 22.682 L -52.888 22.038 L -54.608 15.971 L -47.088 15.971 L -39.358 23.542 L -28.838 26.226 L -28.838 34.709 L -24.228 33.899 L -21.748 30.199 L -21.748 23.327 L -28.838 15.274 L -35.708 15.167 L -34.528 6.685 L -20.358 6.792 L -18.818 1.978 L -12.838 4.241 L -12.818 2.022 L -11.338 2.175 L -8.758 4.644 L -11.248 6.339 L -11.548 11.408 L -1.458 20.965 L -1.458 11.731 L -7.148 6.254 L 6.332 1.986 L 6.502 0.61 L -0.278 -1.235 L 2.362 -3.292 L 8.422 -2.04 L 12.532 -1.959 L 9.232 -5.5 L -11.928 -9.691 L -44.728 -10.626 Z M -195.828 25.314 L -198.318 27.355 L -194.698 28.7 L -190.838 28.034 L -187.778 24.816 L -188.988 24.816 L -188.988 24.055 L -195.828 25.314 Z M -197.678 23.564 L -195.828 25.314 L -188.988 24.055 L -188.988 22.996 L -195.188 22.243 L -195.448 22.141 L -197.678 23.564 Z M -210.738 28.541 L -208.518 28.7 L -206.508 28.236 L -207.228 26.061 L -209.118 26.061 L -210.348 26.628 L -210.738 28.541 Z M -202.238 23.564 L -197.678 23.564 L -195.448 22.141 L -199.808 20.423 L -203.708 21.631 L -202.238 23.564 Z M -232.878 44.524 L -231.978 44.592 L -230.938 35.856 L -234.318 35.291 L -234.488 41.679 L -232.878 44.524 Z M -179.988 29.244 L -178.298 26.595 L -179.238 24.813 L -182.128 24.813 L -179.988 29.244 Z M -188.178 14.864 L -191.238 14.3 L -194.458 14.406 L -195.188 13.737 L -199.808 14.864 L -200.218 14.859 L -199.808 20.42 L -195.438 22.138 L -195.188 22.24 L -188.988 22.993 L -186.408 19.776 L -186.858 18.524 L -187.658 16.319 L -188.178 14.864 Z M -187.778 24.813 L -190.838 28.031 L -188.098 32.581 L -181.258 31.802 L -179.308 32.339 L -178.508 29.863 L -179.988 29.244 L -182.128 24.813 L -187.778 24.813 Z M -200.228 14.859 L -206.158 14.791 L -206.428 13.737 L -208.508 13.737 L -208.088 14.752 L -211.208 16.621 L -211.488 22.006 L -209.598 22.993 L -210.348 26.625 L -209.118 26.058 L -204.718 26.058 L -204.338 25.947 L -201.148 25.011 L -202.238 23.561 L -203.708 21.628 L -199.808 20.42 L -200.228 14.859 Z M -208.508 13.737 L -206.428 13.737 L -206.538 13.291 L -205.858 9.469 L -207.728 9.443 L -209.058 12.441 L -208.508 13.737 Z M -202.958 12.399 L -204.128 11.24 L -205.168 11.667 L -205.488 13.31 L -203.548 13.291 L -202.958 12.399 Z M -201.148 25.009 L -204.718 26.056 L -207.228 26.056 L -206.508 28.231 L -202.698 27.35 L -198.318 27.35 L -196.488 25.846 L -195.828 25.309 L -197.678 23.559 L -202.238 23.559 L -201.148 25.009 Z M -198.968 42.399 L -202.838 42.399 L -202.838 43.366 L -201.388 44.359 L -198.968 44.734 L -198.968 42.399 Z M -209.118 36.95 L -209.118 40.923 L -207.268 40.923 L -207.268 37.487 L -209.118 36.95 Z M -210.738 28.532 L -211.088 30.239 L -208.848 31.26 L -206.248 31.26 L -198.248 39.243 L -197.838 42.64 L -196.368 41.781 L -195.908 39.339 L -194.088 38.974 L -203.848 30.527 L -201.078 30.361 L -202.698 27.346 L -208.518 28.691 L -210.738 28.532 Z M -208.188 34.213 L -208.188 35.851 L -207.268 36.198 L -206.858 34.213 L -208.188 34.213 Z M -226.648 24.173 L -226.648 25.354 L -223.328 27.148 L -222.888 33.031 L -217.968 36.178 L -216.448 34.213 L -209.248 34.265 L -209.038 31.26 L -208.848 31.26 L -211.088 30.239 L -209.598 22.987 L -216.148 19.57 L -223.828 24.173 L -226.648 24.173 Z M -214.318 18.477 L -216.148 19.57 L -212.478 21.484 L -211.428 20.918 L -211.388 20.032 L -214.318 18.477 Z M -211.388 20.032 L -211.208 16.615 L -214.318 18.477 L -211.388 20.032 Z M -212.478 21.484 L -211.488 22 L -211.438 20.918 L -212.478 21.484 Z M -224.498 13.114 L -224.458 15.583 L -226.148 16.509 L -224.658 18.678 L -227.678 21.542 L -223.688 20.817 L -219.628 20.173 L -219.368 18.683 L -218.538 18.683 L -218.358 17.02 L -220.988 16.465 L -224.278 8.905 L -226.788 8.828 L -226.788 12.899 L -224.498 13.114 Z M -227.678 14.898 L -227.678 13.285 L -230.618 13.086 L -228.928 15.341 L -227.678 14.898 Z M -233.598 15.271 L -233.598 19.674 L -231.908 19.663 L -231.908 18.16 L -228.688 18.603 L -228.928 15.341 L -230.618 13.086 L -233.598 15.271 Z M -231.978 44.591 L -224.928 45.118 L -217.968 36.182 L -222.888 33.035 L -234.268 33.117 L -234.318 35.29 L -230.938 35.855 L -231.978 44.591 Z M -216.358 40.831 L -216.358 38.94 L -218.538 40.831 L -216.358 40.831 Z M -190.598 38.632 L -186.128 37.186 L -187.158 34.784 L -190.838 35.504 L -190.598 38.632 Z M -193.428 28.472 L -192.608 33.032 L -190.838 35.501 L -187.158 34.781 L -188.098 32.576 L -190.838 28.026 L -193.428 28.472 Z M -201.078 30.362 L -200.668 30.338 L -198.568 29.239 L -197.618 27.609 L -198.318 27.347 L -202.698 27.347 L -201.078 30.362 Z M -178.758 39.206 L -182.088 39.179 L -179.348 44.685 L -166.758 45.38 L -154.388 42.857 L -154.388 40.924 L -155.768 37.958 L -160.038 36.871 L -177.278 37.435 L -178.758 39.206 Z M -182.098 37.958 L -179.028 37.958 L -180.268 35.288 L -182.128 35.889 L -182.098 37.958 Z M -195.848 34.388 L -194.738 34.663 L -192.608 33.032 L -193.208 29.678 L -197.758 30.294 L -195.848 34.388 Z M -192.258 39.165 L -190.838 40.805 L -188.098 41.571 L -189.768 42.279 L -187.558 45.057 L -186.168 42.857 L -187.718 39.474 L -184.638 37.958 L -182.098 37.958 L -182.128 35.889 L -192.258 39.165 Z M -194.698 28.695 L -197.618 27.612 L -198.568 29.242 L -200.668 30.341 L -199.938 30.297 L -196.548 34.217 L -195.848 34.391 L -197.758 30.297 L -193.208 29.681 L -193.428 28.475 L -194.698 28.695 Z M -193.408 34.995 L -191.808 34.144 L -192.608 33.035 L -194.738 34.666 L -193.408 34.995 Z M -193.408 34.995 L -192.508 38.876 L -192.258 39.168 L -190.598 38.632 L -190.838 35.504 L -191.808 34.144 L -193.408 34.995 Z M -186.128 37.186 L -180.268 35.291 L -179.308 32.337 L -181.258 31.8 L -188.098 32.579 L -186.128 37.186 Z M -142.398 65.326 L -141.038 66.226 L -140.148 65.306 L -141.708 63.106 L -142.398 65.326 Z M -169.528 46.796 L -173.118 48.125 L -170.548 48.769 L -169.528 46.796 Z M -167.218 51.389 L -167.218 57.842 L -165.868 58.003 L -163.858 57.063 L -163.238 53.439 L -161.668 52.775 L -161.588 52.741 L -162.048 50.816 L -165.278 52.741 L -167.218 51.389 Z M -142.838 65.039 L -146.388 59.239 L -147.938 59.239 L -149.048 57.8 L -152.078 57.79 L -161.668 52.777 L -163.248 53.441 L -163.858 57.065 L -165.878 58.005 L -167.218 57.844 L -154.708 79.584 L -154.458 80.394 L -153.158 78.164 L -148.718 78.724 L -149.128 80.414 L -142.838 77.114 L -133.988 74.744 L -133.988 70.134 L -138.598 69.484 L -139.998 66.914 L -142.838 65.039 Z M -150.448 57.795 L -149.038 57.8 L -147.938 59.239 L -146.388 59.239 L -148.268 56.179 L -150.038 56.179 L -150.448 57.795 Z M -159.428 49.254 L -162.048 50.818 L -161.568 52.829 L -152.078 57.79 L -150.448 57.795 L -150.038 56.179 L -146.548 56.158 L -154.388 42.868 L -157.988 43.603 L -159.428 49.254 Z M -136.638 67.574 L -139.998 66.914 L -138.598 69.484 L -135.998 69.854 L -132.298 66.094 L -133.988 64.594 L -136.638 67.574 Z M -135.998 69.854 L -133.988 70.134 L -133.988 74.744 L -138.438 75.934 L -138.438 78.614 L -135.958 80.294 L -127.758 70.134 L -132.298 66.094 L -135.998 69.854 Z M -165.758 48.684 L -167.218 51.385 L -165.278 52.737 L -159.428 49.248 L -157.988 43.595 L -166.758 45.383 L -167.348 48.133 L -165.758 48.684 Z M -142.838 77.114 L -149.128 80.414 L -148.718 78.724 L -153.158 78.164 L -154.458 80.394 L -152.238 87.634 L -135.958 80.294 L -138.438 78.614 L -138.438 75.934 L -142.838 77.114 Z M -167.218 51.384 L -165.758 48.683 L -167.348 48.132 L -167.928 50.88 L -167.218 51.384 Z M -167.258 57.932 L -167.218 57.837 L -167.218 51.384 L -167.928 50.88 L -169.048 55.015 L -167.258 57.932 Z M -153.878 150.072 L -152.178 154.092 L -148.108 154.272 L -141.178 132.042 L -143.648 132.042 L -151.698 140.402 L -152.508 146.202 L -153.878 150.072 Z M -198.618 95.472 L -199.798 91.982 L -197.438 91.982 L -200.348 85.802 L -200.348 89.222 L -204.528 97.882 L -208.178 98.092 L -208.688 101.652 L -207.108 101.652 L -207.188 105.292 L -197.118 105.292 L -196.668 104.002 L -196.688 104.002 L -199.698 99.762 L -198.618 95.472 Z M -204.418 107.942 L -207.248 107.942 L -207.338 112.272 L -203.708 117.122 L -203.708 112.972 L -199.048 112.972 L -201.428 105.292 L -204.418 105.292 L -204.418 107.942 Z M -204.418 107.942 L -204.418 105.292 L -207.178 105.292 L -207.248 107.942 L -204.418 107.942 Z M -213.868 98.802 L -213.228 101.652 L -208.688 101.652 L -208.178 98.092 L -204.528 97.882 L -200.348 89.222 L -200.348 85.802 L -215.998 85.802 L -218.538 98.122 L -213.868 98.802 Z M -236.958 96.442 L -235.808 97.732 L -235.808 103.102 L -227.288 100.642 L -227.288 92.762 L -235.608 91.122 L -235.608 95.262 L -236.958 96.442 Z M -235.808 103.102 L -235.808 97.732 L -238.888 94.262 L -241.618 96.832 L -235.808 103.102 Z M -184.518 128.162 L -187.458 126.712 L -187.458 121.352 L -190.778 121.352 L -191.448 123.712 L -194.758 123.822 L -195.618 120.852 L -200.878 120.892 L -200.878 132.622 L -203.878 137.562 L -203.618 140.782 L -185.068 140.782 L -188.098 137.022 L -188.098 132.832 L -184.398 132.832 L -184.518 128.162 Z M -221.508 98.972 L -222.888 90.532 L -227.288 90.532 L -227.288 100.642 L -221.508 98.972 Z M -201.428 105.292 L -199.048 112.972 L -203.708 112.972 L -203.708 117.122 L -201.878 119.562 L -197.438 117.532 L -192.768 109.782 L -192.028 104.002 L -196.668 104.002 L -197.118 105.292 L -201.428 105.292 Z M -158.028 84.002 L -155.278 88.352 L -154.228 87.472 L -161.198 75.502 L -164.798 84.002 L -158.028 84.002 Z M -241.608 96.832 L -238.888 94.262 L -241.678 91.122 L -244.388 93.842 L -241.608 96.832 Z M -154.548 91.192 L -152.798 89.932 L -154.228 87.472 L -156.318 89.222 L -154.548 91.192 Z M -167.488 130.252 L -167.488 132.832 L -165.228 134.342 L -165.228 137.562 L -167.378 139.442 L -167.378 135.672 L -169.528 133.912 L -169.588 133.952 L -173.648 136.782 L -169.588 139.442 L -169.588 143.162 L -172.128 149.102 L -172.128 155.682 L -170.288 155.652 L -170.168 154.762 L -166.358 152.102 L -166.638 144.092 L -157.698 136.762 L -158.588 128.402 L -167.488 130.252 Z M -152.798 89.932 L -154.548 91.192 L -152.768 93.192 L -145.678 95.702 L -156.748 104.922 L -156.748 112.942 L -139.398 92.762 L -140.108 89.222 L -152.168 91.012 L -152.798 89.932 Z M -197.008 159.412 L -190.348 159.412 L -190.348 142.382 L -181.508 142.382 L -182.658 140.782 L -203.618 140.782 L -197.008 159.412 Z M -164.028 101.122 L -167.068 101.552 L -166.198 105.292 L -166.628 108.462 L -167.988 110.862 L -159.668 116.352 L -156.748 112.942 L -156.748 104.922 L -153.528 102.232 L -162.968 102.232 L -164.028 101.122 Z M -167.988 110.862 L -168.508 111.772 L -171.498 111.772 L -170.728 110.452 L -172.088 110.452 L -175.148 118.032 L -169.588 125.862 L -167.488 125.862 L -167.488 130.252 L -158.588 128.402 L -159.668 116.352 L -167.988 110.862 Z M -236.098 63.362 L -241.038 63.362 L -241.038 69.032 L -242.858 71.792 L -248.958 71.792 L -249.178 78.162 L -241.678 83.552 L -241.678 81.622 L -232.658 81.622 L -233.518 66.242 L -228.768 66.242 L -236.098 60.832 L -236.098 63.362 Z M -173.328 113.532 L -172.088 110.452 L -174.728 110.452 L -175.568 114.002 L -173.328 113.532 Z M -175.148 118.032 L -173.328 113.532 L -175.568 114.002 L -176.178 116.572 L -175.148 118.032 Z M -247.278 90.722 L -244.388 93.842 L -241.678 91.122 L -238.888 94.262 L -236.958 96.442 L -235.608 95.262 L -235.608 91.122 L -236.258 88.172 L -244.848 88.172 L -247.278 90.722 Z M -232.658 81.622 L -241.678 81.622 L -241.678 83.552 L -239.638 88.172 L -236.258 88.172 L -235.608 91.122 L -231.448 91.942 L -231.448 87.772 L -215.478 81.302 L -215.478 76.032 L -228.768 66.242 L -233.518 66.242 L -232.658 81.622 Z M -177.148 129.292 L -173.928 130.582 L -175.048 132.832 L -184.518 128.162 L -184.398 132.832 L -188.098 132.832 L -188.098 137.022 L -185.068 140.782 L -179.398 140.782 L -169.588 133.952 L -169.588 125.862 L -170.818 124.132 L -176.178 124.942 L -177.148 129.292 Z M -190.348 153.342 L -187.668 156.432 L -176.728 149.102 L -181.508 142.382 L -190.348 142.382 L -190.348 153.342 Z M -231.448 91.942 L -227.288 92.762 L -227.288 90.532 L -222.888 90.532 L -217.778 88.652 L -222.658 84.212 L -231.448 87.772 L -231.448 91.942 Z M -169.588 125.862 L -169.588 133.952 L -169.528 133.912 L -167.378 135.672 L -167.378 139.442 L -165.228 137.562 L -165.228 134.342 L -167.488 132.832 L -167.488 125.862 L -169.588 125.862 Z M -155.278 88.352 L -158.028 84.002 L -164.798 84.002 L -169.588 95.312 L -162.968 102.232 L -153.528 102.232 L -145.678 95.702 L -152.768 93.192 L -156.318 89.222 L -155.278 88.352 Z M -174.728 110.452 L -170.728 110.452 L -169.588 108.462 L -166.628 108.462 L -166.198 105.292 L -167.068 101.552 L -172.798 102.352 L -174.728 110.452 Z M -215.478 76.032 L -215.478 81.302 L -222.658 84.212 L -217.768 88.652 L -216.488 88.182 L -215.998 85.802 L -200.348 85.802 L -196.818 78.562 L -198.208 69.032 L -205.168 69.032 L -215.478 76.032 Z M -248.948 71.792 L -242.858 71.792 L -241.028 69.032 L -241.028 63.362 L -236.088 63.362 L -236.088 59.923 L -241.528 59.923 L -248.868 69.482 L -248.948 71.792 Z M -249.398 84.362 L -244.468 85.802 L -249.448 85.802 L -249.538 88.172 L -239.638 88.172 L -241.678 83.552 L -249.178 78.162 L -249.398 84.362 Z M -244.468 85.802 L -249.398 84.362 L -249.448 85.802 L -244.468 85.802 Z M -196.828 78.562 L -200.348 85.802 L -197.438 91.982 L -199.798 91.982 L -198.618 95.472 L -186.938 89.952 L -186.938 83.942 L -184.338 81.382 L -184.078 75.542 L -194.218 69.032 L -198.208 69.032 L -196.828 78.562 Z M -196.798 54.882 L -198.928 52.3 L -203.498 51.203 L -207.748 55.774 L -204.988 69.034 L -194.218 69.034 L -184.078 75.544 L -183.088 53.104 L -188.988 52.304 L -191.428 55.955 L -196.798 54.882 Z M -236.948 59.92 L -236.088 59.92 L -236.088 59.189 L -223.848 52.508 L -223.848 47.714 L -232.868 48.654 L -241.528 59.924 L -236.948 59.92 Z M -223.848 47.72 L -223.848 52.514 L -236.088 59.195 L -236.088 60.835 L -215.478 76.035 L -205.168 69.035 L -204.988 69.035 L -210.018 44.865 L -215.938 44.694 L -223.848 47.72 Z M -210.018 44.861 L -207.748 55.781 L -203.498 51.21 L -205.168 50.81 L -204.958 45.01 L -210.018 44.861 Z M -182.658 140.781 L -176.728 149.101 L -172.128 149.101 L -169.588 143.161 L -169.588 139.441 L -173.648 136.781 L -179.398 140.781 L -182.658 140.781 Z M -179.938 163.441 L -177.578 163.441 L -176.178 161.981 L -176.178 160.111 L -178.108 160.111 L -179.938 161.291 L -179.938 163.441 Z M -172.128 155.071 L -173.928 155.071 L -173.928 156.721 L -172.128 157.801 L -172.128 155.071 Z M -167.288 58.011 L -167.258 57.927 L -169.048 55.01 L -183.088 53.102 L -183.838 70.122 L -168.448 70.122 L -165.348 68.352 L -171.728 57.392 L -168.238 60.237 L -167.288 58.011 Z M -165.348 68.361 L -168.448 70.131 L -183.848 70.131 L -184.338 81.381 L -186.938 83.941 L -186.938 89.951 L -177.728 100.551 L -172.798 102.351 L -164.038 101.121 L -169.588 95.311 L -164.798 84.001 L -161.198 75.501 L -165.348 68.361 Z M -176.178 116.571 L -172.798 102.351 L -177.728 100.551 L -191.638 100.941 L -192.768 109.781 L -197.438 117.531 L -201.878 119.561 L -200.878 120.891 L -195.618 120.851 L -194.758 123.821 L -191.448 123.711 L -190.778 121.351 L -187.458 121.351 L -187.458 126.711 L -175.048 132.831 L -173.928 130.581 L -177.148 129.291 L -176.178 124.941 L -170.818 124.131 L -176.178 116.571 Z M -199.698 99.761 L -196.688 104.001 L -192.028 104.001 L -191.638 100.941 L -177.728 100.551 L -186.938 89.951 L -198.618 95.471 L -199.698 99.761 Z M -216.488 88.181 L -220.848 89.781 L -219.418 98.371 L -218.538 98.121 L -216.488 88.181 Z M -220.848 89.781 L -222.888 90.531 L -221.508 98.971 L -219.418 98.371 L -220.848 89.781 Z M -247.278 90.721 L -244.848 88.171 L -249.528 88.171 L -249.538 88.281 L -247.278 90.721 Z M -383.578 -9.579 L -387.228 -11.083 L -406.338 -10.975 L -414.068 -7.861 L -414.068 -4.425 L -422.764 -4.532 L -424.414 -2.229 L -417.075 -2.493 L -426.523 1.051 L -431.088 7.236 L -427.167 7.171 L -434.684 12.11 L -431.936 12.325 L -417.546 5.454 L -400.936 4.874 L -395.89 9.921 L -393.984 7.869 L -395.649 6.15 L -397.527 6.15 L -399.361 4.048 L -383.571 -9.582 L -383.578 -9.579 Z M -396.068 22.381 L -398.699 20.233 L -399.827 21.2 L -397.993 23.598 L -396.068 23.598 L -396.068 22.381 Z M -295.268 25.706 L -297.238 22.568 L -299.018 22.143 L -299.018 19.892 L -304.748 25.706 L -295.268 25.706 Z M -298.268 -10.614 L -309.808 -15.327 L -311.528 -15.345 L -315.538 -12.051 L -314.198 -15.365 L -316.138 -15.38 L -320.808 -10.415 L -309.458 -11.032 L -302.528 -4.831 L -307.188 -4.911 L -309.538 -2.986 L -314.828 -2.986 L -314.828 -1.474 L -309.458 -1.474 L -304.908 2.289 L -303.668 1.747 L -304.748 -0.643 L -301.618 0.847 L -300.598 0.404 L -300.598 -4.267 L -296.998 -2.986 L -294.928 -4.367 L -296.098 -6.552 L -298.178 -7.31 L -298.268 -10.614 Z M -337.128 31.516 L -333.798 31.516 L -331.488 29.934 L -324.028 29.934 L -320.808 27.142 L -317.908 27.142 L -318.958 30.446 L -313.808 29.558 L -317.188 31.168 L -316.868 32.565 L -307.688 29.34 L -312.168 29.127 L -314.258 27.244 L -312.188 24.034 L -313.198 23.07 L -319.688 26.015 L -319.688 24.324 L -313.478 21.344 L -303.528 20.915 L -296.048 16.934 L -296.008 15.117 L -301.458 14.173 L -302.118 5.263 L -309.248 8.069 L -309.198 3.877 L -312.638 0.951 L -317.308 0.951 L -329.938 19.331 L -332.998 19.341 L -332.938 13.296 L -343.818 7.391 L -332.938 -0.662 L -326.768 -1.788 L -328.058 -3.696 L -318.558 -4.743 L -314.688 -8.769 L -318.318 -9.171 L -323.308 -5.87 L -322.748 -8.688 L -325.078 -8.93 L -325.628 -12.335 L -329.668 -10.541 L -328.618 -8.366 L -334.018 -5.79 L -343.438 -7.561 L -348.418 -5.226 L -360.508 -10.057 L -383.618 -9.574 L -399.408 4.056 L -397.574 6.158 L -395.696 6.158 L -394.031 7.877 L -395.937 9.929 L -397.87 18.775 L -394.407 21.916 L -394.407 23.607 L -355.587 23.607 L -351.027 25.688 L -343.307 24.049 L -342.337 27.472 L -340.777 28.624 L -338.157 28.439 L -337.128 31.516 Z M -323.198 -2.984 L -326.158 -0.577 L -320.308 0.042 L -319.688 -1.472 L -323.198 -2.984 Z M -334.618 -9.107 L -333.528 -7.7 L -330.768 -9.107 L -331.588 -10.413 L -334.618 -9.107 Z M -332.528 -13.833 L -330.768 -12.049 L -326.988 -13.311 L -325.998 -15.953 L -332.528 -13.833 Z M -325.318 -14.895 L -324.838 -13.204 L -319.688 -14.573 L -320.728 -15.953 L -325.318 -14.895 Z M -312.188 -18.398 L -315.008 -19.566 L -317.748 -17.231 L -306.638 -16.356 L -303.738 -18.398 L -312.188 -18.398 Z M -285.138 -24.639 L -279.338 -27.912 L -302.368 -26.204 L -302.368 -24.961 L -294.598 -25.122 L -295.688 -23.672 L -303.738 -23.512 L -302.688 -21.659 L -306.158 -22.223 L -304.788 -20.452 L -310.748 -20.452 L -309.858 -19.566 L -303.338 -19.566 L -302.288 -18.68 L -292.788 -23.109 L -285.138 -24.639 Z M -313.318 -23.295 L -309.028 -22.484 L -306.568 -24.059 L -308.348 -25.388 L -313.318 -23.295 Z M -358.628 -12.045 L -348.548 -15.474 L -350.868 -16.549 L -360.398 -14.122 L -358.628 -12.045 Z M -347.248 -14.848 L -352.679 -13.001 L -349.478 -11.653 L -354.471 -10.381 L -348.268 -7.965 L -343.998 -9.818 L -339.248 -8.69 L -335.688 -9.507 L -339.168 -11.114 L -336.488 -14.574 L -339.168 -14.574 L -340.778 -12.492 L -341.428 -14.574 L -344.268 -13.472 L -347.248 -14.848 Z M -355.115 69.982 L -350.168 69.982 L -346.178 72.642 L -347.698 74.332 L -340.778 74.332 L -349.048 68.372 L -353.424 68.372 L -355.115 69.982 Z M -348.188 77.392 L -347.148 78.282 L -344.168 78.282 L -344.168 77.232 L -345.208 76.182 L -348.188 76.182 L -348.188 77.392 Z M -329.838 76.572 L -330.448 77.582 L -328.778 77.582 L -328.168 76.572 L -329.838 76.572 Z M -366.628 80.892 L -369.446 80.892 L -370.784 83.272 L -366.794 85.282 L -364.091 80.402 L -364.615 77.802 L -367.03 77.802 L -366.628 80.892 Z M -363.487 84.842 L -363.972 86.552 L -363.246 86.882 L -356.581 81.302 L -364.613 81.382 L -365.938 83.752 L -363.487 84.842 Z M -363.972 86.552 L -363.487 84.842 L -365.938 83.752 L -366.794 85.282 L -363.972 86.552 Z M -361.474 75.462 L -364.615 77.802 L -364.091 80.402 L -361.474 75.462 Z M -360.71 90.302 L -356.365 90.762 L -356.581 81.302 L -363.246 86.882 L -360.71 90.302 Z M -353.71 116.642 L -350.155 118.342 L -343.815 110.562 L -350.275 106.872 L -353.34 110.732 L -353.71 116.642 Z M -340.65 89.102 L -342.37 89.092 L -345.96 93.942 L -347.79 94.062 L -347.27 95.822 L -348.23 97.182 L -347.49 99.642 L -348.19 104.232 L -350.28 106.872 L -335.52 115.302 L -335.52 105.842 L -332.09 105.612 L -332.09 98.102 L -337.72 97.522 L -340.17 94.812 L -340.65 89.102 Z M -317.21 203.902 L -315.01 205.922 L -308.23 206.172 L -315.55 202.352 L -317.21 203.902 Z M -306.79 155.152 L -309.75 156.952 L -313.73 156.952 L -313.73 153.412 L -321.86 147.912 L -322.32 148.752 L -329.1 148.752 L -330.92 165.652 L -327.09 182.402 L -323.63 188.562 L -323.47 193.182 L -318.33 201.052 L -316.46 201.242 L -317.43 181.112 L -306.53 176.392 L -311.47 169.512 L -311.47 161.942 L -306.66 157.002 L -306.79 155.152 Z M -305.59 171.672 L -303.23 167.582 L -311.47 161.942 L -311.47 169.512 L -305.59 171.672 Z M -328.54 91.782 L -332.19 89.182 L -340.65 89.102 L -340.17 94.812 L -337.72 97.522 L -332.09 98.102 L -332.09 105.612 L -331.19 105.552 L -330.05 108.102 L -326.39 106.922 L -326.69 102.962 L -321.79 101.162 L -320.34 94.002 L -321.99 92.422 L -328.54 91.782 Z M -360.72 90.302 L -357.827 94.212 L -356.783 94.582 L -355.317 92.682 L -356.344 92.112 L -356.375 90.762 L -360.72 90.302 Z M -315.24 98.862 L -320.35 94.002 L -321.8 101.162 L -319.67 100.382 L -319.96 106.492 L -315.07 105.942 L -316.74 101.662 L -315.24 98.862 Z M -327.88 128.352 L -332.87 129.762 L -332.87 141.172 L -329.11 148.752 L -322.33 148.752 L -319.69 143.912 L -314.58 143.882 L -314.7 140.062 L -323.4 132.952 L -327.88 128.352 Z M -310.68 105.462 L -307.4 105.092 L -306.43 102.342 L -307.72 99.512 L -310.46 99.282 L -310.68 105.462 Z M -314.58 143.882 L -319.69 143.912 L -321.87 147.912 L -313.74 153.412 L -313.74 156.952 L -309.76 156.952 L -306.8 155.152 L -307 152.352 L -314.44 148.382 L -314.58 143.882 Z M -315.07 105.942 L -310.68 105.462 L -310.46 99.282 L -315.24 98.862 L -316.74 101.662 L -315.07 105.942 Z M -294.52 112.072 L -298.24 110.462 L -301.96 112.642 L -300.75 109.382 L -303.22 108.312 L -306.73 111.012 L -304.18 107.252 L -306.43 102.342 L -307.4 105.092 L -319.96 106.492 L -319.67 100.382 L -321.8 101.162 L -326.7 102.962 L -326.4 106.922 L -330.06 108.102 L -331.2 105.552 L -335.53 105.842 L -335.53 117.012 L -339.93 117.552 L -341.87 123.882 L -334.51 130.222 L -327.88 128.352 L -323.4 132.952 L -314.7 140.062 L -314.44 148.382 L -307 152.352 L -306.67 157.002 L -311.48 161.942 L -303.24 167.582 L -298.44 159.212 L -297.31 151.962 L -285.65 146.802 L -283.48 130.682 L -278.45 124.102 L -278.45 120.122 L -286.68 114.762 L -294.73 114.272 L -294.52 112.072 Z M -352.14 92.542 L -353.506 93.682 L -355.318 92.682 L -356.784 94.582 L -352.471 96.122 L -351.426 94.562 L -348.956 94.802 L -348.236 97.182 L -347.276 95.822 L -347.726 94.172 L -348.266 92.202 L -352.14 92.542 Z M -339.93 117.552 L -335.53 117.012 L -335.53 115.302 L -343.83 110.562 L -350.17 118.342 L -353.725 116.642 L -353.839 118.462 L -343.039 136.852 L -333.709 143.102 L -332.869 141.172 L -332.869 129.762 L -334.509 130.222 L -341.869 123.882 L -339.93 117.552 Z M -327.1 182.402 L -330.93 165.652 L -329.11 148.752 L -332.87 141.172 L -333.71 143.102 L -332.14 181.352 L -328.01 184.692 L -327.82 191.552 L -320.66 200.812 L -318.34 201.052 L -323.48 193.182 L -323.64 188.562 L -327.1 182.402 Z M -332.1 75.202 L -336.97 74.662 L -336.97 77.352 L -335.34 76.142 L -332.74 76.142 L -332.1 75.202 Z M -336.97 76.692 L -336.97 74.662 L -340.01 74.662 L -339.02 76.062 L -340.79 76.062 L -340.79 76.692 L -336.97 76.692 Z M -17.27 94.022" id="path13056" style="stroke: rgb(130, 179, 102); fill: rgb(130, 179, 102);"/>
    <path d="M 29.322 180.217 L 28.322 183.417 L 35.622 178.217 L 33.522 175.417 L 33.522 172.217 L 32.322 172.717 L 32.322 177.217 L 29.322 180.217 Z M 10.122 190.717 L 25.322 183.017 L 25.322 185.017 L 13.622 192.717 L 10.122 190.717 Z M -52.178 151.217 L -39.378 145.217 L -29.878 134.717 L -24.678 137.017 L -22.378 132.217 L -13.678 132.017 L -15.878 136.017 L -8.678 142.217 L -3.878 137.417 L -3.878 130.717 L -1.678 131.417 L 0.822 143.417 L 8.622 154.417 L 7.822 162.717 L -6.378 177.417 L -18.678 176.717 L -20.178 168.417 L -24.378 170.217 L -28.378 166.717 L -52.678 172.017 L -54.178 170.217 L -52.178 165.417 L -52.178 151.217 Z" id="path13058" style="stroke: rgb(130, 179, 102); fill: rgb(130, 179, 102);"/>
  </g>
</svg>