<?xml version="1.0" encoding="utf-8"?>
<svg version="1.1" id="Layer_1" width="567" height="558" viewBox="0 0 567 558" overflow="visible" enable-background="new 0 0 567 558" xmlns="http://www.w3.org/2000/svg" xmlns:bx="https://boxy-svg.com">
  <defs>
    <style bx:fonts="'Open Sans', sans-serif">@import url(https://fonts.googleapis.com/css2?family=Lora:ital,wght@0,400;0,600;0,700;1,400;1,600;1,700&amp;family=Open+Sans:wght@400;700;800&amp;display=swap);</style>
  </defs>
  <polyline stroke-width="10" stroke-linecap="round" stroke-linejoin="round" points="90,90 153,90&#10;&#9;90,153 153,153 216,90 279,90 216,153 279,153 90,216 153,216 90,279 153,279 216,216 279,216 216,279 279,279 351,90 405,90&#10;&#9;342,153 405,153 468,90 531,90 468,153 531,153 342,216 405,216 342,279 405,279 468,216 531,216 468,279 531,279 90,342 153,342&#10;&#9;90,405 153,405 216,342 279,342 216,405 279,405 90,468 153,468 90,531 153,531 216,468 279,468 216,531 279,531 342,342 405,342&#10;&#9;342,405 405,405 468,342 531,342 468,405 531,405 342,468 405,468 342,531 405,531 468,468 531,468 468,531 531,531 " style="paint-order: stroke;" fill="none" stroke="#E6E6F0"/>
  <line fill="none" x1="311" y1="0" x2="311" y2="558" style="stroke: rgb(224, 224, 224); stroke-dasharray: 4;"/>
  <line fill="none" x1="0" y1="311" x2="567" y2="311" style="stroke: rgb(224, 224, 224); stroke-dasharray: 4;"/>
  <line fill="none" stroke-dasharray="4" x1="185" y1="0" x2="185" y2="558" style="stroke: rgb(211, 211, 211);"/>
  <line fill="none" stroke-dasharray="4" x1="437" y1="0" x2="437" y2="558" style="stroke: rgb(211, 211, 211);"/>
  <line fill="none" stroke-dasharray="4" x1="0" y1="185" x2="567" y2="185" style="stroke: rgb(211, 211, 211);"/>
  <line fill="none" stroke-dasharray="4" x1="0" y1="437" x2="567" y2="437" style="stroke: rgb(211, 211, 211);"/>
  <rect x="122.875" y="252.909" width="182.32" height="124.342" style="paint-order: fill; stroke-width: 2px; stroke: rgba(47, 145, 179, 0); fill-rule: evenodd; fill: rgba(131, 217, 240, 0.165); visibility: hidden;"/>
  <path style="fill: rgba(216, 216, 216, 0); stroke-width: 8px; stroke-linejoin: round; paint-order: fill; stroke: rgb(154, 241, 147); visibility: hidden;" d="M 123.427 278.581 L 151.85 278.78 L 179.368 252.662"/>
  <path style="fill: rgba(216, 216, 216, 0); stroke-width: 8px; stroke-linejoin: round; stroke-linecap: square; stroke: rgb(154, 241, 147); visibility: hidden;" d="M 241.537 253.483 L 215.291 279.329 L 278.906 279.186 L 289.954 252.861"/>
  <path style="stroke-width: 8px; stroke-linejoin: round; stroke-linecap: square; stroke: rgb(154, 241, 147); fill: rgba(216, 216, 216, 0); visibility: hidden;" d="M 123.613 371.309 L 152.535 343.714 L 123.243 343.087"/>
  <path style="stroke-width: 8px; stroke-linejoin: round; stroke-linecap: square; fill: rgba(216, 216, 216, 0); stroke: rgb(154, 241, 147); visibility: hidden;" d="M 181.527 376.497 L 215.685 341.223 L 279.079 341.657 L 245.056 375.9"/>
  <path style="fill: rgba(216, 216, 216, 0); stroke-width: 8px; stroke-linejoin: round; stroke: rgb(254, 149, 149); visibility: hidden;" d="M 291.095 249.511 L 350.382 89.351 L 404.93 90.143 L 340.939 153.588 L 406.264 153.111 L 467.745 89.774 L 531.345 89.613 L 468.337 153.684 L 530.796 152.589 L 340.568 216.188 L 405.37 215.546 L 342.332 278.914 L 405.354 278.185 L 467.374 215.835 L 532.108 215.202 L 466.567 279.53 L 530.484 278.653 L 90.198 341.58 L 119.61 343.106"/>
  <path style="stroke-linejoin: round; fill: rgba(216, 216, 216, 0); stroke-width: 8px; stroke: rgb(254, 149, 149); visibility: hidden;" d="M 179.428 252.517 L 215.317 216.361 L 277.81 216.385 L 244.412 250.643"/>
  <path style="fill: rgba(216, 216, 216, 0); stroke-width: 8px; stroke: rgb(254, 149, 149); visibility: hidden;" d="M 120.698 373.939 L 90.537 404.439 L 152.799 405.248 L 178.962 379.192"/>
  <rect x="256.976" y="372.058" width="93.707" height="9.849" style="stroke: rgb(71, 205, 65); paint-order: fill; stroke-opacity: 0; fill: rgb(147, 230, 140); transform-box: fill-box; transform-origin: 50% 50%;" rx="4.924" ry="4.924" transform="matrix(0.692517, -0.721402, 0.721402, 0.692517, -56.980897, -3.510687)"/>
  <rect x="211.257" y="400.652" width="68.797" height="9.849" style="stroke: rgb(71, 205, 65); paint-order: fill; stroke-opacity: 0; fill: rgb(147, 230, 140);" rx="4.924" ry="4.924"/>
  <rect x="184.303" y="311.439" width="126.664" height="125.63" style="paint-order: fill; stroke-width: 2px; stroke: rgba(47, 145, 179, 0); fill-rule: evenodd; fill: rgba(131, 217, 240, 0.165);"/>
  <rect x="216.488" y="336.879" width="68.797" height="9.849" style="stroke: rgb(71, 205, 65); paint-order: fill; stroke-opacity: 0; fill: rgb(147, 230, 140);" rx="4.924" ry="4.924"/>
  <text transform="matrix(1 0 0 1 0 86)" style="fill: rgb(191, 0, 0); font-family: 'Open Sans', sans-serif; font-weight: 500; white-space: pre;">y:</text>
  <text style="fill: rgb(191, 0, 0); font-family: 'Open Sans', sans-serif; font-weight: 500; white-space: pre;" transform="matrix(1 0 0 1 23 85.9995)">0</text>
  <text style="fill: rgb(191, 0, 0); font-family: 'Open Sans', sans-serif; font-weight: 500; white-space: pre;" transform="matrix(1 0 0 1 15 103.9995)">000</text>
  <text style="fill: rgb(191, 0, 0); font-family: 'Open Sans', sans-serif; font-weight: 500; white-space: pre;" transform="matrix(1 0 0 1 23 148.999)">1</text>
  <text style="fill: rgb(191, 0, 0); font-family: 'Open Sans', sans-serif; font-weight: 500; white-space: pre;" transform="matrix(1 0 0 1 15 166.999)">001</text>
  <text style="fill: rgb(191, 0, 0); font-family: 'Open Sans', sans-serif; font-weight: 500; white-space: pre;" transform="matrix(1 0 0 1 23 211.9985)">2</text>
  <text style="fill: rgb(191, 0, 0); font-family: 'Open Sans', sans-serif; font-weight: 500; white-space: pre;" transform="matrix(1 0 0 1 15 229.9985)">010</text>
  <text style="fill: rgb(191, 0, 0); font-family: 'Open Sans', sans-serif; font-weight: 500; white-space: pre;" transform="matrix(1 0 0 1 23 275)">3</text>
  <text style="fill: rgb(191, 0, 0); font-family: 'Open Sans', sans-serif; font-weight: 500; white-space: pre;" transform="matrix(1 0 0 1 15 293)">011</text>
  <text style="fill: rgb(191, 0, 0); font-family: 'Open Sans', sans-serif; font-weight: 500; white-space: pre;" transform="matrix(1 0 0 1 23 338)">4</text>
  <text style="fill: rgb(191, 0, 0); font-family: 'Open Sans', sans-serif; font-weight: 500; white-space: pre;" transform="matrix(1 0 0 1 15 356)">100</text>
  <text style="fill: rgb(191, 0, 0); font-family: 'Open Sans', sans-serif; font-weight: 500; white-space: pre;" transform="matrix(1 0 0 1 22.9995 401)">5</text>
  <text style="fill: rgb(191, 0, 0); font-family: 'Open Sans', sans-serif; font-weight: 500; white-space: pre;" transform="matrix(1 0 0 1 14.9995 419)">101</text>
  <text style="fill: rgb(191, 0, 0); font-family: 'Open Sans', sans-serif; font-weight: 500; white-space: pre;" transform="matrix(1 0 0 1 22.9995 464)">6</text>
  <text style="fill: rgb(191, 0, 0); font-family: 'Open Sans', sans-serif; font-weight: 500; white-space: pre;" transform="matrix(1 0 0 1 14.9995 482)">110</text>
  <text style="fill: rgb(191, 0, 0); font-family: 'Open Sans', sans-serif; font-weight: 500; white-space: pre;" transform="matrix(1 0 0 1 23 527)">7</text>
  <text style="fill: rgb(191, 0, 0); font-family: 'Open Sans', sans-serif; font-weight: 500; white-space: pre;" transform="matrix(1 0 0 1 15 545)">111</text>
  <text style="font-family: 'Open Sans', sans-serif; font-weight: 500; white-space: pre;" transform="matrix(1 0 0 1 66 95)"><tspan x="0" y="0" style="fill: rgb(191, 0, 0);">0</tspan><tspan x="8" y="0" style="fill: rgb(0, 96, 182);">0</tspan><tspan x="16" y="0" style="fill: rgb(191, 0, 0);">0</tspan><tspan x="24" y="0" style="fill: rgb(0, 96, 182);">0</tspan><tspan x="32" y="0" style="fill: rgb(191, 0, 0);">0</tspan><tspan x="40" y="0" style="fill: rgb(0, 96, 182);">0</tspan></text>
  <text style="font-family: 'Open Sans', sans-serif; font-weight: 500; white-space: pre;" transform="matrix(1 0 0 1 129 95)"><tspan x="0" y="0" style="fill: rgb(191, 0, 0);">0</tspan><tspan x="8" y="0" style="fill: rgb(0, 96, 182);">0</tspan><tspan x="16" y="0" style="fill: rgb(191, 0, 0);">0</tspan><tspan x="24" y="0" style="fill: rgb(0, 96, 182);">0</tspan><tspan x="32" y="0" style="fill: rgb(191, 0, 0);">0</tspan><tspan x="40" y="0" style="fill: rgb(0, 96, 182);">1</tspan></text>
  <text style="font-family: 'Open Sans', sans-serif; font-weight: 500; white-space: pre;" transform="matrix(1 0 0 1 66 157.9995)"><tspan x="0" y="0" style="fill: rgb(191, 0, 0);">0</tspan><tspan x="8" y="0" style="fill: rgb(0, 96, 182);">0</tspan><tspan x="16" y="0" style="fill: rgb(191, 0, 0);">0</tspan><tspan x="24" y="0" style="fill: rgb(0, 96, 182);">0</tspan><tspan x="32" y="0" style="fill: rgb(191, 0, 0);">1</tspan><tspan x="40" y="0" style="fill: rgb(0, 96, 182);">0</tspan></text>
  <text style="font-family: 'Open Sans', sans-serif; font-weight: 500; white-space: pre;" transform="matrix(1 0 0 1 129 157.9995)"><tspan x="0" y="0" style="fill: rgb(191, 0, 0);">0</tspan><tspan x="8" y="0" style="fill: rgb(0, 96, 182);">0</tspan><tspan x="16" y="0" style="fill: rgb(191, 0, 0);">0</tspan><tspan x="24" y="0" style="fill: rgb(0, 96, 182);">0</tspan><tspan x="32" y="0" style="fill: rgb(191, 0, 0);">1</tspan><tspan x="40" y="0" style="fill: rgb(0, 96, 182);">1</tspan></text>
  <text style="font-family: 'Open Sans', sans-serif; font-weight: 500; white-space: pre;" transform="matrix(1 0 0 1 192 95)"><tspan x="0" y="0" style="fill: rgb(191, 0, 0);">0</tspan><tspan x="8" y="0" style="fill: rgb(0, 96, 182);">0</tspan><tspan x="16" y="0" style="fill: rgb(191, 0, 0);">0</tspan><tspan x="24" y="0" style="fill: rgb(0, 96, 182);">1</tspan><tspan x="32" y="0" style="fill: rgb(191, 0, 0);">0</tspan><tspan x="40" y="0" style="fill: rgb(0, 96, 182);">0</tspan></text>
  <text style="font-family: 'Open Sans', sans-serif; font-weight: 500; white-space: pre;" transform="matrix(1 0 0 1 255 95)"><tspan x="0" y="0" style="fill: rgb(191, 0, 0);">0</tspan><tspan x="8" y="0" style="fill: rgb(0, 96, 182);">0</tspan><tspan x="16" y="0" style="fill: rgb(191, 0, 0);">0</tspan><tspan x="24" y="0" style="fill: rgb(0, 96, 182);">1</tspan><tspan x="32" y="0" style="fill: rgb(191, 0, 0);">0</tspan><tspan x="40" y="0" style="fill: rgb(0, 96, 182);">1</tspan></text>
  <text style="font-family: 'Open Sans', sans-serif; font-weight: 500; white-space: pre;" transform="matrix(1 0 0 1 192 157.9995)"><tspan x="0" y="0" style="fill: rgb(191, 0, 0);">0</tspan><tspan x="8" y="0" style="fill: rgb(0, 96, 182);">0</tspan><tspan x="16" y="0" style="fill: rgb(191, 0, 0);">0</tspan><tspan x="24" y="0" style="fill: rgb(0, 96, 182);">1</tspan><tspan x="32" y="0" style="fill: rgb(191, 0, 0);">1</tspan><tspan x="40" y="0" style="fill: rgb(0, 96, 182);">0</tspan></text>
  <text style="font-family: 'Open Sans', sans-serif; font-weight: 500; white-space: pre;" transform="matrix(1 0 0 1 255 157.9995)"><tspan x="0" y="0" style="fill: rgb(191, 0, 0);">0</tspan><tspan x="8" y="0" style="fill: rgb(0, 96, 182);">0</tspan><tspan x="16" y="0" style="fill: rgb(191, 0, 0);">0</tspan><tspan x="24" y="0" style="fill: rgb(0, 96, 182);">1</tspan><tspan x="32" y="0" style="fill: rgb(191, 0, 0);">1</tspan><tspan x="40" y="0" style="fill: rgb(0, 96, 182);">1</tspan></text>
  <text style="font-family: 'Open Sans', sans-serif; font-weight: 500; white-space: pre;" transform="matrix(1 0 0 1 66 220.999)"><tspan x="0" y="0" style="fill: rgb(191, 0, 0);">0</tspan><tspan x="8" y="0" style="fill: rgb(0, 96, 182);">0</tspan><tspan x="16" y="0" style="fill: rgb(191, 0, 0);">1</tspan><tspan x="24" y="0" style="fill: rgb(0, 96, 182);">0</tspan><tspan x="32" y="0" style="fill: rgb(191, 0, 0);">0</tspan><tspan x="40" y="0" style="fill: rgb(0, 96, 182);">0</tspan></text>
  <text style="font-family: 'Open Sans', sans-serif; font-weight: 500; white-space: pre;" transform="matrix(1 0 0 1 129 220.999)"><tspan x="0" y="0" style="fill: rgb(191, 0, 0);">0</tspan><tspan x="8" y="0" style="fill: rgb(0, 96, 182);">0</tspan><tspan x="16" y="0" style="fill: rgb(191, 0, 0);">1</tspan><tspan x="24" y="0" style="fill: rgb(0, 96, 182);">0</tspan><tspan x="32" y="0" style="fill: rgb(191, 0, 0);">0</tspan><tspan x="40" y="0" style="fill: rgb(0, 96, 182);">1</tspan></text>
  <text style="font-family: 'Open Sans', sans-serif; font-weight: 500; white-space: pre;" transform="matrix(1 0 0 1 66 284)"><tspan x="0" y="0" style="fill: rgb(191, 0, 0);">0</tspan><tspan x="8" y="0" style="fill: rgb(0, 96, 182);">0</tspan><tspan x="16" y="0" style="fill: rgb(191, 0, 0);">1</tspan><tspan x="24" y="0" style="fill: rgb(0, 96, 182);">0</tspan><tspan x="32" y="0" style="fill: rgb(191, 0, 0);">1</tspan><tspan x="40" y="0" style="fill: rgb(0, 96, 182);">0</tspan></text>
  <text style="font-family: 'Open Sans', sans-serif; font-weight: 500; white-space: pre;" transform="matrix(1 0 0 1 129 284)"><tspan x="0" y="0" style="fill: rgb(191, 0, 0);">0</tspan><tspan x="8" y="0" style="fill: rgb(0, 96, 182);">0</tspan><tspan x="16" y="0" style="fill: rgb(191, 0, 0);">1</tspan><tspan x="24" y="0" style="fill: rgb(0, 96, 182);">0</tspan><tspan x="32" y="0" style="fill: rgb(191, 0, 0);">1</tspan><tspan x="40" y="0" style="fill: rgb(0, 96, 182);">1</tspan></text>
  <text style="font-family: 'Open Sans', sans-serif; font-weight: 500; white-space: pre;" transform="matrix(1 0 0 1 192 220.999)"><tspan x="0" y="0" style="fill: rgb(191, 0, 0);">0</tspan><tspan x="8" y="0" style="fill: rgb(0, 96, 182);">0</tspan><tspan x="16" y="0" style="fill: rgb(191, 0, 0);">1</tspan><tspan x="24" y="0" style="fill: rgb(0, 96, 182);">1</tspan><tspan x="32" y="0" style="fill: rgb(191, 0, 0);">0</tspan><tspan x="40" y="0" style="fill: rgb(0, 96, 182);">0</tspan></text>
  <text style="font-family: 'Open Sans', sans-serif; font-weight: 500; white-space: pre;" transform="matrix(1 0 0 1 255 220.999)"><tspan x="0" y="0" style="fill: rgb(191, 0, 0);">0</tspan><tspan x="8" y="0" style="fill: rgb(0, 96, 182);">0</tspan><tspan x="16" y="0" style="fill: rgb(191, 0, 0);">1</tspan><tspan x="24" y="0" style="fill: rgb(0, 96, 182);">1</tspan><tspan x="32" y="0" style="fill: rgb(191, 0, 0);">0</tspan><tspan x="40" y="0" style="fill: rgb(0, 96, 182);">1</tspan></text>
  <text style="font-family: 'Open Sans', sans-serif; font-weight: 500; white-space: pre;" transform="matrix(1 0 0 1 192 284)"><tspan x="0" y="0" style="fill: rgb(191, 0, 0);">0</tspan><tspan x="8" y="0" style="fill: rgb(0, 96, 182);">0</tspan><tspan x="16" y="0" style="fill: rgb(191, 0, 0);">1</tspan><tspan x="24" y="0" style="fill: rgb(0, 96, 182);">1</tspan><tspan x="32" y="0" style="fill: rgb(191, 0, 0);">1</tspan><tspan x="40" y="0" style="fill: rgb(0, 96, 182);">0</tspan></text>
  <text style="font-family: 'Open Sans', sans-serif; font-weight: 500; white-space: pre;" transform="matrix(1 0 0 1 255 284)"><tspan x="0" y="0" style="fill: rgb(191, 0, 0);">0</tspan><tspan x="8" y="0" style="fill: rgb(0, 96, 182);">0</tspan><tspan x="16" y="0" style="fill: rgb(191, 0, 0);">1</tspan><tspan x="24" y="0" style="fill: rgb(0, 96, 182);">1</tspan><tspan x="32" y="0" style="fill: rgb(191, 0, 0);">1</tspan><tspan x="40" y="0" style="fill: rgb(0, 96, 182);">1</tspan></text>
  <text style="font-family: 'Open Sans', sans-serif; font-weight: 500; white-space: pre;" transform="matrix(1 0 0 1 318 95)"><tspan x="0" y="0" style="fill: rgb(191, 0, 0);">0</tspan><tspan x="8" y="0" style="fill: rgb(0, 96, 182);">1</tspan><tspan x="16" y="0" style="fill: rgb(191, 0, 0);">0</tspan><tspan x="24" y="0" style="fill: rgb(0, 96, 182);">0</tspan><tspan x="32" y="0" style="fill: rgb(191, 0, 0);">0</tspan><tspan x="40" y="0" style="fill: rgb(0, 96, 182);">0</tspan></text>
  <text style="font-family: 'Open Sans', sans-serif; font-weight: 500; white-space: pre;" transform="matrix(1 0 0 1 381 95)"><tspan x="0" y="0" style="fill: rgb(191, 0, 0);">0</tspan><tspan x="8" y="0" style="fill: rgb(0, 96, 182);">1</tspan><tspan x="16" y="0" style="fill: rgb(191, 0, 0);">0</tspan><tspan x="24" y="0" style="fill: rgb(0, 96, 182);">0</tspan><tspan x="32" y="0" style="fill: rgb(191, 0, 0);">0</tspan><tspan x="40" y="0" style="fill: rgb(0, 96, 182);">1</tspan></text>
  <text style="font-family: 'Open Sans', sans-serif; font-weight: 500; white-space: pre;" transform="matrix(1 0 0 1 318 157.9995)"><tspan x="0" y="0" style="fill: rgb(191, 0, 0);">0</tspan><tspan x="8" y="0" style="fill: rgb(0, 96, 182);">1</tspan><tspan x="16" y="0" style="fill: rgb(191, 0, 0);">0</tspan><tspan x="24" y="0" style="fill: rgb(0, 96, 182);">0</tspan><tspan x="32" y="0" style="fill: rgb(191, 0, 0);">1</tspan><tspan x="40" y="0" style="fill: rgb(0, 96, 182);">0</tspan></text>
  <text style="font-family: 'Open Sans', sans-serif; font-weight: 500; white-space: pre;" transform="matrix(1 0 0 1 381 157.9995)"><tspan x="0" y="0" style="fill: rgb(191, 0, 0);">0</tspan><tspan x="8" y="0" style="fill: rgb(0, 96, 182);">1</tspan><tspan x="16" y="0" style="fill: rgb(191, 0, 0);">0</tspan><tspan x="24" y="0" style="fill: rgb(0, 96, 182);">0</tspan><tspan x="32" y="0" style="fill: rgb(191, 0, 0);">1</tspan><tspan x="40" y="0" style="fill: rgb(0, 96, 182);">1</tspan></text>
  <text style="font-family: 'Open Sans', sans-serif; font-weight: 500; white-space: pre;" transform="matrix(1 0 0 1 444 95)"><tspan x="0" y="0" style="fill: rgb(191, 0, 0);">0</tspan><tspan x="8" y="0" style="fill: rgb(0, 96, 182);">1</tspan><tspan x="16" y="0" style="fill: rgb(191, 0, 0);">0</tspan><tspan x="24" y="0" style="fill: rgb(0, 96, 182);">1</tspan><tspan x="32" y="0" style="fill: rgb(191, 0, 0);">0</tspan><tspan x="40" y="0" style="fill: rgb(0, 96, 182);">0</tspan></text>
  <text style="font-family: 'Open Sans', sans-serif; font-weight: 500; white-space: pre;" transform="matrix(1 0 0 1 507 95)"><tspan x="0" y="0" style="fill: rgb(191, 0, 0);">0</tspan><tspan x="8" y="0" style="fill: rgb(0, 96, 182);">1</tspan><tspan x="16" y="0" style="fill: rgb(191, 0, 0);">0</tspan><tspan x="24" y="0" style="fill: rgb(0, 96, 182);">1</tspan><tspan x="32" y="0" style="fill: rgb(191, 0, 0);">0</tspan><tspan x="40" y="0" style="fill: rgb(0, 96, 182);">1</tspan></text>
  <text style="font-family: 'Open Sans', sans-serif; font-weight: 500; white-space: pre;" transform="matrix(1 0 0 1 444 157.9995)"><tspan x="0" y="0" style="fill: rgb(191, 0, 0);">0</tspan><tspan x="8" y="0" style="fill: rgb(0, 96, 182);">1</tspan><tspan x="16" y="0" style="fill: rgb(191, 0, 0);">0</tspan><tspan x="24" y="0" style="fill: rgb(0, 96, 182);">1</tspan><tspan x="32" y="0" style="fill: rgb(191, 0, 0);">1</tspan><tspan x="40" y="0" style="fill: rgb(0, 96, 182);">0</tspan></text>
  <text style="font-family: 'Open Sans', sans-serif; font-weight: 500; white-space: pre;" transform="matrix(1 0 0 1 507 157.9995)"><tspan x="0" y="0" style="fill: rgb(191, 0, 0);">0</tspan><tspan x="8" y="0" style="fill: rgb(0, 96, 182);">1</tspan><tspan x="16" y="0" style="fill: rgb(191, 0, 0);">0</tspan><tspan x="24" y="0" style="fill: rgb(0, 96, 182);">1</tspan><tspan x="32" y="0" style="fill: rgb(191, 0, 0);">1</tspan><tspan x="40" y="0" style="fill: rgb(0, 96, 182);">1</tspan></text>
  <text style="font-family: 'Open Sans', sans-serif; font-weight: 500; white-space: pre;" transform="matrix(1 0 0 1 318 220.999)"><tspan x="0" y="0" style="fill: rgb(191, 0, 0);">0</tspan><tspan x="8" y="0" style="fill: rgb(0, 96, 182);">1</tspan><tspan x="16" y="0" style="fill: rgb(191, 0, 0);">1</tspan><tspan x="24" y="0" style="fill: rgb(0, 96, 182);">0</tspan><tspan x="32" y="0" style="fill: rgb(191, 0, 0);">0</tspan><tspan x="40" y="0" style="fill: rgb(0, 96, 182);">0</tspan></text>
  <text style="font-family: 'Open Sans', sans-serif; font-weight: 500; white-space: pre;" transform="matrix(1 0 0 1 381 220.999)"><tspan x="0" y="0" style="fill: rgb(191, 0, 0);">0</tspan><tspan x="8" y="0" style="fill: rgb(0, 96, 182);">1</tspan><tspan x="16" y="0" style="fill: rgb(191, 0, 0);">1</tspan><tspan x="24" y="0" style="fill: rgb(0, 96, 182);">0</tspan><tspan x="32" y="0" style="fill: rgb(191, 0, 0);">0</tspan><tspan x="40" y="0" style="fill: rgb(0, 96, 182);">1</tspan></text>
  <text style="font-family: 'Open Sans', sans-serif; font-weight: 500; white-space: pre;" transform="matrix(1 0 0 1 318 284)"><tspan x="0" y="0" style="fill: rgb(191, 0, 0);">0</tspan><tspan x="8" y="0" style="fill: rgb(0, 96, 182);">1</tspan><tspan x="16" y="0" style="fill: rgb(191, 0, 0);">1</tspan><tspan x="24" y="0" style="fill: rgb(0, 96, 182);">0</tspan><tspan x="32" y="0" style="fill: rgb(191, 0, 0);">1</tspan><tspan x="40" y="0" style="fill: rgb(0, 96, 182);">0</tspan></text>
  <text style="font-family: 'Open Sans', sans-serif; font-weight: 500; white-space: pre;" transform="matrix(1 0 0 1 381 284)"><tspan x="0" y="0" style="fill: rgb(191, 0, 0);">0</tspan><tspan x="8" y="0" style="fill: rgb(0, 96, 182);">1</tspan><tspan x="16" y="0" style="fill: rgb(191, 0, 0);">1</tspan><tspan x="24" y="0" style="fill: rgb(0, 96, 182);">0</tspan><tspan x="32" y="0" style="fill: rgb(191, 0, 0);">1</tspan><tspan x="40" y="0" style="fill: rgb(0, 96, 182);">1</tspan></text>
  <text style="font-family: 'Open Sans', sans-serif; font-weight: 500; white-space: pre;" transform="matrix(1 0 0 1 444 220.999)"><tspan x="0" y="0" style="fill: rgb(191, 0, 0);">0</tspan><tspan x="8" y="0" style="fill: rgb(0, 96, 182);">1</tspan><tspan x="16" y="0" style="fill: rgb(191, 0, 0);">1</tspan><tspan x="24" y="0" style="fill: rgb(0, 96, 182);">1</tspan><tspan x="32" y="0" style="fill: rgb(191, 0, 0);">0</tspan><tspan x="40" y="0" style="fill: rgb(0, 96, 182);">0</tspan></text>
  <text style="font-family: 'Open Sans', sans-serif; font-weight: 500; white-space: pre;" transform="matrix(1 0 0 1 507 220.999)"><tspan x="0" y="0" style="fill: rgb(191, 0, 0);">0</tspan><tspan x="8" y="0" style="fill: rgb(0, 96, 182);">1</tspan><tspan x="16" y="0" style="fill: rgb(191, 0, 0);">1</tspan><tspan x="24" y="0" style="fill: rgb(0, 96, 182);">1</tspan><tspan x="32" y="0" style="fill: rgb(191, 0, 0);">0</tspan><tspan x="40" y="0" style="fill: rgb(0, 96, 182);">1</tspan></text>
  <text style="font-family: 'Open Sans', sans-serif; font-weight: 500; white-space: pre;" transform="matrix(1 0 0 1 444 284)"><tspan x="0" y="0" style="fill: rgb(191, 0, 0);">0</tspan><tspan x="8" y="0" style="fill: rgb(0, 96, 182);">1</tspan><tspan x="16" y="0" style="fill: rgb(191, 0, 0);">1</tspan><tspan x="24" y="0" style="fill: rgb(0, 96, 182);">1</tspan><tspan x="32" y="0" style="fill: rgb(191, 0, 0);">1</tspan><tspan x="40" y="0" style="fill: rgb(0, 96, 182);">0</tspan></text>
  <text style="font-family: 'Open Sans', sans-serif; font-weight: 500; white-space: pre;" transform="matrix(1 0 0 1 507 284)"><tspan x="0" y="0" style="fill: rgb(191, 0, 0);">0</tspan><tspan x="8" y="0" style="fill: rgb(0, 96, 182);">1</tspan><tspan x="16" y="0" style="fill: rgb(191, 0, 0);">1</tspan><tspan x="24" y="0" style="fill: rgb(0, 96, 182);">1</tspan><tspan x="32" y="0" style="fill: rgb(191, 0, 0);">1</tspan><tspan x="40" y="0" style="fill: rgb(0, 96, 182);">1</tspan></text>
  <text style="font-family: 'Open Sans', sans-serif; font-weight: 500; white-space: pre;" transform="matrix(1 0 0 1 66 347)"><tspan x="0" y="0" style="fill: rgb(191, 0, 0);">1</tspan><tspan x="8" y="0" style="fill: rgb(0, 96, 182);">0</tspan><tspan x="16" y="0" style="fill: rgb(191, 0, 0);">0</tspan><tspan x="24" y="0" style="fill: rgb(0, 96, 182);">0</tspan><tspan x="32" y="0" style="fill: rgb(191, 0, 0);">0</tspan><tspan x="40" y="0" style="fill: rgb(0, 96, 182);">0</tspan></text>
  <text style="font-family: 'Open Sans', sans-serif; font-weight: 500; white-space: pre;" transform="matrix(1 0 0 1 129 347)"><tspan x="0" y="0" style="fill: rgb(191, 0, 0);">1</tspan><tspan x="8" y="0" style="fill: rgb(0, 96, 182);">0</tspan><tspan x="16" y="0" style="fill: rgb(191, 0, 0);">0</tspan><tspan x="24" y="0" style="fill: rgb(0, 96, 182);">0</tspan><tspan x="32" y="0" style="fill: rgb(191, 0, 0);">0</tspan><tspan x="40" y="0" style="fill: rgb(0, 96, 182);">1</tspan></text>
  <text style="font-family: 'Open Sans', sans-serif; font-weight: 500; white-space: pre;" transform="matrix(1 0 0 1 66 410)"><tspan x="0" y="0" style="fill: rgb(191, 0, 0);">1</tspan><tspan x="8" y="0" style="fill: rgb(0, 96, 182);">0</tspan><tspan x="16" y="0" style="fill: rgb(191, 0, 0);">0</tspan><tspan x="24" y="0" style="fill: rgb(0, 96, 182);">0</tspan><tspan x="32" y="0" style="fill: rgb(191, 0, 0);">1</tspan><tspan x="40" y="0" style="fill: rgb(0, 96, 182);">0</tspan></text>
  <text style="font-family: 'Open Sans', sans-serif; font-weight: 500; white-space: pre;" transform="matrix(1 0 0 1 129 410)"><tspan x="0" y="0" style="fill: rgb(191, 0, 0);">1</tspan><tspan x="8" y="0" style="fill: rgb(0, 96, 182);">0</tspan><tspan x="16" y="0" style="fill: rgb(191, 0, 0);">0</tspan><tspan x="24" y="0" style="fill: rgb(0, 96, 182);">0</tspan><tspan x="32" y="0" style="fill: rgb(191, 0, 0);">1</tspan><tspan x="40" y="0" style="fill: rgb(0, 96, 182);">1</tspan></text>
  <text style="font-family: 'Open Sans', sans-serif; font-weight: 500; white-space: pre;" transform="matrix(1 0 0 1 192 347)"><tspan x="0" y="0" style="fill: rgb(191, 0, 0);">1</tspan><tspan x="8" y="0" style="fill: rgb(0, 96, 182);">0</tspan><tspan x="16" y="0" style="fill: rgb(191, 0, 0);">0</tspan><tspan x="24" y="0" style="fill: rgb(0, 96, 182);">1</tspan><tspan x="32" y="0" style="fill: rgb(191, 0, 0);">0</tspan><tspan x="40" y="0" style="fill: rgb(0, 96, 182);">0</tspan></text>
  <text style="font-family: 'Open Sans', sans-serif; font-weight: 500; white-space: pre;" transform="matrix(1 0 0 1 255 347)"><tspan x="0" y="0" style="fill: rgb(191, 0, 0);">1</tspan><tspan x="8" y="0" style="fill: rgb(0, 96, 182);">0</tspan><tspan x="16" y="0" style="fill: rgb(191, 0, 0);">0</tspan><tspan x="24" y="0" style="fill: rgb(0, 96, 182);">1</tspan><tspan x="32" y="0" style="fill: rgb(191, 0, 0);">0</tspan><tspan x="40" y="0" style="fill: rgb(0, 96, 182);">1</tspan></text>
  <text style="font-family: 'Open Sans', sans-serif; font-weight: 500; white-space: pre;" transform="matrix(1 0 0 1 192 410)"><tspan x="0" y="0" style="fill: rgb(191, 0, 0);">1</tspan><tspan x="8" y="0" style="fill: rgb(0, 96, 182);">0</tspan><tspan x="16" y="0" style="fill: rgb(191, 0, 0);">0</tspan><tspan x="24" y="0" style="fill: rgb(0, 96, 182);">1</tspan><tspan x="32" y="0" style="fill: rgb(191, 0, 0);">1</tspan><tspan x="40" y="0" style="fill: rgb(0, 96, 182);">0</tspan></text>
  <text style="font-family: 'Open Sans', sans-serif; font-weight: 500; white-space: pre;" transform="matrix(1 0 0 1 255 410)"><tspan x="0" y="0" style="fill: rgb(191, 0, 0);">1</tspan><tspan x="8" y="0" style="fill: rgb(0, 96, 182);">0</tspan><tspan x="16" y="0" style="fill: rgb(191, 0, 0);">0</tspan><tspan x="24" y="0" style="fill: rgb(0, 96, 182);">1</tspan><tspan x="32" y="0" style="fill: rgb(191, 0, 0);">1</tspan><tspan x="40" y="0" style="fill: rgb(0, 96, 182);">1</tspan></text>
  <text style="font-family: 'Open Sans', sans-serif; font-weight: 500; white-space: pre;" transform="matrix(1 0 0 1 66 472.999)"><tspan x="0" y="0" style="fill: rgb(191, 0, 0);">1</tspan><tspan x="8" y="0" style="fill: rgb(0, 96, 182);">0</tspan><tspan x="16" y="0" style="fill: rgb(191, 0, 0);">1</tspan><tspan x="24" y="0" style="fill: rgb(0, 96, 182);">0</tspan><tspan x="32" y="0" style="fill: rgb(191, 0, 0);">0</tspan><tspan x="40" y="0" style="fill: rgb(0, 96, 182);">0</tspan></text>
  <text style="font-family: 'Open Sans', sans-serif; font-weight: 500; white-space: pre;" transform="matrix(1 0 0 1 129 472.999)"><tspan x="0" y="0" style="fill: rgb(191, 0, 0);">1</tspan><tspan x="8" y="0" style="fill: rgb(0, 96, 182);">0</tspan><tspan x="16" y="0" style="fill: rgb(191, 0, 0);">1</tspan><tspan x="24" y="0" style="fill: rgb(0, 96, 182);">0</tspan><tspan x="32" y="0" style="fill: rgb(191, 0, 0);">0</tspan><tspan x="40" y="0" style="fill: rgb(0, 96, 182);">1</tspan></text>
  <text style="font-family: 'Open Sans', sans-serif; font-weight: 500; white-space: pre;" transform="matrix(1 0 0 1 66 536)"><tspan x="0" y="0" style="fill: rgb(191, 0, 0);">1</tspan><tspan x="8" y="0" style="fill: rgb(0, 96, 182);">0</tspan><tspan x="16" y="0" style="fill: rgb(191, 0, 0);">1</tspan><tspan x="24" y="0" style="fill: rgb(0, 96, 182);">0</tspan><tspan x="32" y="0" style="fill: rgb(191, 0, 0);">1</tspan><tspan x="40" y="0" style="fill: rgb(0, 96, 182);">0</tspan></text>
  <text style="font-family: 'Open Sans', sans-serif; font-weight: 500; white-space: pre;" transform="matrix(1 0 0 1 129 536)"><tspan x="0" y="0" style="fill: rgb(191, 0, 0);">1</tspan><tspan x="8" y="0" style="fill: rgb(0, 96, 182);">0</tspan><tspan x="16" y="0" style="fill: rgb(191, 0, 0);">1</tspan><tspan x="24" y="0" style="fill: rgb(0, 96, 182);">0</tspan><tspan x="32" y="0" style="fill: rgb(191, 0, 0);">1</tspan><tspan x="40" y="0" style="fill: rgb(0, 96, 182);">1</tspan></text>
  <text style="font-family: 'Open Sans', sans-serif; font-weight: 500; white-space: pre;" transform="matrix(1 0 0 1 192 472.999)"><tspan x="0" y="0" style="fill: rgb(191, 0, 0);">1</tspan><tspan x="8" y="0" style="fill: rgb(0, 96, 182);">0</tspan><tspan x="16" y="0" style="fill: rgb(191, 0, 0);">1</tspan><tspan x="24" y="0" style="fill: rgb(0, 96, 182);">1</tspan><tspan x="32" y="0" style="fill: rgb(191, 0, 0);">0</tspan><tspan x="40" y="0" style="fill: rgb(0, 96, 182);">0</tspan></text>
  <text style="font-family: 'Open Sans', sans-serif; font-weight: 500; white-space: pre;" transform="matrix(1 0 0 1 255 472.999)"><tspan x="0" y="0" style="fill: rgb(191, 0, 0);">1</tspan><tspan x="8" y="0" style="fill: rgb(0, 96, 182);">0</tspan><tspan x="16" y="0" style="fill: rgb(191, 0, 0);">1</tspan><tspan x="24" y="0" style="fill: rgb(0, 96, 182);">1</tspan><tspan x="32" y="0" style="fill: rgb(191, 0, 0);">0</tspan><tspan x="40" y="0" style="fill: rgb(0, 96, 182);">1</tspan></text>
  <text style="font-family: 'Open Sans', sans-serif; font-weight: 500; white-space: pre;" transform="matrix(1 0 0 1 192 536)"><tspan x="0" y="0" style="fill: rgb(191, 0, 0);">1</tspan><tspan x="8" y="0" style="fill: rgb(0, 96, 182);">0</tspan><tspan x="16" y="0" style="fill: rgb(191, 0, 0);">1</tspan><tspan x="24" y="0" style="fill: rgb(0, 96, 182);">1</tspan><tspan x="32" y="0" style="fill: rgb(191, 0, 0);">1</tspan><tspan x="40" y="0" style="fill: rgb(0, 96, 182);">0</tspan></text>
  <text style="font-family: 'Open Sans', sans-serif; font-weight: 500; white-space: pre;" transform="matrix(1 0 0 1 255 536)"><tspan x="0" y="0" style="fill: rgb(191, 0, 0);">1</tspan><tspan x="8" y="0" style="fill: rgb(0, 96, 182);">0</tspan><tspan x="16" y="0" style="fill: rgb(191, 0, 0);">1</tspan><tspan x="24" y="0" style="fill: rgb(0, 96, 182);">1</tspan><tspan x="32" y="0" style="fill: rgb(191, 0, 0);">1</tspan><tspan x="40" y="0" style="fill: rgb(0, 96, 182);">1</tspan></text>
  <text style="font-family: 'Open Sans', sans-serif; font-weight: 500; white-space: pre;" transform="matrix(1 0 0 1 318 347)"><tspan x="0" y="0" style="fill: rgb(191, 0, 0);">1</tspan><tspan x="8" y="0" style="fill: rgb(0, 96, 182);">1</tspan><tspan x="16" y="0" style="fill: rgb(191, 0, 0);">0</tspan><tspan x="24" y="0" style="fill: rgb(0, 96, 182);">0</tspan><tspan x="32" y="0" style="fill: rgb(191, 0, 0);">0</tspan><tspan x="40" y="0" style="fill: rgb(0, 96, 182);">0</tspan></text>
  <text style="font-family: 'Open Sans', sans-serif; font-weight: 500; white-space: pre;" transform="matrix(1 0 0 1 381 347)"><tspan x="0" y="0" style="fill: rgb(191, 0, 0);">1</tspan><tspan x="8" y="0" style="fill: rgb(0, 96, 182);">1</tspan><tspan x="16" y="0" style="fill: rgb(191, 0, 0);">0</tspan><tspan x="24" y="0" style="fill: rgb(0, 96, 182);">0</tspan><tspan x="32" y="0" style="fill: rgb(191, 0, 0);">0</tspan><tspan x="40" y="0" style="fill: rgb(0, 96, 182);">1</tspan></text>
  <text style="font-family: 'Open Sans', sans-serif; font-weight: 500; white-space: pre;" transform="matrix(1 0 0 1 318 410)"><tspan x="0" y="0" style="fill: rgb(191, 0, 0);">1</tspan><tspan x="8" y="0" style="fill: rgb(0, 96, 182);">1</tspan><tspan x="16" y="0" style="fill: rgb(191, 0, 0);">0</tspan><tspan x="24" y="0" style="fill: rgb(0, 96, 182);">0</tspan><tspan x="32" y="0" style="fill: rgb(191, 0, 0);">1</tspan><tspan x="40" y="0" style="fill: rgb(0, 96, 182);">0</tspan></text>
  <text style="font-family: 'Open Sans', sans-serif; font-weight: 500; white-space: pre;" transform="matrix(1 0 0 1 381 410)"><tspan x="0" y="0" style="fill: rgb(191, 0, 0);">1</tspan><tspan x="8" y="0" style="fill: rgb(0, 96, 182);">1</tspan><tspan x="16" y="0" style="fill: rgb(191, 0, 0);">0</tspan><tspan x="24" y="0" style="fill: rgb(0, 96, 182);">0</tspan><tspan x="32" y="0" style="fill: rgb(191, 0, 0);">1</tspan><tspan x="40" y="0" style="fill: rgb(0, 96, 182);">1</tspan></text>
  <text style="font-family: 'Open Sans', sans-serif; font-weight: 500; white-space: pre;" transform="matrix(1 0 0 1 444 347)"><tspan x="0" y="0" style="fill: rgb(191, 0, 0);">1</tspan><tspan x="8" y="0" style="fill: rgb(0, 96, 182);">1</tspan><tspan x="16" y="0" style="fill: rgb(191, 0, 0);">0</tspan><tspan x="24" y="0" style="fill: rgb(0, 96, 182);">1</tspan><tspan x="32" y="0" style="fill: rgb(191, 0, 0);">0</tspan><tspan x="40" y="0" style="fill: rgb(0, 96, 182);">0</tspan></text>
  <text style="font-family: 'Open Sans', sans-serif; font-weight: 500; white-space: pre;" transform="matrix(1 0 0 1 507 347)"><tspan x="0" y="0" style="fill: rgb(191, 0, 0);">1</tspan><tspan x="8" y="0" style="fill: rgb(0, 96, 182);">1</tspan><tspan x="16" y="0" style="fill: rgb(191, 0, 0);">0</tspan><tspan x="24" y="0" style="fill: rgb(0, 96, 182);">1</tspan><tspan x="32" y="0" style="fill: rgb(191, 0, 0);">0</tspan><tspan x="40" y="0" style="fill: rgb(0, 96, 182);">1</tspan></text>
  <text style="font-family: 'Open Sans', sans-serif; font-weight: 500; white-space: pre;" transform="matrix(1 0 0 1 444 410)"><tspan x="0" y="0" style="fill: rgb(191, 0, 0);">1</tspan><tspan x="8" y="0" style="fill: rgb(0, 96, 182);">1</tspan><tspan x="16" y="0" style="fill: rgb(191, 0, 0);">0</tspan><tspan x="24" y="0" style="fill: rgb(0, 96, 182);">1</tspan><tspan x="32" y="0" style="fill: rgb(191, 0, 0);">1</tspan><tspan x="40" y="0" style="fill: rgb(0, 96, 182);">0</tspan></text>
  <text style="font-family: 'Open Sans', sans-serif; font-weight: 500; white-space: pre;" transform="matrix(1 0 0 1 507 410)"><tspan x="0" y="0" style="fill: rgb(191, 0, 0);">1</tspan><tspan x="8" y="0" style="fill: rgb(0, 96, 182);">1</tspan><tspan x="16" y="0" style="fill: rgb(191, 0, 0);">0</tspan><tspan x="24" y="0" style="fill: rgb(0, 96, 182);">1</tspan><tspan x="32" y="0" style="fill: rgb(191, 0, 0);">1</tspan><tspan x="40" y="0" style="fill: rgb(0, 96, 182);">1</tspan></text>
  <text style="font-family: 'Open Sans', sans-serif; font-weight: 500; white-space: pre;" transform="matrix(1 0 0 1 318 472.999)"><tspan x="0" y="0" style="fill: rgb(191, 0, 0);">1</tspan><tspan x="8" y="0" style="fill: rgb(0, 96, 182);">1</tspan><tspan x="16" y="0" style="fill: rgb(191, 0, 0);">1</tspan><tspan x="24" y="0" style="fill: rgb(0, 96, 182);">0</tspan><tspan x="32" y="0" style="fill: rgb(191, 0, 0);">0</tspan><tspan x="40" y="0" style="fill: rgb(0, 96, 182);">0</tspan></text>
  <text style="font-family: 'Open Sans', sans-serif; font-weight: 500; white-space: pre;" transform="matrix(1 0 0 1 381 472.999)"><tspan x="0" y="0" style="fill: rgb(191, 0, 0);">1</tspan><tspan x="8" y="0" style="fill: rgb(0, 96, 182);">1</tspan><tspan x="16" y="0" style="fill: rgb(191, 0, 0);">1</tspan><tspan x="24" y="0" style="fill: rgb(0, 96, 182);">0</tspan><tspan x="32" y="0" style="fill: rgb(191, 0, 0);">0</tspan><tspan x="40" y="0" style="fill: rgb(0, 96, 182);">1</tspan></text>
  <text style="font-family: 'Open Sans', sans-serif; font-weight: 500; white-space: pre;" transform="matrix(1 0 0 1 318 536)"><tspan x="0" y="0" style="fill: rgb(191, 0, 0);">1</tspan><tspan x="8" y="0" style="fill: rgb(0, 96, 182);">1</tspan><tspan x="16" y="0" style="fill: rgb(191, 0, 0);">1</tspan><tspan x="24" y="0" style="fill: rgb(0, 96, 182);">0</tspan><tspan x="32" y="0" style="fill: rgb(191, 0, 0);">1</tspan><tspan x="40" y="0" style="fill: rgb(0, 96, 182);">0</tspan></text>
  <text style="font-family: 'Open Sans', sans-serif; font-weight: 500; white-space: pre;" transform="matrix(1 0 0 1 381 536)"><tspan x="0" y="0" style="fill: rgb(191, 0, 0);">1</tspan><tspan x="8" y="0" style="fill: rgb(0, 96, 182);">1</tspan><tspan x="16" y="0" style="fill: rgb(191, 0, 0);">1</tspan><tspan x="24" y="0" style="fill: rgb(0, 96, 182);">0</tspan><tspan x="32" y="0" style="fill: rgb(191, 0, 0);">1</tspan><tspan x="40" y="0" style="fill: rgb(0, 96, 182);">1</tspan></text>
  <text style="font-family: 'Open Sans', sans-serif; font-weight: 500; white-space: pre;" transform="matrix(1 0 0 1 444 472.999)"><tspan x="0" y="0" style="fill: rgb(191, 0, 0);">1</tspan><tspan x="8" y="0" style="fill: rgb(0, 96, 182);">1</tspan><tspan x="16" y="0" style="fill: rgb(191, 0, 0);">1</tspan><tspan x="24" y="0" style="fill: rgb(0, 96, 182);">1</tspan><tspan x="32" y="0" style="fill: rgb(191, 0, 0);">0</tspan><tspan x="40" y="0" style="fill: rgb(0, 96, 182);">0</tspan></text>
  <text style="font-family: 'Open Sans', sans-serif; font-weight: 500; white-space: pre;" transform="matrix(1 0 0 1 507 472.999)"><tspan x="0" y="0" style="fill: rgb(191, 0, 0);">1</tspan><tspan x="8" y="0" style="fill: rgb(0, 96, 182);">1</tspan><tspan x="16" y="0" style="fill: rgb(191, 0, 0);">1</tspan><tspan x="24" y="0" style="fill: rgb(0, 96, 182);">1</tspan><tspan x="32" y="0" style="fill: rgb(191, 0, 0);">0</tspan><tspan x="40" y="0" style="fill: rgb(0, 96, 182);">1</tspan></text>
  <text style="font-family: 'Open Sans', sans-serif; font-weight: 500; white-space: pre;" transform="matrix(1 0 0 1 444 536)"><tspan x="0" y="0" style="fill: rgb(191, 0, 0);">1</tspan><tspan x="8" y="0" style="fill: rgb(0, 96, 182);">1</tspan><tspan x="16" y="0" style="fill: rgb(191, 0, 0);">1</tspan><tspan x="24" y="0" style="fill: rgb(0, 96, 182);">1</tspan><tspan x="32" y="0" style="fill: rgb(191, 0, 0);">1</tspan><tspan x="40" y="0" style="fill: rgb(0, 96, 182);">0</tspan></text>
  <text style="fill: rgb(0, 96, 182); font-family: 'Open Sans', sans-serif; font-weight: 500; white-space: pre;" transform="matrix(1 0 0 1 63 14)">x:</text>
  <text style="fill: rgb(0, 96, 182); font-family: 'Open Sans', sans-serif; font-weight: 500; white-space: pre;" transform="matrix(1 0 0 1 85.9995 23)">0</text>
  <text style="fill: rgb(0, 96, 182); font-family: 'Open Sans', sans-serif; font-weight: 500; white-space: pre;" transform="matrix(1 0 0 1 148.9995 23)">1</text>
  <text style="fill: rgb(0, 96, 182); font-family: 'Open Sans', sans-serif; font-weight: 500; white-space: pre;" transform="matrix(1 0 0 1 211.9995 23)">2</text>
  <text style="fill: rgb(0, 96, 182); font-family: 'Open Sans', sans-serif; font-weight: 500; white-space: pre;" transform="matrix(1 0 0 1 275 23)">3</text>
  <text style="fill: rgb(0, 96, 182); font-family: 'Open Sans', sans-serif; font-weight: 500; white-space: pre;" transform="matrix(1 0 0 1 338 23)">4</text>
  <text style="fill: rgb(0, 96, 182); font-family: 'Open Sans', sans-serif; font-weight: 500; white-space: pre;" transform="matrix(1 0 0 1 401 23)">5</text>
  <text style="fill: rgb(0, 96, 182); font-family: 'Open Sans', sans-serif; font-weight: 500; white-space: pre;" transform="matrix(1 0 0 1 464 23)">6</text>
  <text style="fill: rgb(0, 96, 182); font-family: 'Open Sans', sans-serif; font-weight: 500; white-space: pre;" transform="matrix(1 0 0 1 527 23)">7</text>
  <text style="fill: rgb(0, 96, 182); font-family: 'Open Sans', sans-serif; font-weight: 500; white-space: pre;" transform="matrix(1 0 0 1 77.9995 41)">000</text>
  <text style="fill: rgb(0, 96, 182); font-family: 'Open Sans', sans-serif; font-weight: 500; white-space: pre;" transform="matrix(1 0 0 1 140.9995 41)">001</text>
  <text style="fill: rgb(0, 96, 182); font-family: 'Open Sans', sans-serif; font-weight: 500; white-space: pre;" transform="matrix(1 0 0 1 203.9995 41)">010</text>
  <text style="fill: rgb(0, 96, 182); font-family: 'Open Sans', sans-serif; font-weight: 500; white-space: pre;" transform="matrix(1 0 0 1 266.9995 41)">011</text>
  <text style="fill: rgb(0, 96, 182); font-family: 'Open Sans', sans-serif; font-weight: 500; white-space: pre;" transform="matrix(1 0 0 1 330 41)">100</text>
  <text style="fill: rgb(0, 96, 182); font-family: 'Open Sans', sans-serif; font-weight: 500; white-space: pre;" transform="matrix(1 0 0 1 393 41)">101</text>
  <text style="fill: rgb(0, 96, 182); font-family: 'Open Sans', sans-serif; font-weight: 500; white-space: pre;" transform="matrix(1 0 0 1 456 41)">110</text>
  <text style="fill: rgb(0, 96, 182); font-family: 'Open Sans', sans-serif; font-weight: 500; white-space: pre;" transform="matrix(1 0 0 1 519 41)">111</text>
  <line fill="none" stroke="#000000" stroke-width="2" x1="59" y1="0" x2="59" y2="558"/>
  <line fill="none" stroke="#000000" stroke-width="2" x1="0" y1="59" x2="567" y2="59"/>
  <text style="font-family: 'Open Sans', sans-serif; font-weight: 500; white-space: pre;" transform="matrix(1 0 0 1 507 536)"><tspan x="0" y="0" style="fill: rgb(191, 0, 0);">1</tspan><tspan x="8" y="0" style="fill: rgb(0, 96, 182);">1</tspan><tspan x="16" y="0" style="fill: rgb(191, 0, 0);">1</tspan><tspan x="24" y="0" style="fill: rgb(0, 96, 182);">1</tspan><tspan x="32" y="0" style="fill: rgb(191, 0, 0);">1</tspan><tspan x="40" y="0" style="fill: rgb(0, 96, 182);">1</tspan></text>
</svg>