<?xml version="1.0" encoding="utf-8"?>
<svg viewBox="0 0 500 500" xmlns="http://www.w3.org/2000/svg">
  <defs/>
  <title>Blank globe, focus on Africa</title>
  <path stroke-width="0.75" d="M 382.15 243.942 C 382.15 313.93 324.781 370.67 254.014 370.67 C 183.246 370.67 125.873 313.931 125.873 243.942 C 125.873 173.95 183.244 117.21 254.014 117.21 C 324.783 117.21 382.15 173.95 382.15 243.942 Z" style="stroke: rgb(108, 142, 191); fill: rgb(218, 232, 252);"/>
  <path d="M 244.319 363.257 C 243.671 363.161 243.115 362.848 243.075 362.575 C 243.04 362.296 242.994 361.874 242.966 361.633 C 242.896 361.044 239.896 358.445 237.928 357.266 C 236.934 356.677 236.138 355.771 235.811 354.866 C 235.517 354.066 235.122 353.409 234.933 353.409 C 234.748 353.409 234.598 353.136 234.598 352.801 C 234.598 352.461 234.191 351.91 233.695 351.56 C 233.203 351.221 232.921 350.735 233.077 350.486 C 233.253 350.207 233.106 350.133 232.695 350.284 C 232.209 350.474 232.033 350.259 232.033 349.514 C 232.033 348.868 231.296 347.73 230.061 346.446 C 228.023 344.354 227.148 341.782 228.07 340.623 C 228.305 340.332 228.619 339.575 228.775 338.94 C 228.929 338.307 229.632 337.365 230.331 336.849 C 231.848 335.742 231.892 335.333 230.707 333.348 C 230.211 332.517 229.92 331.553 230.061 331.19 C 230.198 330.837 229.519 328.926 228.547 326.96 C 227.236 324.288 226.174 322.823 224.383 321.205 C 222.223 319.258 220.057 316.312 220.057 315.317 C 220.057 315.115 220.349 314.939 220.699 314.939 C 221.134 314.939 221.345 314.498 221.354 313.568 C 221.363 312.811 221.648 311.826 221.996 311.372 C 223.112 309.909 222.453 306.909 221.269 308.072 C 220.978 308.366 220.492 308.599 220.182 308.599 C 219.394 308.599 219.492 307.359 220.307 307.051 C 221.545 306.58 220.003 306.075 217.279 306.063 C 215.868 306.057 214.498 305.908 214.234 305.74 C 213.971 305.563 213.247 304.439 212.636 303.231 C 211.657 301.312 211.303 300.992 209.902 300.731 C 207.751 300.332 205.112 300.337 201.245 300.748 C 198.239 301.07 197.9 301.017 195.899 299.956 C 194.243 299.083 192.936 298.771 190.126 298.59 C 185.966 298.313 185.618 298.096 181.881 293.38 C 180.68 291.87 178.82 289.835 177.752 288.853 C 176.475 287.681 175.968 286.958 176.282 286.738 C 177.047 286.211 176.466 283.876 175.228 282.499 C 174.604 281.804 173.849 280.881 173.554 280.446 C 173.256 280.003 172.623 279.073 172.146 278.381 C 171.504 277.439 171.363 276.787 171.592 275.845 C 171.764 275.144 171.92 273.628 171.931 272.465 C 171.946 271.116 172.2 270.127 172.633 269.718 C 173.533 268.874 174.417 266.76 173.871 266.76 C 173.642 266.76 173.454 266.189 173.454 265.488 C 173.454 264.793 173.619 264.223 173.824 264.223 C 174.028 264.223 174.172 264.556 174.146 264.961 C 174.03 266.624 174.883 265.985 175.04 264.289 C 175.155 263.064 175.062 262.543 174.761 262.732 C 174.191 263.076 174.184 263.169 174.949 259.576 C 175.469 257.122 175.93 256.173 177.41 254.474 C 178.411 253.324 179.564 252.282 179.975 252.152 C 180.388 252.021 180.721 251.638 180.721 251.29 C 180.721 250.167 182.019 248.687 183.216 248.452 C 183.881 248.32 184.649 247.749 184.978 247.144 C 185.433 246.307 185.783 246.124 186.558 246.313 C 187.175 246.472 187.564 246.379 187.564 246.077 C 187.564 245.81 187.803 245.627 188.097 245.678 C 188.391 245.724 188.922 245.641 189.274 245.493 C 189.624 245.347 190.418 245.048 191.029 244.826 C 191.888 244.516 192.205 244.045 192.412 242.798 C 192.773 240.55 195.34 237.966 197.87 237.303 C 200.269 236.677 202.059 234.485 201.764 232.525 C 201.635 231.647 201.335 231.256 200.792 231.256 C 200.363 231.256 199.895 231.064 199.75 230.834 C 199.602 230.602 199.113 230.41 198.653 230.41 C 197.668 230.41 197.631 230.069 198.481 228.95 C 198.883 228.425 199.021 227.653 198.864 226.829 C 198.67 225.796 198.886 225.191 199.923 223.901 C 201.281 222.214 202.09 220.035 202.096 218.065 C 202.099 217.079 202.347 216.852 203.852 216.449 C 205.307 216.064 205.729 216.096 206.341 216.645 C 206.748 217.008 207.365 217.305 207.711 217.305 C 208.059 217.305 208.529 217.497 208.761 217.724 C 208.99 217.95 210.138 218.428 211.304 218.779 C 213.342 219.392 213.461 219.383 214.164 218.549 C 214.568 218.069 215.026 217.019 215.173 216.223 C 215.496 214.53 215.067 211.817 214.477 211.817 C 214.255 211.817 214.07 211.553 214.07 211.225 C 214.07 210.9 213.781 210.528 213.428 210.391 C 213.054 210.249 212.788 209.616 212.788 208.868 C 212.788 207.659 212.882 207.588 214.463 207.588 C 215.388 207.588 216.247 207.826 216.386 208.117 C 216.52 208.408 216.511 208.186 216.37 207.631 C 216.166 206.831 216.255 206.669 216.775 206.868 C 217.138 207.007 217.514 206.893 217.618 206.613 C 217.74 206.267 218.07 206.344 218.669 206.874 C 219.497 207.599 219.626 207.603 221.19 206.923 L 222.839 206.205 L 221.34 205.835 C 220.518 205.633 218.402 205.394 216.637 205.301 C 214.871 205.215 213.092 205.119 212.683 205.097 C 211.524 205.028 211.802 204.344 213.107 204.055 C 213.755 203.913 214.669 203.5 215.141 203.141 C 215.835 202.608 215.881 202.418 215.398 202.121 C 214.611 201.644 215.119 200.406 216.107 200.406 C 216.677 200.406 216.881 200.093 216.868 199.247 C 216.856 198.227 217.001 198.1 218.025 198.208 C 219.067 198.313 219.195 198.193 219.154 197.15 C 219.126 196.431 219.028 196.26 218.91 196.707 C 218.804 197.116 218.421 197.445 218.06 197.445 C 217.656 197.445 217.496 197.206 217.643 196.818 C 217.847 196.294 217.749 196.276 217.047 196.71 C 216.586 196.999 216.207 197.629 216.207 198.118 C 216.207 198.604 215.872 199.296 215.458 199.652 C 214.593 200.399 211.034 201.003 209.79 200.613 C 208.517 200.213 208.668 198.393 210.022 197.78 C 210.668 197.492 211.019 197.057 210.884 196.713 C 210.549 195.851 211.937 193.978 212.7 194.263 C 213.048 194.399 213.69 194.194 214.118 193.807 C 214.57 193.404 215.325 193.196 215.921 193.308 C 216.608 193.439 217.109 193.239 217.439 192.725 C 217.743 192.245 217.765 191.95 217.498 191.95 C 216.739 191.95 217.034 191.107 217.817 191.057 C 218.529 191.008 218.529 190.999 217.817 190.816 C 216.811 190.555 216.873 190.091 218.078 188.804 C 219.113 187.696 220.488 187.356 220.488 188.202 C 220.488 188.537 220.673 188.527 221.109 188.165 C 221.45 187.886 221.946 187.784 222.205 187.945 C 222.462 188.104 223.058 187.896 223.517 187.483 C 224.184 186.885 224.46 186.842 224.878 187.26 C 225.298 187.675 225.113 188.041 224.01 189.024 C 222.809 190.093 222.733 190.265 223.474 190.265 C 224.609 190.265 224.609 191.583 223.474 192.593 C 222.484 193.479 222.596 194.916 223.951 198.624 C 224.879 201.182 225.026 204.05 224.229 204.327 C 223.935 204.433 223.822 204.652 223.975 204.818 C 224.452 205.329 226.705 203.916 227.919 202.333 C 228.969 200.972 229.276 200.829 231.17 200.829 C 233.478 200.829 233.55 200.739 233.957 197.493 C 234.277 194.975 234.634 194.47 236.556 193.818 C 237.833 193.381 238.277 193.371 238.531 193.765 C 238.723 194.062 238.864 193.703 238.864 192.903 C 238.873 191.386 238.262 191.147 236.924 192.152 C 236.466 192.494 235.516 192.778 234.807 192.785 C 232.901 192.804 232.321 191.603 232.688 188.415 C 233.086 184.992 233.758 183.811 235.851 182.88 C 236.811 182.452 237.591 181.953 237.591 181.773 C 237.591 181.587 238.268 181.196 239.096 180.904 C 240.11 180.541 241.1 179.652 242.122 178.181 C 242.962 176.981 244.11 175.752 244.68 175.455 C 245.248 175.148 245.637 174.829 245.539 174.73 C 245.442 174.633 244.943 174.779 244.432 175.049 C 243.921 175.318 243.401 175.44 243.275 175.315 C 242.936 174.978 245.714 172.559 247.504 171.641 C 248.37 171.198 249.194 170.643 249.344 170.406 C 249.492 170.168 250.178 169.972 250.871 169.972 C 251.561 169.972 252.128 169.82 252.128 169.637 C 252.128 169.138 254.68 168.378 256.468 168.344 C 257.559 168.322 258.366 168.626 259.162 169.357 C 259.789 169.931 260.58 170.396 260.917 170.396 C 261.259 170.396 261.538 170.588 261.538 170.821 C 261.538 171.053 261.916 171.242 262.384 171.242 C 263.898 171.242 268.711 173.443 269.207 174.364 C 269.486 174.87 270.156 175.282 270.775 175.319 C 271.771 175.378 271.8 175.326 271.184 174.652 C 270.819 174.25 270.517 173.605 270.517 173.217 C 270.517 172.826 270.319 172.507 270.087 172.507 C 269.852 172.507 269.658 172.204 269.658 171.828 C 269.658 171.303 269.977 171.189 271.05 171.344 C 271.811 171.447 272.774 171.675 273.181 171.852 C 273.73 172.088 274.326 171.721 275.489 170.447 C 276.501 169.328 277.561 168.627 278.489 168.453 C 281.233 167.948 279.628 166.164 276.714 166.487 C 275.57 166.614 274.463 166.446 273.608 166.007 C 272.482 165.433 272.238 165.021 272.022 163.318 C 271.881 162.214 271.655 160.834 271.522 160.254 C 271.002 157.931 271.237 156.748 272.385 155.922 C 273.002 155.475 273.514 154.827 273.514 154.481 C 273.514 154.106 273.817 153.91 274.26 154 C 274.846 154.115 274.972 154.472 274.843 155.619 C 274.749 156.425 274.656 158.48 274.639 160.192 C 274.606 162.933 274.715 163.395 275.567 164.078 C 276.84 165.095 280.566 165.786 282.71 165.401 L 284.422 165.091 L 283.243 164.08 C 282.597 163.519 282.071 162.684 282.071 162.219 C 282.071 161.754 281.801 161.079 281.475 160.709 C 281.146 160.343 280.741 159.397 280.572 158.61 C 280.278 157.235 280.309 157.192 281.353 157.45 C 282.299 157.683 282.456 157.571 282.575 156.564 L 282.709 155.404 L 283.668 156.43 C 284.449 157.258 284.631 157.321 284.631 156.74 C 284.631 156.349 284.421 156.026 284.157 156.026 C 283.879 156.026 283.762 155.586 283.885 154.968 C 283.994 154.388 283.938 153.91 283.755 153.91 C 283.571 153.91 283.301 153.104 283.151 152.114 C 282.601 148.536 282.435 148.08 281.615 147.866 C 280.442 147.562 280.549 146.309 281.747 146.291 C 282.682 146.276 282.683 146.263 281.85 145.801 C 281.384 145.536 280.853 145.112 280.684 144.861 C 280.468 144.542 280.368 144.538 280.361 144.852 C 280.355 145.1 279.122 145.547 277.621 145.841 C 274.739 146.409 273.815 146.213 272.625 144.778 C 272.064 144.109 272.134 144.071 273.478 144.331 C 274.491 144.533 275.253 144.415 275.977 143.946 C 276.597 143.544 277.426 143.372 278.046 143.527 C 278.657 143.68 279.075 143.596 279.075 143.329 C 279.075 143.028 279.717 142.966 280.937 143.146 C 282.419 143.363 282.851 143.286 283.062 142.752 C 283.384 141.915 284.657 141.9 287.301 142.694 C 289.272 143.29 289.333 143.279 289.333 142.418 C 289.333 141.932 289.668 141.287 290.081 140.973 C 290.762 140.461 290.727 140.409 289.679 140.396 C 288.313 140.381 288.005 140.009 288.335 138.762 C 288.531 138.021 288.905 137.837 290.343 137.813 C 291.315 137.791 291.87 137.682 291.579 137.565 C 291.282 137.447 291.043 137.09 291.043 136.765 C 291.043 135.24 286.654 134.031 285.164 135.143 C 283.65 136.279 280.781 135.565 280.781 134.052 C 280.781 133.605 280.591 133.127 280.355 132.985 C 279.587 132.517 279.903 131.506 280.825 131.506 C 281.362 131.506 281.81 131.843 281.945 132.349 C 282.067 132.811 282.371 133.196 282.618 133.196 C 282.865 133.196 283.418 133.512 283.84 133.891 C 284.562 134.532 284.636 134.532 284.884 133.891 C 285.031 133.512 285.42 133.196 285.75 133.196 C 286.459 133.196 286.536 132.52 285.882 132.116 C 285.625 131.962 285.512 131.481 285.625 131.053 C 285.772 130.496 285.412 130.027 284.377 129.423 C 282.916 128.57 282.467 127.721 283.458 127.683 C 284.329 127.648 280.282 125.72 278.652 125.385 C 277.826 125.217 275.037 124.07 272.451 122.836 C 269.86 121.601 267.311 120.467 266.782 120.312 C 265.7 119.998 265.478 119.245 266.459 119.245 C 266.809 119.245 267.102 119.053 267.102 118.824 C 267.102 118.591 267.391 118.402 267.742 118.402 C 268.095 118.402 268.381 118.591 268.381 118.824 C 268.381 119.053 268.91 119.248 269.56 119.248 C 270.202 119.25 271.312 119.551 272.018 119.921 C 273.743 120.818 277.789 121.244 277.789 120.529 C 277.789 120.198 278.072 120.108 278.539 120.288 C 278.949 120.443 281.499 121.035 284.204 121.609 C 286.906 122.177 289.506 122.822 289.976 123.038 C 292.08 124.014 294.209 124.74 294.968 124.74 C 295.422 124.74 296.362 125.031 297.052 125.385 C 298.187 125.965 298.312 125.965 298.312 125.385 C 298.312 125.032 298.51 124.74 298.745 124.74 C 298.977 124.74 299.171 125.028 299.171 125.372 C 299.171 125.719 299.507 126.007 299.923 126.007 C 300.341 126.007 301.733 126.405 303.025 126.891 C 304.313 127.375 306.053 127.915 306.89 128.088 C 308.602 128.434 312.851 130.605 312.851 131.136 C 312.851 131.616 307.979 130.547 304.088 129.21 C 303.618 129.047 303.954 129.353 304.832 129.89 C 305.709 130.427 306.433 131.108 306.433 131.4 C 306.437 131.688 306.637 131.927 306.876 131.927 C 307.115 131.927 308.131 132.663 309.121 133.568 C 310.113 134.474 312.948 136.402 315.418 137.851 C 317.889 139.303 320.51 141.054 321.25 141.743 C 322.096 142.534 322.699 142.825 322.878 142.536 C 323.294 141.87 322.765 141.228 322.032 141.506 C 321.439 141.73 321.339 141.575 321.236 140.278 C 321.213 139.987 320.899 139.528 320.553 139.258 C 319.27 138.269 320.524 138.247 323.393 139.196 C 326.38 140.188 327.265 140.784 326.478 141.261 C 326.217 141.425 326.33 141.642 326.754 141.807 C 327.15 141.956 327.653 141.966 327.876 141.829 C 328.102 141.689 328.549 141.795 328.879 142.061 C 329.208 142.335 330.067 142.567 330.792 142.586 C 331.747 142.616 332.077 142.81 331.996 143.302 C 331.927 143.743 332.205 143.982 332.814 143.991 C 333.924 144.006 338.087 147.355 338.087 148.229 C 338.087 149.088 337.494 148.982 336.551 147.953 C 336.105 147.467 335.357 146.887 334.883 146.663 C 333.871 146.185 336.36 148.462 340.101 151.428 C 341.633 152.644 343.305 154.464 344.048 155.733 C 345.386 157.994 350.537 163.454 353.095 165.321 L 354.541 166.379 L 352.936 164.208 C 351.264 161.945 351.077 161.517 351.732 161.517 C 352.295 161.517 359.647 171.198 359.321 171.514 C 359.171 171.66 358.757 171.539 358.399 171.245 C 357.487 170.494 357.59 170.926 358.603 172.082 C 359.446 173.05 359.702 173.772 359.199 173.772 C 359.055 173.772 357.947 172.727 356.735 171.449 C 355.521 170.175 354.353 169.126 354.141 169.126 C 353.927 169.126 353.373 168.795 352.909 168.388 C 352.078 167.659 352.078 167.663 352.779 169.021 C 353.243 169.911 353.319 170.391 353.005 170.391 C 352.74 170.391 352.636 170.692 352.773 171.049 C 352.94 171.477 352.858 171.604 352.544 171.406 C 351.559 170.81 352.657 172.06 353.852 172.897 L 355.061 173.753 L 354.915 172.495 C 354.679 170.479 355.492 171.038 356.934 173.884 C 358.652 177.276 359.062 177.785 359.488 177.1 C 359.718 176.737 360.458 177.27 361.88 178.823 C 364.201 181.347 365.317 182.991 367.229 186.669 C 367.956 188.061 368.954 189.618 369.451 190.12 C 370.956 191.636 371.449 192.327 372.091 193.853 C 372.907 195.772 372.894 196.764 372.054 196.445 C 371.552 196.253 371.49 196.365 371.801 196.929 C 372.365 197.981 373.992 205.82 373.992 207.49 C 373.992 208.268 374.409 209.796 374.92 210.889 C 375.959 213.115 376.516 217.308 375.773 217.308 C 375.52 217.308 375.096 216.501 374.838 215.512 C 374.07 212.573 373.922 212.163 373.716 212.373 C 373.606 212.481 373.795 214.047 374.146 215.862 C 374.722 218.876 374.932 219.302 376.654 220.877 C 379.068 223.082 379.801 225.659 380.184 233.268 C 380.428 238.186 380.384 238.868 379.791 238.868 C 379.425 238.868 379.121 238.582 379.121 238.235 C 379.121 237.885 378.832 237.6 378.485 237.6 C 378.134 237.6 377.846 237.315 377.846 236.97 C 377.846 236.022 377.089 236.205 376.76 237.228 C 376.41 238.323 376.917 242.677 377.394 242.677 C 377.587 242.677 377.866 243.49 378.016 244.478 C 378.214 245.752 378.562 246.41 379.202 246.698 C 381.1 247.561 382.08 255.344 381.093 261.685 C 380.748 263.887 380.26 265.756 380.008 265.843 C 379.758 265.921 379.551 266.264 379.551 266.587 C 379.551 266.92 379.357 267.189 379.121 267.189 C 378.886 267.189 378.694 266.901 378.694 266.55 C 378.694 265.75 376.93 261.955 376.469 261.762 C 375.908 261.529 376.084 260.763 376.817 260.234 C 377.426 259.793 377.378 259.653 376.387 259.014 C 374.969 258.094 374.948 256.646 376.324 255.368 C 377.211 254.544 377.49 254.475 378.046 254.927 C 378.412 255.228 378.829 255.355 378.981 255.207 C 379.414 254.776 377.789 249.439 377.225 249.439 C 376.931 249.439 376.394 248.036 375.971 246.165 C 374.694 240.506 374.331 239.154 373.413 236.55 L 372.51 234.014 L 372.071 236.305 C 371.647 238.484 370.757 239.594 370.399 238.383 C 370.309 238.073 370.009 237.008 369.74 236.023 C 369.467 235.033 369.085 234.227 368.891 234.227 C 368.691 234.227 367.795 233.56 366.897 232.747 C 366 231.928 365.156 231.268 365.028 231.274 C 364.576 231.287 362.011 237.28 362.011 238.315 C 362.011 238.883 361.742 240.238 361.416 241.332 C 360.707 243.698 359.794 248.833 359.837 250.219 C 359.854 250.762 359.405 252.157 358.841 253.326 C 357.892 255.289 357.856 255.556 358.425 256.89 C 358.757 257.686 359.054 259.234 359.077 260.334 C 359.13 262.722 359.736 264.952 360.459 265.394 C 361.529 266.046 362.864 268.421 362.864 269.671 C 362.864 271.277 362.101 272.984 361.236 273.311 C 360.364 273.642 359.944 272.898 359.604 270.442 C 359.297 268.2 358.751 268.277 357.968 270.678 C 357.622 271.726 357.274 272.055 356.484 272.055 C 355.666 272.055 355.199 271.575 354.237 269.729 C 353.568 268.455 352.832 267.341 352.594 267.268 C 352.356 267.188 351.692 266.142 351.115 264.942 C 350.539 263.743 349.597 262.27 349.033 261.671 C 348.47 261.076 347.876 260.17 347.711 259.665 C 347.548 259.16 347.219 258.744 346.974 258.744 C 346.731 258.744 346.629 258.483 346.755 258.161 C 346.881 257.838 346.519 256.898 345.945 256.07 C 345.376 255.242 344.914 254.373 344.914 254.141 C 344.914 253.905 344.214 253.806 343.296 253.914 C 342.211 254.044 341.136 253.831 340.004 253.256 C 339.076 252.788 338.066 252.403 337.766 252.403 C 337.465 252.403 337.214 252.133 337.214 251.804 C 337.214 251.472 336.624 251.076 335.903 250.921 C 335.181 250.762 334.489 250.364 334.36 250.031 C 334.228 249.699 333.74 249.218 333.269 248.974 C 332.596 248.621 332.166 248.691 331.287 249.323 C 330.671 249.764 329.485 250.397 328.666 250.719 C 327.842 251.052 326.795 251.655 326.334 252.081 C 325.87 252.499 325.296 252.769 325.052 252.683 C 324.805 252.599 323.739 252.778 322.684 253.092 C 320.289 253.806 317.885 253.83 317.21 253.163 C 316.457 252.423 316.531 253.821 317.323 255.331 C 318.045 256.714 318.928 257.151 320.293 256.813 C 320.885 256.665 321.87 256.934 322.864 257.514 C 324.365 258.386 324.457 258.552 324.202 259.971 C 324.056 260.808 323.826 262.204 323.692 263.077 C 323.545 264.039 323.216 264.661 322.853 264.661 C 322.451 264.661 322.253 265.176 322.253 266.253 C 322.253 267.382 322.011 267.992 321.4 268.37 C 320.93 268.66 320.541 269.295 320.541 269.775 C 320.541 270.308 320.196 270.749 319.667 270.885 C 319.136 271.021 318.694 271.58 318.551 272.288 C 318.403 273.024 317.964 273.553 317.4 273.699 C 315.977 274.059 313.35 276.406 313.199 277.454 C 313.116 278.041 312.253 278.921 310.926 279.779 C 309.75 280.543 308.331 281.582 307.779 282.09 C 306.5 283.258 302.537 285.792 301.985 285.792 C 301.752 285.792 301.045 286.285 300.406 286.889 C 299.701 287.561 298.705 288.012 297.852 288.052 C 296.597 288.111 296.353 287.921 295.484 286.216 C 294.274 283.835 293.963 282.946 293.816 281.395 C 293.735 280.535 293.041 279.571 291.543 278.222 C 290.357 277.153 289.279 275.89 289.141 275.404 C 289.007 274.92 288.269 274.26 287.51 273.924 C 286.434 273.457 285.993 272.898 285.538 271.422 C 284.553 268.23 283.689 266.765 282.616 266.5 C 282.062 266.358 281.318 265.7 280.967 265.028 C 280.614 264.359 280.165 263.809 279.962 263.809 C 279.762 263.809 279.475 263.381 279.331 262.86 C 278.874 261.236 276.353 258.661 275.525 258.975 C 275.123 259.126 274.796 259.539 274.796 259.893 C 274.796 260.706 277.012 264.557 278.206 265.822 C 278.705 266.345 279.005 266.948 278.874 267.158 C 278.561 267.661 279.054 268.882 279.574 268.882 C 280.775 268.882 282.317 271.461 282.728 274.166 C 282.954 275.671 283.283 276.228 284.258 276.798 C 284.941 277.197 285.919 278.386 286.424 279.436 C 286.933 280.484 287.557 281.489 287.81 281.657 C 288.117 281.867 288.099 281.97 287.74 281.973 C 287.455 281.977 287.333 282.268 287.468 282.616 C 287.794 283.449 288.477 283.428 288.477 282.585 C 288.477 282.141 288.791 281.965 289.437 282.058 C 290.07 282.144 290.399 282.482 290.399 283.04 C 290.399 283.561 291.088 284.339 292.208 285.083 C 294.916 286.869 296.421 288.401 296.748 289.685 C 297.214 291.558 298.44 291.908 300.788 290.857 C 301.895 290.361 303.086 289.774 303.437 289.561 C 303.788 289.343 304.368 289.049 304.716 288.909 C 307.496 287.814 310.124 286.449 310.406 285.953 C 310.594 285.628 311.125 285.362 311.583 285.362 C 312.205 285.362 312.416 285.652 312.416 286.543 C 312.416 287.194 312.655 287.969 312.949 288.261 C 313.378 288.689 313.341 288.875 312.751 289.204 C 312.349 289.427 312.125 289.873 312.249 290.196 C 312.372 290.516 312.053 291.589 311.538 292.587 C 311.027 293.579 310.139 295.61 309.578 297.102 C 307.966 301.334 305.897 304.131 300.289 309.651 C 292.539 317.29 288.459 322.135 289.78 322.135 C 290.447 322.135 290.232 323.753 289.543 323.903 C 288.985 324.021 288.98 324.182 289.506 325.181 C 290.193 326.483 290.165 327.265 289.397 328.182 C 288.675 329.038 289.186 330.88 290.215 331.14 C 290.948 331.332 291.028 331.74 290.967 335.09 L 290.898 338.829 L 289.136 340.516 C 288.137 341.478 286.415 342.544 285.167 342.984 C 283.951 343.406 282.719 344.038 282.426 344.384 C 282.132 344.73 281.154 345.388 280.242 345.847 C 278.423 346.771 277.867 347.635 278.57 348.469 C 279.113 349.121 278.743 351.955 278.043 352.503 C 277.78 352.705 276.579 353.192 275.379 353.577 C 273.541 354.172 273.075 354.544 272.457 355.889 C 271.724 357.503 271.583 357.608 265.67 360.696 C 262.049 362.591 259.665 363.047 252.342 363.255 C 248.574 363.359 244.965 363.363 244.319 363.257 Z M 277.857 334.428 C 277.503 333.542 277.011 335.958 277.305 337.139 C 277.471 337.79 277.587 337.66 277.821 336.543 C 277.989 335.749 278.004 334.798 277.857 334.428 Z M 268.798 328.524 C 268.798 328.319 268.4 328.046 267.918 327.922 C 267.196 327.736 267.13 327.804 267.544 328.294 C 268.109 328.968 268.798 329.094 268.798 328.524 Z M 274.963 318.757 C 275.838 318.757 277.051 317.163 276.755 316.4 C 276.555 315.88 276.192 315.784 275.317 315.998 C 274.674 316.153 274.078 316.46 274.006 316.674 C 273.925 316.891 273.61 317.065 273.3 317.065 C 272.996 317.065 272.664 317.633 272.564 318.321 C 272.41 319.328 272.541 319.588 273.262 319.691 C 273.749 319.76 274.209 319.58 274.285 319.289 C 274.359 318.995 274.669 318.757 274.963 318.757 Z M 378.664 262.389 C 378.256 262.017 378.196 262.086 378.413 262.684 C 378.563 263.108 378.714 263.777 378.746 264.162 C 378.783 264.551 378.892 264.416 378.996 263.869 C 379.103 263.319 378.949 262.653 378.664 262.389 Z M 378.259 261.062 C 378.259 260.253 377.993 260.253 377.68 261.062 C 377.542 261.412 377.613 261.698 377.846 261.698 C 378.074 261.698 378.259 261.412 378.259 261.062 Z M 311.563 257.949 C 311.57 257.353 311.63 257.344 311.97 257.887 C 312.507 258.724 312.914 258.275 314.535 255.04 C 315.262 253.583 316.046 252.398 316.272 252.398 C 316.498 252.398 316.683 252.162 316.674 251.871 C 316.665 251.578 316.176 251.89 315.578 252.56 C 314.214 254.089 311.495 254.517 309.518 253.506 C 308.787 253.134 307.893 252.942 307.532 253.078 C 306.893 253.317 303.858 250.616 303.858 249.806 C 303.858 249.605 303.655 249.44 303.404 249.44 C 303.152 249.44 303.071 249.252 303.216 249.019 C 303.36 248.786 303.275 248.597 303.025 248.597 C 302.778 248.597 302.568 249.022 302.565 249.546 C 302.559 250.314 302.48 250.376 302.145 249.862 C 301.788 249.316 301.728 249.322 301.721 249.934 C 301.719 250.322 301.477 250.743 301.182 250.87 C 300.816 251.025 300.949 251.32 301.612 251.8 C 302.139 252.185 302.571 252.758 302.571 253.072 C 302.571 253.39 302.841 253.536 303.183 253.407 C 303.544 253.267 304.098 253.655 304.566 254.371 C 304.992 255.029 305.628 255.82 305.985 256.13 C 306.339 256.436 306.424 256.588 306.171 256.461 C 305.917 256.341 305.704 256.484 305.704 256.788 C 305.704 257.085 305.98 257.33 306.31 257.33 C 306.717 257.33 306.852 256.999 306.726 256.336 C 306.56 255.482 306.663 255.381 307.438 255.613 C 308.594 255.96 308.52 255.873 308.964 257.392 C 309.225 258.298 309.184 258.757 308.842 258.903 C 308.492 259.045 308.518 259.225 308.949 259.519 C 309.724 260.042 311.55 258.945 311.563 257.949 Z M 246.138 251.553 C 246.325 249.896 246.54 249.558 247.847 248.913 C 249.787 247.958 251.493 247.975 252.491 248.963 C 252.93 249.397 254.033 249.89 254.952 250.058 C 255.864 250.228 256.804 250.516 257.04 250.699 C 257.275 250.884 258.14 251.14 258.965 251.273 C 259.787 251.404 261.426 251.688 262.598 251.908 C 264.427 252.243 264.91 252.188 265.882 251.503 C 267.074 250.662 269.212 250.461 271.814 250.929 C 273.782 251.286 274.046 250.942 275.174 246.456 C 276.287 242.034 276.014 239.6 274.378 239.37 C 273.795 239.29 273.219 239.497 273.005 239.866 C 272.453 240.837 270.167 241.196 269.302 240.449 C 268.167 239.464 266.662 239.131 266.662 239.864 C 266.662 241.079 264.417 241.371 263.325 240.294 C 262.666 239.643 262.598 239.662 262.383 240.58 C 262.146 241.582 261.104 242.288 261.104 241.451 C 261.104 241.197 260.704 240.595 260.216 240.115 C 259.731 239.635 259.442 238.956 259.574 238.605 C 259.756 238.136 259.605 238.044 258.965 238.248 C 258.357 238.44 258.115 238.319 258.115 237.826 C 258.115 237.452 258.307 237.256 258.542 237.398 C 258.774 237.541 258.968 237.461 258.968 237.213 C 258.968 236.965 258.674 236.763 258.307 236.763 C 257.793 236.763 257.67 236.339 257.744 234.868 C 257.801 233.827 257.713 232.844 257.55 232.685 C 257.385 232.521 257.254 232.616 257.254 232.887 C 257.254 233.158 256.965 233.377 256.617 233.377 C 256.266 233.377 255.977 233.095 255.977 232.745 C 255.977 232.401 256.168 232.112 256.403 232.112 C 256.64 232.112 256.83 231.796 256.83 231.411 C 256.83 230.854 256.667 230.906 255.99 231.675 C 255.52 232.202 254.545 232.757 253.811 232.906 L 252.478 233.175 L 253.587 234.356 C 254.214 235.026 254.91 235.408 255.19 235.24 C 255.46 235.073 255.569 235.12 255.431 235.337 C 255.294 235.554 255.958 236.565 256.904 237.583 C 258.381 239.161 258.529 239.48 257.933 239.809 C 257.55 240.017 257.35 240.37 257.485 240.588 C 257.622 240.805 257.554 240.985 257.328 240.985 C 257.102 240.985 256.808 240.703 256.676 240.359 C 256.538 240.002 256.149 239.841 255.775 239.984 C 255.309 240.161 255.117 239.969 255.117 239.33 C 255.117 238.246 253.901 237.665 253.37 238.496 C 253.166 238.821 252.991 239.608 252.985 240.247 C 252.985 240.886 252.787 241.407 252.552 241.407 C 252.32 241.407 252.126 241.258 252.126 241.075 C 252.126 240.895 251.549 240.529 250.847 240.269 C 249.981 239.946 249.561 239.5 249.561 238.907 C 249.561 238.421 249.285 238.023 248.946 238.023 C 248.056 238.023 247.645 237.146 248.331 236.715 C 248.76 236.451 248.777 236.345 248.388 236.343 C 248.093 236.34 247.855 235.964 247.855 235.515 C 247.855 235.063 247.657 234.575 247.419 234.43 C 246.61 233.934 245.742 231.24 245.993 229.999 C 246.193 229.025 246.002 228.553 245.081 227.71 C 244.448 227.127 243.269 226.436 242.469 226.172 C 241.669 225.914 241.014 225.496 241.014 225.251 C 241.014 225.01 240.581 224.392 240.054 223.877 C 238.465 222.351 237.59 221.142 237.59 220.475 C 237.59 219.514 236.753 219.731 236.335 220.801 C 236.05 221.536 236.198 221.995 236.994 222.832 C 237.555 223.427 238.016 224.211 238.016 224.572 C 238.016 225.591 239.691 227.459 240.616 227.459 C 241.068 227.459 241.438 227.71 241.438 228.011 C 241.438 228.318 242.309 229.168 243.365 229.909 C 245.316 231.27 245.591 231.825 244.873 232.95 C 244.534 233.484 244.333 233.431 243.572 232.622 C 243.076 232.097 242.475 231.787 242.234 231.936 C 241.936 232.116 241.945 232.351 242.259 232.661 C 242.514 232.915 242.727 233.446 242.727 233.84 C 242.727 234.838 240.563 237.182 239.638 237.182 C 239.077 237.182 238.879 237.514 238.879 238.451 C 238.879 239.856 238.074 240.129 237.017 239.084 C 236.663 238.733 236.246 238.451 236.089 238.451 C 235.436 238.451 233.32 236.659 233.32 236.104 C 233.32 235.354 235.371 234.814 235.967 235.403 C 236.502 235.93 239.384 235.555 239.845 234.898 C 240.363 234.162 239.789 232.542 238.664 231.546 C 236.347 229.502 235.375 228.727 235.105 228.717 C 234.945 228.711 234.252 227.951 233.563 227.027 C 232.873 226.1 232.055 225.346 231.747 225.346 C 231.439 225.346 231.186 225.155 231.186 224.922 C 231.186 224.69 231.39 224.5 231.647 224.5 C 232.267 224.5 231.669 222.727 230.844 222.132 C 230.352 221.779 229.866 221.822 228.876 222.308 C 226.355 223.545 226.066 223.657 225.489 223.657 C 225.169 223.657 224.295 223.354 223.542 222.984 C 221.872 222.16 220.93 222.454 220.93 223.806 C 220.93 225.024 220.417 225.473 218.153 226.246 C 215.899 227.011 213.576 229.07 213.885 230.023 C 214.139 230.817 211.716 233.542 211.095 233.164 C 210.897 233.043 210.449 233.232 210.092 233.586 C 209.355 234.315 208.195 234.398 206.677 233.824 C 205.266 233.295 203.824 233.721 203.824 234.671 C 203.824 235.611 204.237 235.89 205.818 236.008 C 206.486 236.057 207.269 236.326 207.561 236.603 C 207.911 236.945 208.476 236.991 209.27 236.749 C 213.944 235.321 214.986 235.274 223.065 236.179 C 224.353 236.325 226.436 236.424 227.68 236.399 C 229.263 236.368 230.012 236.535 230.173 236.951 C 230.301 237.283 230.677 237.448 231.012 237.321 C 231.417 237.166 231.617 237.386 231.617 237.994 C 231.617 238.491 231.335 239.001 230.993 239.13 C 230.504 239.321 230.473 239.56 230.845 240.28 C 232.105 242.702 232.122 242.782 231.548 243.146 C 231.231 243.344 230.661 243.505 230.275 243.511 C 229.89 243.511 229.457 243.815 229.312 244.174 C 229.168 244.553 229.24 244.721 229.488 244.566 C 229.721 244.423 230.56 244.987 231.35 245.815 C 232.146 246.649 233.203 247.323 233.721 247.323 C 235.426 247.323 238.461 248.963 238.461 249.881 C 238.461 250.414 238.896 250.89 239.633 251.171 C 240.282 251.417 241.678 252.058 242.735 252.595 C 245.398 253.958 245.881 253.816 246.138 251.553 Z M 254.557 243.638 C 253.879 243.539 253.431 243.241 253.524 242.963 C 253.716 242.392 253.779 242.389 256.506 242.848 C 260.278 243.492 258.471 244.225 254.557 243.638 Z M 269.651 243.496 C 269.651 242.885 270.771 241.812 271.084 242.122 C 271.222 242.258 271.82 242.053 272.42 241.666 C 273.532 240.943 273.899 241.268 272.986 242.169 C 272.704 242.448 272.645 242.674 272.854 242.674 C 273.061 242.674 272.864 242.956 272.406 243.298 C 271.436 244.023 269.651 244.15 269.651 243.496 Z M 259.663 242.464 C 259.983 241.655 260.25 241.655 260.25 242.464 C 260.25 242.814 260.062 243.099 259.836 243.099 C 259.606 243.099 259.529 242.817 259.663 242.464 Z M 236.728 240.984 C 236.728 240.444 237.033 240.444 237.37 240.984 C 237.514 241.22 237.43 241.406 237.179 241.406 C 236.933 241.406 236.728 241.223 236.728 240.984 Z M 227.699 233.093 C 227.671 232.897 227.686 232.557 227.736 232.324 C 227.787 232.092 227.821 231.118 227.821 230.154 C 227.821 228.798 227.978 228.424 228.526 228.467 C 229.078 228.51 229.2 228.191 229.1 226.963 C 229.003 225.748 229.166 225.311 229.862 224.941 C 230.634 224.528 230.74 224.591 230.715 225.438 C 230.699 225.971 230.532 226.787 230.347 227.245 C 230.156 227.71 230.165 228.514 230.36 229.031 C 230.63 229.745 230.216 232.193 229.723 232.796 C 229.47 233.102 227.736 233.353 227.699 233.093 Z M 218.144 230.445 C 217.767 229.843 218.248 229.154 219.04 229.154 C 219.41 229.154 219.629 229.449 219.545 229.858 C 219.382 230.707 218.529 231.062 218.144 230.445 Z M 220.482 229.601 C 220.482 229.356 220.676 229.154 220.911 229.154 C 221.457 229.154 221.457 229.451 220.911 229.787 C 220.673 229.93 220.482 229.846 220.482 229.601 Z M 256.019 237.908 C 255.669 237.564 255.547 237.611 255.547 238.084 C 255.547 238.928 256.12 239.495 256.33 238.863 C 256.421 238.596 256.28 238.166 256.019 237.908 Z M 303.569 232.004 C 304.196 231.548 304.228 231.288 303.77 230.1 C 303.478 229.347 303.093 228.73 302.908 228.73 C 302.722 228.73 302.571 228.489 302.571 228.194 C 302.571 227.897 302.186 226.948 301.716 226.082 C 301.246 225.216 300.86 224.243 300.86 223.917 C 300.86 223.599 300.568 223.098 300.22 222.807 C 299.867 222.519 299.578 221.831 299.578 221.278 C 299.578 220.549 299.339 220.276 298.702 220.276 C 298.226 220.276 297.347 219.798 296.764 219.218 C 296.172 218.635 295.52 218.16 295.316 218.16 C 295.109 218.16 294.586 217.719 294.16 217.183 C 293.113 215.875 292.065 215.533 291.426 216.299 C 291.037 216.758 291.021 217.164 291.357 217.859 C 291.607 218.371 291.927 219.266 292.062 219.849 C 292.194 220.43 292.448 221.102 292.629 221.338 C 293.3 222.235 297.577 225.344 298.137 225.344 C 298.461 225.344 298.724 225.63 298.724 225.976 C 298.724 226.323 298.426 226.611 298.059 226.611 C 297.522 226.611 297.426 227.074 297.526 229.04 C 297.641 231.273 297.742 231.486 298.724 231.613 C 299.313 231.691 299.979 231.932 300.197 232.14 C 300.789 232.705 302.719 232.624 303.569 232.004 Z M 262.384 230.845 C 262.384 230.612 262.081 230.42 261.719 230.42 C 261.353 230.42 261.167 230.612 261.315 230.845 C 261.657 231.391 262.384 231.391 262.384 230.845 Z M 267.846 228.143 C 269.551 227.064 273.501 226.317 273.501 227.074 C 273.501 227.315 273.702 227.392 273.947 227.241 C 274.192 227.09 274.677 227.198 275.017 227.48 C 275.367 227.766 276.879 227.988 278.443 227.988 C 280.763 227.988 281.418 227.827 282.271 227.033 C 283.553 225.845 283.174 224.953 280.888 223.765 C 279.998 223.303 278.214 222.373 276.918 221.687 C 274.398 220.36 273.508 220.345 271.72 221.597 C 270.334 222.571 269.225 222.623 269.225 221.721 C 269.225 221.349 268.827 220.943 268.335 220.816 C 267.726 220.657 267.51 220.341 267.656 219.798 C 267.802 219.243 267.632 219.011 267.085 219.011 C 266.655 219.011 266.207 218.772 266.085 218.484 C 265.8 217.796 264.12 219.781 264.107 220.812 C 264.097 221.221 263.708 221.881 263.235 222.279 C 262.765 222.682 262.383 223.525 262.383 224.177 C 262.383 224.822 262.207 225.351 262.003 225.351 C 261.281 225.351 261.128 227.234 261.764 228.198 C 262.666 229.548 265.664 229.524 267.846 228.143 Z M 275.345 218.429 C 275.471 218.107 275.371 217.648 275.126 217.406 C 274.556 216.838 272.646 217.638 272.646 218.445 C 272.646 219.204 275.051 219.189 275.345 218.429 Z M 244.187 200.611 C 245.196 199.851 246.636 199.808 247.347 200.514 C 247.715 200.878 247.971 200.899 248.181 200.589 C 248.35 200.342 248.798 200.025 249.188 199.882 C 249.636 199.718 249.968 198.967 250.11 197.801 C 250.232 196.797 250.673 194.983 251.095 193.768 C 251.734 191.922 252.073 191.513 253.167 191.238 C 254.315 190.949 254.168 190.884 251.908 190.695 C 250.411 190.571 249.271 190.652 249.167 190.897 C 248.867 191.611 248.058 192.261 247.098 192.56 C 246.135 192.861 245.465 194.188 245.913 194.907 C 246.207 195.369 245.415 197.071 244.681 197.553 C 244.425 197.727 243.781 197.866 243.252 197.871 C 242.258 197.878 241.964 198.473 242.719 198.934 C 243.361 199.328 243.228 199.989 242.503 199.989 C 242.153 199.989 241.864 199.799 241.864 199.567 C 241.864 199.334 241.384 199.145 240.794 199.145 C 240.205 199.145 239.724 199.334 239.724 199.567 C 239.724 199.799 240.013 199.989 240.364 199.989 C 240.718 199.989 241.01 200.279 241.01 200.624 C 241.005 201.448 243.075 201.442 244.187 200.611 Z M 246.993 195.495 C 246.993 195.005 247.284 194.359 247.641 194.066 C 248.651 193.229 248.748 193.765 247.829 195.148 C 247.091 196.257 246.997 196.298 246.993 195.495 Z M 239.269 196.636 C 239.771 196.322 239.786 196.068 239.36 195.268 C 239.049 194.678 238.933 194.607 239.071 195.076 C 239.215 195.553 239.005 196.093 238.553 196.44 C 237.709 197.067 238.305 197.238 239.269 196.636 Z M 254.534 195.125 C 254.904 194.173 253.868 193.091 253.154 193.68 C 252.702 194.043 252.693 194.312 253.095 194.951 C 253.712 195.929 254.201 195.988 254.534 195.125 Z M 271.363 191.984 C 271.363 191.41 270.608 191.036 270.338 191.47 C 270.081 191.879 270.451 192.384 271.006 192.384 C 271.204 192.384 271.363 192.205 271.363 191.984 Z M 258.691 190.056 C 259.004 189.247 258.784 189.247 258.108 190.056 C 257.798 190.422 257.76 190.689 258.011 190.689 C 258.25 190.691 258.553 190.407 258.691 190.056 Z M 250.523 187.994 C 250.878 187.479 250.771 183.085 250.404 183.085 C 250.275 183.085 249.586 183.618 248.868 184.266 C 247.175 185.795 246.667 187.611 247.724 188.396 C 248.53 188.996 249.975 188.791 250.523 187.994 Z M 263.667 188.381 C 263.667 187.841 262.46 186.884 261.769 186.884 C 261.333 186.884 261.516 187.975 262.042 188.49 C 262.751 189.194 263.667 189.129 263.667 188.381 Z M 253.22 181.557 C 254.841 180.332 255.142 179.281 253.862 179.281 C 253.025 179.281 251.693 180.316 251.693 180.967 C 251.693 181.163 251.577 181.628 251.436 181.991 C 251.066 182.942 251.534 182.828 253.22 181.557 Z M 266.447 180.546 C 266.303 180.316 265.858 180.137 265.46 180.152 C 264.866 180.18 264.892 180.249 265.592 180.546 C 266.736 181.036 266.749 181.036 266.447 180.546 Z M 268.583 178.266 C 268.583 177.481 268.335 177.382 266.419 177.382 C 264.481 177.382 264.27 177.468 264.418 178.225 C 264.552 178.92 264.941 179.081 266.582 179.116 C 268.345 179.15 268.583 179.051 268.583 178.266 Z M 352.362 170.452 C 352.492 170.25 352.325 169.857 351.996 169.587 C 351.503 169.185 351.432 169.252 351.624 169.959 C 351.873 170.917 352.014 171.007 352.362 170.452 Z M 283.817 158.033 C 283.397 157.618 283.345 157.67 283.578 158.269 C 283.739 158.688 283.978 158.921 284.109 158.79 C 284.243 158.663 284.109 158.319 283.817 158.033 Z M 333.793 146.151 C 333.793 146.067 333.457 145.732 333.047 145.413 C 332.37 144.889 332.354 144.905 332.887 145.575 C 333.441 146.274 333.793 146.502 333.793 146.151 Z M 303.004 128.789 C 303.004 128.47 297.716 126.894 297.48 127.145 C 297.22 127.425 297.36 127.489 300.44 128.565 C 302.149 129.165 303.004 129.238 303.004 128.789 Z M 294.319 350.124 C 294.225 349.957 294.123 349.045 294.093 348.096 C 294.047 346.689 294.279 346.149 295.339 345.144 C 296.47 344.077 296.601 343.718 296.37 342.365 C 296.063 340.59 297.066 338.196 298.108 338.196 C 299.297 338.196 302.604 336.4 303.773 335.126 C 308.485 329.96 308.52 329.928 309.144 330.593 C 309.977 331.464 310.336 334.657 309.661 335.213 C 309.369 335.452 309.003 335.523 308.849 335.375 C 308.692 335.22 308.566 335.605 308.566 336.224 C 308.566 336.847 308.372 337.353 308.137 337.353 C 307.901 337.353 307.711 337.539 307.711 337.769 C 307.711 338.259 304.851 342.829 302.365 346.317 C 301.064 348.146 300.198 348.894 298.759 349.436 C 296.587 350.26 294.571 350.572 294.319 350.124 Z M 317.116 339.489 C 317.116 339.241 317.306 339.039 317.543 339.039 C 318.091 339.039 318.091 339.339 317.543 339.671 C 317.307 339.815 317.116 339.736 317.116 339.489 Z M 215.776 313.286 C 215.776 313.039 215.973 312.837 216.204 312.837 C 216.757 312.837 216.757 313.136 216.204 313.469 C 215.971 313.615 215.776 313.534 215.776 313.286 Z M 144.07 309.56 C 139.317 302.221 133.414 288.974 130.545 279.214 C 125.98 263.66 124.268 245.893 125.94 231.346 C 126.636 225.315 127.395 224.94 127.278 230.692 C 127.067 241.331 127.146 245.194 127.591 245.724 C 127.852 246.031 128.287 247.613 128.56 249.235 C 128.829 250.859 129.227 252.513 129.441 252.915 C 129.651 253.318 129.832 254.559 129.836 255.663 C 129.843 256.773 130.108 258.815 130.432 260.215 C 130.758 261.611 131.143 263.7 131.294 264.866 C 131.77 268.594 135.281 277.021 137.552 279.905 C 138.207 280.749 139.633 283.268 140.712 285.511 C 141.797 287.753 142.848 289.588 143.054 289.588 C 143.503 289.588 143.835 290.382 144.622 293.31 C 145.494 296.539 145.381 297.477 143.926 299.267 L 142.625 300.867 L 143.741 304.21 C 144.979 307.931 146.058 311.993 145.808 311.993 C 145.716 311.991 144.936 310.898 144.07 309.56 Z M 316.686 282.83 C 317.53 282.29 318.517 282.29 318.185 282.83 C 318.041 283.06 317.499 283.252 316.984 283.246 C 316.222 283.243 316.166 283.164 316.686 282.83 Z M 291.887 280.045 C 291.887 279.301 292.809 279.431 293.072 280.216 C 293.166 280.492 292.939 280.719 292.564 280.719 C 292.194 280.718 291.887 280.411 291.887 280.045 Z M 162.098 264.628 C 161.944 264.381 161.919 264.076 162.044 263.953 C 162.348 263.649 163.181 264.182 163.181 264.678 C 163.185 265.22 162.446 265.186 162.098 264.628 Z M 163.612 262.963 C 163.612 262.42 163.916 262.42 164.254 262.963 C 164.398 263.193 164.317 263.387 164.062 263.387 C 163.816 263.387 163.612 263.196 163.612 262.963 Z M 161.367 260.231 C 160.508 259.069 160.438 258.736 161.045 258.736 C 161.277 258.736 161.471 258.957 161.471 259.23 C 161.471 259.503 161.793 260.076 162.182 260.502 C 162.571 260.926 162.715 261.265 162.502 261.261 C 162.289 261.251 161.778 260.793 161.367 260.231 Z M 371.303 247.489 C 371.133 247.322 371.005 246.692 371.016 246.096 L 371.044 245.003 L 371.454 246.02 C 371.904 247.124 371.81 247.992 371.303 247.489 Z M 181.391 245.269 C 181.206 244.975 181.176 244.622 181.316 244.482 C 181.698 244.103 182.116 244.662 181.908 245.272 C 181.762 245.7 181.661 245.7 181.391 245.269 Z M 184.355 244.535 C 184.97 243.933 185.569 243.537 185.691 243.651 C 186.026 243.983 184.453 245.638 183.807 245.638 C 183.479 245.635 183.709 245.177 184.355 244.535 Z M 179.859 243.52 C 179.859 243.29 180.16 243.099 180.527 243.099 C 180.894 243.099 181.075 243.29 180.929 243.52 C 180.586 244.073 179.859 244.073 179.859 243.52 Z M 182.853 233.803 C 182.853 233.263 183.157 233.263 183.495 233.803 C 183.639 234.035 183.554 234.224 183.307 234.224 C 183.057 234.224 182.853 234.035 182.853 233.803 Z M 176.438 217.741 C 176.438 217.199 176.743 217.199 177.08 217.741 C 177.224 217.971 177.143 218.165 176.893 218.165 C 176.639 218.165 176.438 217.973 176.438 217.741 Z M 174.071 214.338 C 173.682 213.712 173.993 213.486 174.676 213.91 C 175.046 214.13 175.09 214.351 174.802 214.524 C 174.561 214.674 174.231 214.59 174.071 214.338 Z M 131.611 210.552 C 131.611 209.972 131.709 209.733 131.827 210.025 C 131.942 210.316 131.942 210.791 131.827 211.083 C 131.707 211.374 131.611 211.139 131.611 210.552 Z M 131.877 206.705 C 131.56 205.886 132.412 202.103 132.918 202.103 C 133.266 202.103 133.047 203.964 132.41 206.314 C 132.203 207.089 132.066 207.188 131.877 206.705 Z M 136.674 191.535 C 136.674 191.305 136.866 191.113 137.101 191.113 C 137.336 191.113 137.527 191.305 137.527 191.535 C 137.527 191.767 137.336 191.959 137.101 191.959 C 136.866 191.959 136.674 191.767 136.674 191.535 Z M 137.954 189.194 C 137.954 188.667 139.317 186.404 139.511 186.599 C 139.744 186.825 138.498 189.428 138.156 189.428 C 138.047 189.424 137.954 189.321 137.954 189.194 Z M 226.479 186.387 C 226.473 185.989 226.673 185.544 226.927 185.391 C 227.676 184.929 227.787 185.417 227.121 186.284 C 226.57 187.002 226.492 187.011 226.479 186.387 Z M 139.668 185.671 C 139.668 185.438 139.862 185.131 140.097 184.989 C 140.329 184.843 140.523 184.914 140.523 185.147 C 140.523 185.381 140.329 185.69 140.097 185.833 C 139.863 185.975 139.668 185.904 139.668 185.671 Z M 222.803 181.395 C 222.803 180.931 223.057 180.546 223.366 180.546 C 223.799 180.546 223.827 180.748 223.473 181.395 C 222.899 182.452 222.803 182.452 222.803 181.395 Z M 167.616 178.754 C 167.666 178.463 167.848 177.988 168.033 177.696 C 168.246 177.358 168.124 177.166 167.701 177.166 C 167.333 177.166 167.033 176.89 167.033 176.546 C 167.033 176.146 167.281 176.022 167.738 176.199 C 168.449 176.469 168.427 175.933 167.616 173.229 C 167.453 172.695 167.657 172.392 168.277 172.233 C 168.769 172.106 169.171 171.873 169.171 171.715 C 169.171 171.56 169.516 171.405 169.948 171.377 C 171.249 171.278 174.312 169.811 174.161 169.355 C 174.083 169.122 173.578 168.903 173.041 168.877 C 171.904 168.819 171.232 167.956 171.545 166.961 C 171.667 166.573 171.567 166.13 171.323 165.981 C 171.075 165.829 170.878 166.059 170.878 166.5 C 170.878 166.934 170.595 167.657 170.251 168.109 C 169.27 169.393 169.429 167.939 170.451 166.276 C 171.628 164.375 171.53 163.798 169.971 163.488 C 167.87 163.073 167.761 163.159 169.018 164.226 C 170.169 165.205 170.175 165.252 169.46 166.341 C 169.055 166.952 168.438 167.451 168.094 167.451 C 167.745 167.451 167.46 167.621 167.46 167.826 C 167.46 168.03 167.069 168.301 166.588 168.424 C 166.115 168.548 165.755 168.809 165.795 169.004 C 165.98 169.94 165.146 172.105 164.603 172.105 C 164.264 172.105 164.092 172.272 164.218 172.47 C 164.344 172.672 164.977 172.752 165.629 172.656 C 166.714 172.486 166.754 172.525 166.071 173.075 C 165.66 173.404 165.322 173.916 165.322 174.204 C 165.322 174.865 163.275 174.421 162.294 173.55 C 161.927 173.221 161.291 172.952 160.889 172.952 C 160.278 172.952 160.241 172.806 160.645 172.055 C 160.912 171.562 161.498 171.066 161.944 170.948 C 162.389 170.833 162.755 170.56 162.755 170.339 C 162.755 170.126 162.592 170.042 162.392 170.165 C 162.191 170.286 161.809 169.917 161.545 169.343 C 161.282 168.767 160.897 168.302 160.684 168.302 C 160.038 168.302 158.065 170.017 158.169 170.488 C 158.223 170.735 157.993 171.036 157.665 171.155 C 157.247 171.307 157.147 171.157 157.329 170.683 C 157.48 170.302 157.41 169.992 157.186 169.992 C 156.961 169.992 156.772 169.676 156.772 169.289 C 156.772 168.641 156.716 168.641 155.989 169.289 C 155.56 169.676 155.001 169.992 154.753 169.992 C 154.503 169.992 153.355 170.829 152.204 171.849 C 150.486 173.375 149.894 173.667 148.906 173.484 C 147.95 173.304 147.489 173.506 146.653 174.48 L 145.6 175.702 L 146.352 174.337 C 146.766 173.593 148.754 170.796 150.763 168.129 C 169.745 142.954 197.428 125.626 228.432 119.514 C 240.522 117.127 255.045 116.137 262.24 117.202 C 264.315 117.509 265.574 117.828 265.031 117.918 C 264.485 118.004 263.934 118.346 263.806 118.677 C 263.668 119.031 262.984 119.276 262.146 119.276 C 260.582 119.276 259.789 119.942 260.987 120.252 C 261.613 120.416 261.593 120.454 260.865 120.494 C 260.384 120.524 259.762 120.769 259.482 121.046 C 259.134 121.388 256.269 121.582 250.311 121.66 C 239.99 121.799 239.275 121.877 236.275 123.189 C 234.996 123.746 232.955 124.321 231.738 124.463 C 230.518 124.605 229.17 124.91 228.741 125.142 C 228.314 125.372 227.392 125.682 226.7 125.831 C 225.765 126.026 225.597 126.19 226.041 126.461 C 226.368 126.659 226.79 126.736 226.976 126.622 C 227.159 126.51 227.986 126.6 228.81 126.824 C 229.71 127.072 230.402 127.078 230.55 126.849 C 230.685 126.636 230.55 126.462 230.256 126.462 C 229.917 126.462 229.867 126.316 230.119 126.075 C 230.849 125.377 233.511 125.414 234.543 126.128 C 235.474 126.773 235.487 126.838 234.74 127.216 C 233.944 127.623 230.997 128.32 228.119 128.774 C 226.953 128.963 226.492 129.27 226.31 129.998 C 226.077 130.91 225.846 130.977 222.952 130.977 C 219.619 130.977 215.684 131.876 215.919 132.586 C 216.113 133.167 218.271 133.387 218.91 132.89 C 220.653 131.526 225.009 131.255 224.509 132.546 C 224.252 133.209 225.466 133.815 225.845 133.213 C 225.982 132.989 226.465 132.806 226.926 132.806 C 227.4 132.806 227.757 132.515 227.757 132.127 C 227.757 131.677 227.989 131.531 228.431 131.702 C 228.805 131.842 229.394 131.96 229.745 131.96 C 230.3 131.96 230.3 132.04 229.726 132.605 C 228.684 133.636 229.284 134.346 231.03 134.144 C 232.1 134.019 232.482 134.113 232.279 134.441 C 232.076 134.768 232.598 134.918 233.947 134.918 C 235.295 134.918 235.985 135.116 236.157 135.548 C 236.292 135.895 236.671 136.183 236.997 136.183 C 237.53 136.183 237.774 136.702 237.486 137.222 C 237.427 137.328 237.758 137.687 238.219 138.019 C 238.941 138.539 238.987 138.778 238.554 139.718 C 238.276 140.314 237.576 140.925 237.003 141.067 L 235.958 141.326 L 236.88 142.241 C 237.391 142.743 238.224 143.189 238.736 143.236 C 239.247 143.279 240.262 143.617 240.993 143.989 C 242.037 144.523 242.288 144.898 242.175 145.741 C 242.096 146.33 241.755 146.987 241.416 147.195 C 240.952 147.49 240.935 147.583 241.359 147.586 C 241.666 147.589 241.798 147.788 241.653 148.021 C 241.509 148.251 241.69 148.442 242.055 148.442 C 242.425 148.442 242.723 148.728 242.723 149.075 C 242.723 149.419 242.46 149.707 242.134 149.707 C 241.24 149.707 237.59 151.388 237.59 151.801 C 237.59 152.003 237.157 152.083 236.627 151.99 C 236.097 151.893 235.905 151.921 236.198 152.061 C 236.59 152.246 236.609 152.526 236.27 153.158 C 236.016 153.623 235.696 153.896 235.561 153.763 C 235.426 153.632 235.1 153.816 234.837 154.176 C 234.57 154.533 234.008 154.877 233.582 154.939 C 232.675 155.07 232.021 155.969 232.306 156.697 C 232.478 157.144 231.594 157.566 230.098 157.755 C 229.866 157.785 229.402 158.031 229.082 158.297 C 228.754 158.561 228.223 158.784 227.906 158.788 C 227.245 158.794 223.902 161.866 223.902 162.471 C 223.902 162.684 223.491 162.738 222.99 162.583 C 222.41 162.397 222.181 162.456 222.363 162.738 C 222.586 163.097 219.238 163.966 218.348 163.776 C 214.648 163.004 213.165 162.952 209.471 163.451 C 207.96 163.66 207.033 163.597 206.624 163.262 C 206.154 162.877 205.672 162.909 204.484 163.398 C 203.64 163.745 202.948 164.205 202.948 164.412 C 202.948 164.616 202.349 164.809 201.615 164.831 C 200.884 164.852 198.981 165.547 197.386 166.371 C 193.96 168.155 193.319 168.25 193.749 166.929 C 193.919 166.404 194.097 165.372 194.154 164.631 C 194.276 162.91 195.702 161.078 199.644 157.595 C 203.33 154.329 208.507 151.663 208.507 153.028 C 208.507 153.226 208.992 153.301 209.588 153.189 C 210.595 152.997 210.613 152.944 209.908 152.401 C 209.184 151.846 209.19 151.788 210.006 151.155 C 210.476 150.79 211.385 150.564 212.028 150.656 C 212.887 150.777 213.27 150.607 213.451 150.039 C 213.599 149.574 215.176 148.578 217.301 147.593 C 221.436 145.689 223.098 144.297 222.759 143.015 C 222.574 142.333 222.896 141.97 224.273 141.273 C 225.232 140.789 226.163 140.423 226.346 140.464 C 226.531 140.504 227.011 140.393 227.415 140.216 C 227.892 140.011 228.703 140.235 229.704 140.842 C 230.955 141.605 231.328 141.679 231.613 141.221 C 232.401 139.962 229.012 139.103 221.869 138.759 C 220.599 138.694 220.653 137.804 222.017 136.204 C 222.841 135.233 222.957 134.907 222.469 134.907 C 222.112 134.907 221.694 135.105 221.538 135.35 C 221.353 135.645 220.885 135.552 220.158 135.086 C 219.19 134.46 218.714 134.432 216.215 134.875 C 214.653 135.151 212.804 135.746 212.117 136.196 C 211.423 136.648 210.514 137.015 210.088 137.02 C 209.661 137.02 209.433 137.212 209.577 137.445 C 210.018 138.148 211.508 137.916 212.913 136.93 C 214.371 135.904 219.347 135.308 220.115 136.068 C 220.892 136.836 218.456 139.686 215.945 140.949 C 214.657 141.597 213.49 142.406 213.359 142.745 C 213.228 143.084 212.85 143.362 212.521 143.362 C 212.195 143.362 211.919 143.598 211.913 143.889 C 211.9 144.466 208.492 146.32 207.445 146.32 C 207.091 146.32 206.269 146.928 205.624 147.672 C 202.899 150.8 202.642 150.967 200.765 150.896 L 198.968 150.828 L 200.316 149.64 C 201.056 148.982 201.665 148.343 201.665 148.214 C 201.665 147.771 199.816 148.964 198.474 150.279 C 197.73 151.004 196.398 151.817 195.514 152.078 C 194.4 152.406 194.046 152.413 194.363 152.103 C 195.159 151.318 194.861 150.806 194.041 151.539 C 192.733 152.707 192.579 152.326 193.621 150.491 C 194.163 149.53 195.411 148.094 196.389 147.297 C 197.37 146.5 198.371 145.288 198.612 144.602 C 198.869 143.885 199.528 143.178 200.174 142.937 C 201.616 142.394 201.664 142.401 201.664 143.163 C 201.664 144.047 202.94 144.468 203.41 143.739 C 203.68 143.32 203.789 143.302 203.795 143.681 C 203.798 143.969 204.011 144.208 204.276 144.208 C 204.545 144.208 204.652 143.833 204.523 143.339 C 204.358 142.713 204.554 142.371 205.241 142.115 C 205.759 141.919 206.442 141.454 206.759 141.082 C 207.073 140.713 207.784 140.403 208.343 140.403 C 208.904 140.403 209.356 140.232 209.356 140.024 C 209.356 139.807 208.694 139.804 207.753 140.018 C 206.875 140.226 205.345 140.282 204.367 140.142 C 202.831 139.931 202.304 140.084 200.595 141.25 C 199.501 141.99 198.479 142.472 198.32 142.313 C 198.156 142.154 198.376 141.777 198.8 141.466 C 199.324 141.087 199.417 140.812 199.094 140.614 C 198.332 140.149 199.934 138.647 200.875 138.946 C 202.028 139.309 202.643 138.778 201.91 138.056 C 201.571 137.72 201.114 137.447 200.892 137.447 C 200.666 137.447 200.246 137.161 199.954 136.815 C 199.284 136.014 197.079 136.006 195.678 136.796 C 195.088 137.127 193.953 137.695 193.154 138.061 C 192.352 138.424 190.888 139.437 189.894 140.306 C 188.897 141.171 187.279 142.524 186.292 143.307 C 185.304 144.091 184.291 145.174 184.044 145.71 C 183.798 146.246 183.003 146.928 182.283 147.227 C 181.561 147.522 180.386 148.268 179.668 148.883 C 178.946 149.5 177.808 150.288 177.132 150.638 C 176.147 151.138 176.038 151.318 176.596 151.525 C 176.979 151.674 177.295 151.605 177.295 151.379 C 177.295 151.159 177.495 150.97 177.747 150.97 C 177.998 150.97 178.906 150.495 179.776 149.909 C 180.648 149.326 181.422 149.044 181.5 149.277 C 181.883 150.409 186.034 149.072 187.667 147.283 C 188.078 146.833 188.849 146.502 189.376 146.547 C 189.907 146.594 190.725 146.427 191.192 146.175 C 192.189 145.642 194.888 144.65 195.371 144.641 C 195.553 144.638 195.408 145.082 195.049 145.624 C 194.692 146.164 194.496 146.709 194.625 146.837 C 194.751 146.962 194.173 147.652 193.346 148.375 C 192.512 149.094 191.832 149.879 191.832 150.115 C 191.832 150.348 191.114 150.84 190.236 151.206 C 188.543 151.904 186.703 153.392 186.703 154.068 C 186.703 154.294 187.562 154.375 188.721 154.244 C 190.442 154.053 190.631 154.098 189.992 154.563 C 189.254 155.097 185.863 158.111 182.824 160.939 C 181.981 161.72 181.041 163.122 180.727 164.05 C 180.417 164.983 180.022 165.656 179.853 165.553 C 179.677 165.448 179.304 165.913 179.022 166.589 C 178.263 168.406 175.827 170.486 175.187 169.857 C 174.802 169.482 174.748 169.528 174.949 170.055 C 175.146 170.554 174.857 170.868 173.907 171.193 C 173.185 171.44 172.6 171.939 172.6 172.3 C 172.6 172.663 172.367 172.954 172.086 172.954 C 171.707 172.954 171.697 173.079 172.055 173.432 C 172.664 174.034 172.281 175.004 170.955 176.222 C 170.378 176.749 170.061 177.184 170.246 177.184 C 170.431 177.184 170.063 177.659 169.43 178.242 C 168.164 179.38 167.49 179.578 167.616 178.754 Z M 162.944 160.896 C 163.148 160.049 163.104 159.771 162.818 160.049 C 162.586 160.279 162.254 161.041 162.091 161.735 C 161.887 162.585 161.935 162.865 162.217 162.585 C 162.452 162.353 162.781 161.593 162.944 160.896 Z M 161.804 160.025 C 161.86 159.401 161.719 159.054 161.468 159.203 C 160.973 159.51 160.892 161.107 161.381 161.107 C 161.565 161.103 161.756 160.619 161.804 160.025 Z M 166.389 156.036 C 167.299 155.044 166.552 154.879 165.565 155.854 C 164.81 156.598 164.725 156.88 165.254 156.88 C 165.456 156.88 165.963 156.499 166.389 156.036 Z M 168.958 152.229 C 169.293 151.693 168.729 151.693 167.888 152.229 C 167.333 152.579 167.346 152.641 167.969 152.648 C 168.368 152.65 168.81 152.464 168.958 152.229 Z M 173.119 149.602 C 173.856 148.923 174.241 148.241 174.056 147.95 C 173.849 147.621 173.928 147.562 174.291 147.786 C 174.658 148.006 174.774 147.926 174.642 147.532 C 174.387 146.781 173.773 146.899 173.23 147.807 C 172.998 148.201 172.277 149.057 171.628 149.709 C 170.982 150.363 170.451 151.126 170.451 151.404 C 170.453 151.953 170.876 151.67 173.119 149.602 Z M 210.86 140.396 C 210.712 140.164 210.402 139.975 210.164 139.975 C 209.931 139.975 209.857 140.164 210.001 140.396 C 210.144 140.629 210.458 140.821 210.694 140.821 C 210.93 140.821 211.005 140.629 210.86 140.396 Z M 228.533 135.332 C 229.148 135.339 229.157 135.395 228.602 135.748 C 228.043 136.105 228.05 136.161 228.661 136.163 C 229.037 136.169 229.579 135.903 229.859 135.571 C 230.255 135.096 230.192 134.923 229.539 134.715 C 228.415 134.362 227.314 134.848 227.354 135.685 C 227.376 136.129 227.467 136.185 227.602 135.853 C 227.725 135.558 228.141 135.329 228.533 135.332 Z M 215.886 131.521 C 216.247 131.521 216.651 131.235 216.786 130.888 C 217.119 130.039 216.695 130.092 215.005 131.105 C 214.172 131.608 213.72 132.151 213.895 132.435 C 214.106 132.767 214.356 132.702 214.711 132.218 C 214.999 131.835 215.525 131.521 215.886 131.521 Z M 220.691 127.719 C 220.839 127.487 220.767 127.295 220.528 127.295 C 220.293 127.295 219.983 127.487 219.835 127.719 C 219.687 127.949 219.765 128.141 220.001 128.141 C 220.236 128.141 220.548 127.949 220.691 127.719 Z M 224.328 124.336 C 224.328 124.103 224.039 123.912 223.689 123.912 C 223.338 123.912 223.049 124.103 223.049 124.336 C 223.049 124.566 223.338 124.757 223.689 124.757 C 224.039 124.757 224.328 124.566 224.328 124.336 Z M 214.07 173.984 C 214.07 173.627 213.779 173.227 213.428 173.094 C 212.597 172.778 212.597 172.098 213.428 172.098 C 213.779 172.098 214.07 171.81 214.07 171.466 C 214.07 171.115 213.866 170.831 213.613 170.831 C 213.365 170.831 213.278 170.65 213.415 170.428 C 213.553 170.206 213.983 170.142 214.368 170.288 C 214.916 170.497 215.001 170.385 214.77 169.776 C 214.435 168.918 215.087 168.313 216.362 168.303 C 216.952 168.297 217.1 168.514 216.936 169.14 C 216.764 169.792 216.924 169.99 217.635 169.992 C 218.14 169.992 219.294 170.191 220.184 170.439 C 221.68 170.852 221.802 170.997 221.683 172.229 C 221.511 173.981 220.182 174.626 216.739 174.636 C 214.622 174.632 214.07 174.496 214.07 173.984 Z M 272.931 170.545 C 272.342 169.964 272.678 169.138 273.501 169.138 C 274.071 169.138 274.358 169.42 274.358 169.985 C 274.359 170.796 273.52 171.125 272.931 170.545 Z M 249.614 158.681 C 249.347 158.184 249.131 157.484 249.131 157.119 C 249.131 156.759 248.937 156.458 248.702 156.458 C 248.2 156.458 248.141 154.787 248.624 154.036 C 248.818 153.735 249.533 153.589 250.327 153.689 C 251.079 153.786 251.697 153.692 251.697 153.491 C 251.697 153.097 254.572 153.243 254.992 153.659 C 255.412 154.068 254.161 155.244 253.553 155.01 C 252.765 154.713 252.828 155.6 253.662 156.505 C 254.458 157.376 254.154 158.123 253.035 158.037 C 252.502 157.996 252.311 157.733 252.446 157.218 C 252.791 155.921 251.956 156.39 251.006 158.024 C 250.135 159.522 250.085 159.547 249.614 158.681 Z M 192.145 153.019 C 192.434 152.73 192.776 152.603 192.907 152.733 C 193.038 152.862 192.806 153.099 192.38 153.257 C 191.775 153.491 191.729 153.442 192.145 153.019 Z M 280.763 152.431 C 279.977 151.497 280.424 151.389 281.306 152.3 C 281.716 152.728 281.886 153.075 281.679 153.075 C 281.47 153.075 281.057 152.786 280.763 152.431 Z M 261.664 152.384 C 261.31 152.241 261.369 151.959 261.877 151.454 C 262.383 150.948 262.746 150.858 263.086 151.163 C 263.356 151.402 263.476 151.765 263.35 151.97 C 263.221 152.174 263.387 152.252 263.713 152.14 C 264.089 152.013 264.259 151.46 264.174 150.608 C 264.042 149.318 264.074 149.29 265.205 149.715 C 266.049 150.034 266.46 150.022 266.677 149.668 C 266.893 149.318 267.062 149.311 267.273 149.649 C 267.436 149.907 267.351 150.118 267.087 150.118 C 266.822 150.118 266.727 150.31 266.873 150.542 C 267.021 150.772 266.886 150.966 266.579 150.97 C 266.172 150.976 266.194 151.088 266.659 151.385 C 267.182 151.721 267.125 151.798 266.37 151.804 C 265.864 151.807 265.35 151.572 265.231 151.28 C 265.094 150.951 265.002 151.011 264.981 151.448 C 264.934 152.464 263.13 152.973 261.664 152.384 Z M 183.461 148.055 C 183.59 147.851 184.129 147.575 184.662 147.442 C 185.597 147.212 185.602 147.228 184.803 147.814 C 183.881 148.492 183.101 148.634 183.461 148.055 Z M 194.396 143.776 C 195.236 143.24 195.804 143.24 195.466 143.776 C 195.322 144.006 194.879 144.198 194.481 144.195 C 193.854 144.188 193.845 144.132 194.396 143.776 Z M 196.534 141.664 C 196.534 141.434 196.826 141.24 197.177 141.24 C 197.527 141.24 197.816 141.435 197.816 141.664 C 197.816 141.893 197.527 142.088 197.177 142.088 C 196.823 142.089 196.534 141.894 196.534 141.664 Z M 234.707 134.222 C 234.851 134.083 235.218 134.067 235.529 134.188 C 235.864 134.321 235.768 134.424 235.268 134.442 C 234.816 134.464 234.566 134.362 234.707 134.222 Z M 231.841 133.646 C 231.386 133.487 231.195 133.261 231.414 133.143 C 231.982 132.833 235.684 132.693 235.384 132.99 C 234.86 133.509 232.631 133.921 231.841 133.646 Z M 234.697 131.664 C 233.785 131.301 234.107 130.61 235.126 130.752 C 235.652 130.827 236.037 131.081 235.978 131.31 C 235.851 131.824 235.412 131.942 234.697 131.664 Z M 228.606 131.381 C 228.606 131.248 229.041 130.671 229.578 130.107 C 230.28 129.363 231.164 129.003 232.735 128.838 C 233.939 128.711 235.425 128.481 236.039 128.33 C 236.87 128.122 237.155 128.216 237.155 128.674 C 237.155 129.518 236.032 130.404 235.434 130.039 C 235.173 129.877 234.057 129.884 232.961 130.054 C 231.368 130.299 231.133 130.428 231.816 130.702 C 232.591 131.011 232.571 131.043 231.603 131.076 C 231.014 131.095 230.102 131.225 229.572 131.365 C 229.037 131.506 228.606 131.512 228.606 131.381 Z M 269.539 123.632 C 269.828 123.518 270.409 123.511 270.822 123.617 C 271.238 123.725 271.001 123.819 270.296 123.828 C 269.59 123.837 269.248 123.75 269.539 123.632 Z" style="fill: rgb(130, 179, 102);"/>
</svg>